G04*
G04 #@! TF.GenerationSoftware,Altium Limited,Altium Designer,26.9.1 (10)*
G04*
G04 Layer_Physical_Order=1*
G04 Layer_Color=255*
G04 Board_Origin=0|0*
%FSLAX25Y25*%
%MOIN*%
G70*
G04*
G04 #@! TF.SameCoordinates,590D5ED9-90A2-411D-BA64-131C378DF934*
G04*
G04*
G04 #@! TF.FilePolarity,Positive*
G04*
G01*
G75*
%ADD13C,0.00500*%
G04:AMPARAMS|DCode=14|XSize=21.65mil|YSize=19.68mil|CornerRadius=2.46mil|HoleSize=0mil|Usage=FLASHONLY|Rotation=270.000|XOffset=0mil|YOffset=0mil|HoleType=Round|Shape=RoundedRectangle|*
%AMROUNDEDRECTD14*
21,1,0.02165,0.01476,0,0,270.0*
21,1,0.01673,0.01968,0,0,270.0*
1,1,0.00492,-0.00738,-0.00837*
1,1,0.00492,-0.00738,0.00837*
1,1,0.00492,0.00738,0.00837*
1,1,0.00492,0.00738,-0.00837*
%
%ADD14ROUNDEDRECTD14*%
%ADD15R,0.02756X0.02362*%
%ADD16R,0.02205X0.02047*%
%ADD17R,0.02047X0.02205*%
G04:AMPARAMS|DCode=18|XSize=11.81mil|YSize=15.75mil|CornerRadius=1.95mil|HoleSize=0mil|Usage=FLASHONLY|Rotation=90.000|XOffset=0mil|YOffset=0mil|HoleType=Round|Shape=RoundedRectangle|*
%AMROUNDEDRECTD18*
21,1,0.01181,0.01185,0,0,90.0*
21,1,0.00791,0.01575,0,0,90.0*
1,1,0.00390,0.00593,0.00396*
1,1,0.00390,0.00593,-0.00396*
1,1,0.00390,-0.00593,-0.00396*
1,1,0.00390,-0.00593,0.00396*
%
%ADD18ROUNDEDRECTD18*%
%ADD19R,0.22441X0.22441*%
%ADD20R,0.04921X0.02362*%
%ADD21R,0.01181X0.03347*%
%ADD22R,0.03937X0.06693*%
%ADD23R,0.02756X0.01378*%
%ADD24R,0.13386X0.05906*%
G04:AMPARAMS|DCode=25|XSize=21.65mil|YSize=19.68mil|CornerRadius=2.46mil|HoleSize=0mil|Usage=FLASHONLY|Rotation=0.000|XOffset=0mil|YOffset=0mil|HoleType=Round|Shape=RoundedRectangle|*
%AMROUNDEDRECTD25*
21,1,0.02165,0.01476,0,0,0.0*
21,1,0.01673,0.01968,0,0,0.0*
1,1,0.00492,0.00837,-0.00738*
1,1,0.00492,-0.00837,-0.00738*
1,1,0.00492,-0.00837,0.00738*
1,1,0.00492,0.00837,0.00738*
%
%ADD25ROUNDEDRECTD25*%
%ADD26R,0.00787X0.02953*%
%ADD27R,0.06299X0.03937*%
%ADD28R,0.13780X0.03937*%
%ADD29R,0.05118X0.01181*%
%ADD30R,0.03347X0.01181*%
%ADD31R,0.00965X0.01772*%
%ADD32R,0.02953X0.03347*%
%ADD33R,0.04528X0.02362*%
%ADD34R,0.05906X0.09055*%
%ADD35R,0.02362X0.02756*%
%ADD36R,0.04800X0.03600*%
%ADD37R,0.02551X0.02201*%
%ADD38R,0.04528X0.03937*%
%ADD39R,0.01378X0.02559*%
%ADD40R,0.16142X0.07284*%
%ADD41R,0.02756X0.01083*%
%ADD42R,0.04528X0.01181*%
%ADD43R,0.08661X0.07087*%
%ADD44R,0.02559X0.01378*%
%ADD45R,0.04331X0.07480*%
%ADD46R,0.01575X0.01575*%
%ADD71R,0.25984X0.01575*%
%ADD72R,0.01575X0.06299*%
%ADD73R,0.36614X0.01575*%
%ADD74R,0.11417X0.01575*%
%ADD75R,0.01575X0.05906*%
G04:AMPARAMS|DCode=76|XSize=39.37mil|YSize=70.87mil|CornerRadius=19.68mil|HoleSize=0mil|Usage=FLASHONLY|Rotation=270.000|XOffset=0mil|YOffset=0mil|HoleType=Round|Shape=RoundedRectangle|*
%AMROUNDEDRECTD76*
21,1,0.03937,0.03150,0,0,270.0*
21,1,0.00000,0.07087,0,0,270.0*
1,1,0.03937,-0.01575,0.00000*
1,1,0.03937,-0.01575,0.00000*
1,1,0.03937,0.01575,0.00000*
1,1,0.03937,0.01575,0.00000*
%
%ADD76ROUNDEDRECTD76*%
G04:AMPARAMS|DCode=77|XSize=39.37mil|YSize=86.61mil|CornerRadius=19.68mil|HoleSize=0mil|Usage=FLASHONLY|Rotation=270.000|XOffset=0mil|YOffset=0mil|HoleType=Round|Shape=RoundedRectangle|*
%AMROUNDEDRECTD77*
21,1,0.03937,0.04724,0,0,270.0*
21,1,0.00000,0.08661,0,0,270.0*
1,1,0.03937,-0.02362,0.00000*
1,1,0.03937,-0.02362,0.00000*
1,1,0.03937,0.02362,0.00000*
1,1,0.03937,0.02362,0.00000*
%
%ADD77ROUNDEDRECTD77*%
%ADD79C,0.03937*%
%ADD80C,0.00600*%
%ADD81C,0.01000*%
%ADD82C,0.00736*%
%ADD83C,0.01596*%
%ADD84C,0.01181*%
%ADD85C,0.02362*%
G36*
X174000Y456289D02*
Y431737D01*
X173538Y431545D01*
X172422Y432662D01*
X172422Y432662D01*
X171832Y433252D01*
X171949Y433841D01*
X172114Y433910D01*
X172587Y434382D01*
X172843Y435000D01*
Y435669D01*
X172587Y436287D01*
X172114Y436760D01*
X171977Y436816D01*
Y437281D01*
X171998D01*
X172289Y437339D01*
X172536Y437503D01*
X172701Y437750D01*
X172759Y438041D01*
Y439518D01*
X172701Y439809D01*
X172536Y440056D01*
X172289Y440220D01*
X171998Y440278D01*
X170325D01*
X170034Y440220D01*
X169787Y440056D01*
X169622Y439809D01*
X169564Y439518D01*
Y438041D01*
X169622Y437750D01*
X169787Y437503D01*
X170034Y437339D01*
X170325Y437281D01*
X170346D01*
Y436816D01*
X170209Y436760D01*
X169736Y436287D01*
X169668Y436123D01*
X169078Y436005D01*
X166567Y438516D01*
X166237Y438737D01*
X165847Y438815D01*
X161791D01*
X161385Y439220D01*
X160919Y439413D01*
X160970Y439670D01*
Y441437D01*
X161221D01*
Y441687D01*
X162823D01*
Y442961D01*
X162823D01*
X162975Y443398D01*
X164083D01*
Y451878D01*
X158752D01*
Y444551D01*
X158286Y444085D01*
X158109Y443820D01*
X158047Y443508D01*
X158047Y443508D01*
Y442961D01*
X157043D01*
X156547Y442961D01*
Y442961D01*
X156543D01*
Y442961D01*
X154895D01*
Y443558D01*
X154833Y443870D01*
X154656Y444135D01*
X154656Y444135D01*
X154240Y444551D01*
Y451878D01*
X148909D01*
Y443398D01*
X150116D01*
X150268Y442961D01*
X150268D01*
Y441687D01*
X151870D01*
Y441187D01*
X150268D01*
Y440909D01*
X149806Y440718D01*
X143537Y446987D01*
X143709Y447402D01*
Y448071D01*
X143453Y448689D01*
X142980Y449161D01*
X142362Y449417D01*
X141693D01*
X141075Y449161D01*
X140602Y448689D01*
X140347Y448071D01*
Y447402D01*
X140602Y446784D01*
X140893Y446493D01*
X140686Y445993D01*
X134553D01*
X134496Y446129D01*
X134023Y446602D01*
X133405Y446858D01*
X132737D01*
X132119Y446602D01*
X131646Y446129D01*
X131390Y445512D01*
Y444843D01*
X131646Y444225D01*
X132119Y443752D01*
X132737Y443496D01*
X133405D01*
X134023Y443752D01*
X134496Y444225D01*
X134553Y444361D01*
X141296D01*
X147082Y438576D01*
X146890Y438114D01*
X145611D01*
Y436762D01*
X147134D01*
Y436262D01*
X145611D01*
Y434280D01*
X145595Y434201D01*
Y434062D01*
X145595Y434062D01*
X145611Y433984D01*
Y433940D01*
X145111Y433684D01*
X144968Y433787D01*
Y435185D01*
X144968D01*
X144870Y435287D01*
Y438335D01*
X143685D01*
Y438437D01*
X143607Y438827D01*
X143386Y439158D01*
X142025Y440519D01*
X141695Y440740D01*
X141583Y441011D01*
X141110Y441484D01*
X140492Y441740D01*
X139823D01*
X139205Y441484D01*
X138732Y441011D01*
X138476Y440393D01*
Y439725D01*
X138732Y439107D01*
X139005Y438835D01*
X138797Y438335D01*
X138594D01*
Y437061D01*
X140197D01*
Y436561D01*
X138594D01*
Y435287D01*
X138594D01*
X138693Y435185D01*
Y434050D01*
X138193Y433951D01*
X138084Y434214D01*
X137611Y434687D01*
X136993Y434942D01*
X136324D01*
X135706Y434687D01*
X135234Y434214D01*
X134978Y433596D01*
Y432927D01*
X135121Y432582D01*
X134758Y432219D01*
X134653Y432062D01*
X134248Y432038D01*
X134107Y432073D01*
X133635Y432546D01*
X133017Y432802D01*
X132861D01*
X132627Y433302D01*
X132817Y433549D01*
X133208D01*
X133826Y433805D01*
X134299Y434278D01*
X134555Y434896D01*
Y435564D01*
X134299Y436182D01*
X133826Y436655D01*
X133208Y436911D01*
X132540D01*
X131922Y436655D01*
X131449Y436182D01*
X131193Y435564D01*
Y434896D01*
X131213Y434848D01*
X131024Y434618D01*
X130461Y434710D01*
X130461Y434712D01*
X129988Y435185D01*
X129370Y435441D01*
X128701D01*
X128083Y435185D01*
X127610Y434712D01*
X127354Y434094D01*
Y433426D01*
X127610Y432808D01*
X128047Y432371D01*
Y431262D01*
X127547Y431056D01*
X127020Y431274D01*
X126351D01*
X125733Y431018D01*
X125260Y430545D01*
X125004Y429927D01*
Y429258D01*
X125260Y428640D01*
X125733Y428167D01*
X125870Y428111D01*
Y425874D01*
X124659D01*
Y424272D01*
X124159D01*
Y425874D01*
X122886D01*
Y424487D01*
X122386Y424220D01*
X122378Y424225D01*
Y430975D01*
X129780Y438378D01*
X130354D01*
X130972Y438634D01*
X131445Y439107D01*
X131701Y439725D01*
Y440393D01*
X131445Y441011D01*
X130972Y441484D01*
X130354Y441740D01*
X129685D01*
X129067Y441484D01*
X128595Y441011D01*
X128339Y440393D01*
Y439820D01*
X120637Y432119D01*
X120416Y431788D01*
X120339Y431398D01*
Y423327D01*
X120416Y422937D01*
X120637Y422606D01*
X122161Y421082D01*
X122492Y420861D01*
X122882Y420784D01*
X122886D01*
Y419598D01*
X124570D01*
X125744Y418425D01*
X126035Y418230D01*
Y416941D01*
X127641D01*
X132030Y412552D01*
X131823Y412052D01*
X126139D01*
X115310Y422881D01*
X115303Y423378D01*
X115303D01*
Y426425D01*
X115461Y426665D01*
X115461D01*
Y429043D01*
X111902D01*
Y426665D01*
X111501Y426425D01*
X110880D01*
Y424902D01*
X110630D01*
D01*
X110880D01*
Y423378D01*
X112456D01*
Y422539D01*
X112557Y422033D01*
X112844Y421604D01*
X124655Y409793D01*
X125084Y409506D01*
X125591Y409405D01*
X132677D01*
X132775Y409425D01*
X133161Y409107D01*
Y409010D01*
X135335D01*
Y408510D01*
X133161D01*
Y407720D01*
X132823D01*
X132433Y407643D01*
X132102Y407422D01*
X130397Y405717D01*
X128791D01*
X128787Y405756D01*
X125740D01*
Y405212D01*
X120196D01*
X119752Y405657D01*
X119134Y405913D01*
X118465D01*
X117847Y405657D01*
X117374Y405185D01*
X117118Y404567D01*
Y403898D01*
X117374Y403280D01*
X117847Y402807D01*
X118465Y402551D01*
X119134D01*
X119752Y402807D01*
X120118Y403173D01*
X125740D01*
Y401333D01*
X127264D01*
Y401083D01*
X127514D01*
Y399480D01*
X128293D01*
X128306Y399465D01*
X128082Y398965D01*
X127553D01*
Y397441D01*
X127303D01*
Y397191D01*
X125701D01*
Y396169D01*
X125681D01*
Y391823D01*
X129315D01*
X129634Y391823D01*
Y391823D01*
X129815D01*
Y391823D01*
X131541D01*
Y393996D01*
X131791D01*
Y394246D01*
X133768D01*
Y396169D01*
X132804D01*
X132755Y396669D01*
X132846Y396687D01*
X133110Y396864D01*
X134730Y398484D01*
X134730Y398484D01*
X134907Y398749D01*
X134969Y399061D01*
X134969Y399061D01*
Y403732D01*
X137000D01*
Y399894D01*
X137275D01*
Y395515D01*
X135252Y393492D01*
X133768D01*
Y393746D01*
X132041D01*
Y391823D01*
X132876D01*
X133083Y391323D01*
X132614Y390854D01*
X130134D01*
X129815Y390854D01*
X129315Y390854D01*
X127907D01*
Y388681D01*
Y386508D01*
X129315D01*
X129634Y386508D01*
X130134Y386508D01*
X133768D01*
Y387216D01*
X134986D01*
Y388819D01*
X135236D01*
Y389069D01*
X136760D01*
Y390287D01*
Y392693D01*
X138667Y394600D01*
X138667Y394600D01*
X138844Y394865D01*
X138906Y395177D01*
Y399894D01*
X147146D01*
X147337Y399432D01*
X146496Y398590D01*
X145858D01*
X145760Y398571D01*
X142514D01*
Y397047D01*
X142264D01*
Y396797D01*
X140661D01*
Y395524D01*
X141716D01*
X141831Y395245D01*
X141879Y395024D01*
X141679Y394724D01*
X141602Y394334D01*
Y392622D01*
X141318Y392339D01*
X137879D01*
Y387402D01*
X143406D01*
Y391575D01*
X143563Y391810D01*
X143641Y392200D01*
Y393912D01*
X145253Y395524D01*
X146937D01*
X147335Y395276D01*
Y394579D01*
X148614D01*
X148713Y394559D01*
X148881D01*
X149090Y394350D01*
Y392339D01*
X147131D01*
Y387402D01*
X152658D01*
Y392339D01*
X151129D01*
Y394579D01*
X153059D01*
Y396696D01*
X154079Y397715D01*
X154579Y397508D01*
Y394974D01*
X156102D01*
X157626D01*
Y396706D01*
X158319D01*
Y394974D01*
X159843D01*
X161366D01*
Y396356D01*
X161866Y396563D01*
X161940Y396490D01*
X162557Y396234D01*
X163226D01*
X163661Y396413D01*
X164161Y396153D01*
Y386636D01*
X164073D01*
X163802Y386582D01*
X163572Y386428D01*
X163564Y386417D01*
X163049D01*
X162710Y386349D01*
X162423Y386157D01*
X160124Y383857D01*
X159274D01*
Y383959D01*
X159220Y384230D01*
X159099Y384547D01*
X159220Y384865D01*
X159274Y385136D01*
Y385927D01*
X159220Y386198D01*
X159066Y386428D01*
X158836Y386582D01*
X158565Y386636D01*
X157380D01*
X157109Y386582D01*
X157063Y386551D01*
X156445D01*
Y388431D01*
X153398D01*
Y386551D01*
X140453D01*
X140063Y386473D01*
X139732Y386252D01*
X136782Y383303D01*
X117218D01*
X114855Y386188D01*
X114830Y386202D01*
X114819Y386228D01*
X114651Y386297D01*
X114490Y386384D01*
X114463Y386375D01*
X114436Y386386D01*
X105054Y386377D01*
X105028Y386366D01*
X105001Y386374D01*
X104840Y386288D01*
X104671Y386218D01*
X104376Y386283D01*
X104162Y386326D01*
Y388083D01*
X105004D01*
X105126Y388083D01*
X105504D01*
X105626Y388083D01*
X106935D01*
Y389961D01*
Y391839D01*
X105626D01*
X105504Y391839D01*
X105126D01*
X105004Y391839D01*
X101764D01*
Y388083D01*
X102531D01*
Y386326D01*
X102317Y386283D01*
X102070Y386119D01*
X101906Y385872D01*
X101848Y385581D01*
Y383908D01*
X101855Y383869D01*
X101410Y383727D01*
X101312Y383644D01*
X101303Y383640D01*
X100821Y383850D01*
X100803Y383868D01*
Y456789D01*
X112450D01*
Y456200D01*
X112455Y456187D01*
Y455067D01*
X110919D01*
Y453543D01*
Y452020D01*
X111559D01*
X112000Y451878D01*
Y449500D01*
X115559D01*
Y451878D01*
X115559D01*
X115342Y452020D01*
Y455067D01*
X115102D01*
Y456187D01*
X115107Y456200D01*
Y456789D01*
X173540D01*
X174000Y456289D01*
D02*
G37*
G36*
X172496Y429704D02*
Y412718D01*
X168862Y409083D01*
X168453Y409381D01*
Y412374D01*
Y413726D01*
X165405D01*
Y411748D01*
X164673D01*
Y413575D01*
Y417512D01*
Y421724D01*
X165748D01*
X165748Y421724D01*
X166060Y421786D01*
X166325Y421963D01*
X169776Y425414D01*
X169843Y425386D01*
X170512D01*
X171129Y425642D01*
X171602Y426115D01*
X171858Y426732D01*
Y427401D01*
X171602Y428019D01*
X171129Y428492D01*
X170614Y428706D01*
X170412Y429210D01*
X171701Y430499D01*
X172496Y429704D01*
D02*
G37*
G36*
X125062Y372871D02*
X130118D01*
Y370106D01*
X125091D01*
Y367925D01*
Y363646D01*
X124893Y363514D01*
X124097Y362718D01*
X123905Y362431D01*
X123837Y362092D01*
Y360192D01*
X123905Y359853D01*
X124097Y359566D01*
X124893Y358770D01*
X125091Y358638D01*
Y354146D01*
X130118D01*
Y353935D01*
X131638Y353935D01*
X131742Y353914D01*
X133219D01*
X133325Y353936D01*
X134552Y353936D01*
X135232Y353925D01*
X135285Y353914D01*
X135901D01*
X140650Y353839D01*
X142421Y352326D01*
Y349114D01*
X139811D01*
Y349240D01*
X137917D01*
X137762Y349396D01*
X137497Y349572D01*
X137185Y349635D01*
X137185Y349635D01*
X133831D01*
X133519Y349572D01*
X133285Y349416D01*
X130618Y351078D01*
Y351209D01*
X130409D01*
X129979Y351476D01*
X101575D01*
X101575Y383211D01*
X102070Y383370D01*
X102317Y383205D01*
X102608Y383147D01*
X104085D01*
X104376Y383205D01*
X104622Y383370D01*
X104787Y383616D01*
X104845Y383908D01*
Y385581D01*
X105054Y385836D01*
X114437Y385845D01*
X125062Y372871D01*
D02*
G37*
G36*
X174000Y410685D02*
Y374435D01*
X173630Y374122D01*
X173500Y374122D01*
X171642D01*
Y375642D01*
X172429D01*
Y378689D01*
X168006D01*
Y377165D01*
Y375642D01*
X170011D01*
Y374122D01*
X167709D01*
Y370760D01*
X173500D01*
X174000Y370447D01*
Y366954D01*
X173630Y366642D01*
X173500Y366642D01*
X167709D01*
Y363280D01*
X173500D01*
X174000Y362967D01*
Y327544D01*
X173925Y327075D01*
X173500Y327075D01*
X166982D01*
Y323622D01*
Y320169D01*
X173500D01*
X174000Y319700D01*
X174000Y301166D01*
X173925Y300697D01*
X173500Y300697D01*
X166982D01*
Y297244D01*
Y293791D01*
X173500D01*
X174000Y293322D01*
X174000Y217437D01*
X166618D01*
X166150Y217937D01*
Y225598D01*
X156488D01*
Y217937D01*
X156488Y217512D01*
X156019Y217437D01*
X100803Y217437D01*
Y350830D01*
X101303Y351048D01*
X101575Y350935D01*
X117713D01*
X117812Y350435D01*
X117552Y350327D01*
X117079Y349854D01*
X116823Y349236D01*
Y348568D01*
X117079Y347950D01*
X117552Y347477D01*
X117590Y347461D01*
Y344137D01*
X111328Y337875D01*
X111151Y337611D01*
X111089Y337298D01*
X111089Y337298D01*
Y331504D01*
X105799D01*
Y321449D01*
X112705D01*
Y326547D01*
X113576D01*
X113618Y326333D01*
X113783Y326086D01*
X114030Y325921D01*
X114321Y325863D01*
X115994D01*
X116285Y325921D01*
X116532Y326086D01*
X116697Y326333D01*
X116755Y326624D01*
Y328100D01*
X116697Y328392D01*
X116532Y328638D01*
X116285Y328803D01*
X115994Y328861D01*
X114321D01*
X114030Y328803D01*
X113783Y328638D01*
X113618Y328392D01*
X113576Y328178D01*
X112705D01*
Y329050D01*
X112720Y329129D01*
Y336961D01*
X118982Y343222D01*
X118982Y343222D01*
X119159Y343487D01*
X119221Y343799D01*
X119221Y343799D01*
Y347379D01*
X119456Y347477D01*
X119846Y347866D01*
X120239Y347774D01*
X120346Y347713D01*
Y332973D01*
X120346Y332972D01*
X120408Y332660D01*
X120585Y332396D01*
X122925Y330055D01*
Y321153D01*
X129289D01*
X129299Y321138D01*
X129378Y308441D01*
X129458Y308251D01*
X129536Y308062D01*
X133473Y304125D01*
X133856Y303967D01*
X133856Y303967D01*
X150982D01*
X151129Y304028D01*
X151484D01*
Y304414D01*
X151523Y304508D01*
Y307928D01*
X151484Y308021D01*
Y308965D01*
X151326D01*
Y311902D01*
X151484D01*
Y314120D01*
X144095D01*
Y314370D01*
X143844D01*
Y316839D01*
X142872D01*
Y332984D01*
X143648D01*
Y334587D01*
X143898D01*
Y334837D01*
X145421D01*
Y336055D01*
X145921Y336195D01*
X145968Y336125D01*
X146215Y335961D01*
X146506Y335903D01*
X147982D01*
X148273Y335961D01*
X148520Y336125D01*
X148685Y336372D01*
X148743Y336663D01*
Y338337D01*
X148685Y338628D01*
X148520Y338875D01*
X148273Y339039D01*
X147982Y339097D01*
X147563D01*
Y339953D01*
X147978D01*
Y341929D01*
X148228D01*
Y342179D01*
X149122D01*
Y343905D01*
X148728D01*
Y346010D01*
X145079D01*
X141429D01*
Y344031D01*
X139909D01*
Y344634D01*
X135486D01*
Y343110D01*
Y341587D01*
X136712D01*
X136811Y341087D01*
X136497Y340956D01*
X136024Y340483D01*
X135768Y339866D01*
Y339197D01*
X135808Y339101D01*
X135735Y338950D01*
X133675Y337291D01*
X133660Y337264D01*
X133632Y337252D01*
X133563Y337085D01*
X133477Y336927D01*
X133485Y336898D01*
X133474Y336869D01*
X133473Y335915D01*
X133425Y335835D01*
X132808Y335579D01*
X132335Y335106D01*
X132079Y334488D01*
Y333914D01*
X131534Y333370D01*
X131313Y333039D01*
X131236Y332649D01*
Y331988D01*
X131057Y331953D01*
X130810Y331788D01*
X130646Y331541D01*
X130588Y331250D01*
Y329774D01*
X130646Y329483D01*
X130810Y329236D01*
X131057Y329071D01*
X131348Y329013D01*
X132616D01*
X132808Y328701D01*
X132701Y328482D01*
X132686Y328467D01*
X131348D01*
X131057Y328410D01*
X130810Y328245D01*
X130646Y327998D01*
X130603Y327784D01*
X129831D01*
Y331209D01*
X124079D01*
X121977Y333310D01*
Y342910D01*
X122477Y343177D01*
X123053Y342793D01*
X124016Y342601D01*
X125341D01*
Y345118D01*
X125591D01*
Y345368D01*
X129632D01*
X129491Y346081D01*
X128945Y346898D01*
X128274Y347346D01*
X128425Y347847D01*
X130618D01*
Y349278D01*
X127854D01*
Y349778D01*
X130618D01*
Y349925D01*
X131055Y350168D01*
X132999Y348957D01*
X133097Y348940D01*
X133179Y348885D01*
X133293Y348908D01*
X133407Y348889D01*
X133488Y348947D01*
X133586Y348966D01*
X133730Y349063D01*
X133885Y349093D01*
X136764D01*
Y347888D01*
X138287D01*
X139811D01*
Y348573D01*
X141429D01*
Y346510D01*
X145079D01*
X148728D01*
Y348614D01*
X149122D01*
Y352567D01*
X149122Y352567D01*
X149122D01*
X149122Y352567D01*
X149247Y353015D01*
X149753Y353521D01*
X151033D01*
X151324Y353579D01*
X151571Y353744D01*
X151736Y353990D01*
X151794Y354281D01*
Y355758D01*
X151736Y356049D01*
X151571Y356296D01*
X151324Y356461D01*
X151033Y356519D01*
X149360D01*
X149069Y356461D01*
X148822Y356296D01*
X148692Y356101D01*
X148425Y356073D01*
X148158Y356101D01*
X148028Y356296D01*
X147781Y356461D01*
X147490Y356519D01*
X145817D01*
X145526Y356461D01*
X145279Y356296D01*
X145149Y356101D01*
X144882Y356073D01*
X144615Y356101D01*
X144485Y356296D01*
X144238Y356461D01*
X143947Y356519D01*
X142274D01*
X141982Y356461D01*
X141736Y356296D01*
X141571Y356049D01*
X141513Y355758D01*
Y354471D01*
X141060Y354228D01*
X141031Y354225D01*
X141001Y354250D01*
X140827Y354307D01*
X140658Y354380D01*
X137723Y354427D01*
X137522Y354675D01*
Y355262D01*
X136024D01*
X134525D01*
Y355104D01*
X134479Y355083D01*
X133986Y355397D01*
X133979Y355417D01*
Y356348D01*
X133921Y356640D01*
X133756Y356886D01*
X133510Y357051D01*
X133219Y357109D01*
X131742D01*
X131451Y357051D01*
X131204Y356886D01*
X131118Y356757D01*
X130618Y356890D01*
Y358288D01*
X131423D01*
X131762Y358355D01*
X132049Y358547D01*
X136656Y363154D01*
X137156Y362947D01*
Y362205D01*
X137170Y362171D01*
X137160Y362135D01*
X137247Y361983D01*
X137314Y361822D01*
X137348Y361808D01*
X137367Y361776D01*
X139924Y359807D01*
X140093Y359762D01*
X140254Y359695D01*
X141084D01*
X141513Y359301D01*
Y358813D01*
X143110D01*
Y358563D01*
X143360D01*
Y357064D01*
X143947D01*
X144238Y357122D01*
X144485Y357287D01*
X144615Y357482D01*
X144882Y357509D01*
X145149Y357482D01*
X145279Y357287D01*
X145526Y357122D01*
X145817Y357064D01*
X146404D01*
Y358563D01*
Y360062D01*
X145817D01*
X145526Y360004D01*
X145279Y359839D01*
X144806Y360032D01*
X144806Y360032D01*
X144788Y360129D01*
X144833Y360236D01*
Y366724D01*
X146797D01*
Y370571D01*
X147297D01*
Y366724D01*
X149516D01*
Y366823D01*
X150365D01*
Y366049D01*
X150229Y365992D01*
X149756Y365519D01*
X149500Y364901D01*
Y364232D01*
X149756Y363615D01*
X150229Y363142D01*
X150847Y362886D01*
X151515D01*
X152133Y363142D01*
X152606Y363615D01*
X152862Y364232D01*
Y364901D01*
X152606Y365519D01*
X152133Y365992D01*
X151997Y366049D01*
Y366823D01*
X153059D01*
Y369201D01*
X153059D01*
Y369382D01*
X153059D01*
Y370079D01*
X153521Y370270D01*
X154505Y369286D01*
Y368455D01*
X154563Y368164D01*
X154728Y367917D01*
X154975Y367752D01*
X155266Y367694D01*
X156939D01*
X157122Y367730D01*
X157866D01*
Y367142D01*
X157866Y367020D01*
Y366642D01*
X157866Y366520D01*
Y365211D01*
X163787D01*
Y366520D01*
X163787Y366642D01*
Y367020D01*
X163787Y367142D01*
Y370382D01*
X163787D01*
Y370760D01*
X163787D01*
Y374122D01*
X157866D01*
X157866Y374122D01*
Y374122D01*
X157366Y374086D01*
X157288Y374139D01*
X157265Y374179D01*
X157211Y374423D01*
X157190Y374695D01*
X157527Y375032D01*
X157783Y375650D01*
Y376319D01*
X157527Y376937D01*
X157055Y377409D01*
X156437Y377665D01*
X156148D01*
X155814Y378165D01*
X155913Y378406D01*
Y379075D01*
X155657Y379692D01*
X155184Y380165D01*
X154567Y380421D01*
X153898D01*
X153280Y380165D01*
X152807Y379692D01*
X152709Y379455D01*
X152538Y379421D01*
X152207Y379201D01*
X151302Y378295D01*
X148321D01*
Y376772D01*
X147821D01*
Y378295D01*
X146468D01*
Y378295D01*
X146346Y378295D01*
Y378295D01*
X144994D01*
Y376772D01*
X144494D01*
Y378295D01*
X142623D01*
X142618Y378297D01*
X139627D01*
X139436Y378759D01*
X142119Y381442D01*
X156671D01*
Y381199D01*
X156725Y380928D01*
X156879Y380698D01*
X157109Y380544D01*
X157380Y380490D01*
X158565D01*
X158836Y380544D01*
X159066Y380698D01*
X159140Y380809D01*
X160960D01*
X161299Y380877D01*
X161586Y381068D01*
X162989Y382472D01*
X163182Y382377D01*
X163401Y382177D01*
X163364Y381990D01*
Y381844D01*
X164415D01*
Y382699D01*
X164073D01*
X163886Y382662D01*
X163686Y382881D01*
X163591Y383074D01*
X163928Y383410D01*
X165768D01*
X166107Y383478D01*
X166394Y383670D01*
X166945Y384221D01*
X167137Y384508D01*
X167204Y384846D01*
Y384970D01*
X167167Y385157D01*
Y404753D01*
X167099Y405092D01*
X167005Y405233D01*
X167000Y405312D01*
X167101Y405677D01*
X167185Y405808D01*
X167597Y405979D01*
X168070Y406452D01*
X168150Y406645D01*
X168885D01*
X169275Y406722D01*
X169606Y406944D01*
X173538Y410876D01*
X174000Y410685D01*
D02*
G37*
G36*
X137189Y380764D02*
X134654Y378228D01*
X134462Y377941D01*
X134395Y377603D01*
Y371889D01*
X134149Y371756D01*
X133895Y371689D01*
X133706Y371815D01*
X133415Y371873D01*
X132829D01*
Y370374D01*
X132329D01*
Y371873D01*
X131742D01*
X131451Y371815D01*
X131204Y371650D01*
X131159Y371583D01*
X130659Y371734D01*
Y372871D01*
X130618Y372971D01*
Y374474D01*
X127854D01*
Y374974D01*
X130618D01*
Y376406D01*
X128425D01*
X128274Y376905D01*
X128945Y377354D01*
X129491Y378171D01*
X129632Y378884D01*
X125591D01*
Y379384D01*
X129632D01*
X129491Y380097D01*
X129045Y380764D01*
X129252Y381264D01*
X136982D01*
X137189Y380764D01*
D02*
G37*
G36*
X142618Y375886D02*
X143142Y375362D01*
Y375248D01*
X143256D01*
X144291Y374213D01*
Y371760D01*
X141035D01*
Y369382D01*
X141035D01*
Y369201D01*
X141035D01*
Y366823D01*
X144291D01*
Y360236D01*
X140254D01*
X137697Y362205D01*
Y377020D01*
X138433Y377756D01*
X142618D01*
Y375886D01*
D02*
G37*
G36*
X143898Y339944D02*
X144882Y338694D01*
X144882Y336594D01*
X142331D01*
Y316839D01*
X136705D01*
Y311902D01*
X150785D01*
Y308346D01*
X150785Y308346D01*
X150982Y307928D01*
Y304508D01*
X133856D01*
X129919Y308445D01*
X129840Y321142D01*
X134011Y324639D01*
X134013Y332472D01*
X134094D01*
X134712Y332728D01*
X135185Y333201D01*
X135441Y333819D01*
Y334488D01*
X135185Y335106D01*
X134712Y335579D01*
X134094Y335835D01*
X134014Y335915D01*
X134015Y336869D01*
X136075Y338528D01*
X136497Y338106D01*
X137115Y337850D01*
X137784D01*
X138401Y338106D01*
X138874Y338579D01*
X139130Y339197D01*
Y339464D01*
X139590Y339964D01*
X141035Y339962D01*
Y339953D01*
X142613D01*
X142823Y339953D01*
X142823Y339953D01*
X143110Y339961D01*
X143110Y340334D01*
Y343406D01*
X143898D01*
Y339944D01*
D02*
G37*
%LPC*%
G36*
X110419Y455067D02*
X109067D01*
Y453793D01*
X110419D01*
Y455067D01*
D02*
G37*
G36*
Y453293D02*
X109067D01*
Y452020D01*
X110419D01*
Y453293D01*
D02*
G37*
G36*
X173039Y451484D02*
X171411D01*
Y450053D01*
X173039D01*
Y451484D01*
D02*
G37*
G36*
X170911D02*
X169283D01*
Y450053D01*
X170911D01*
Y451484D01*
D02*
G37*
G36*
X110459Y446209D02*
X109106D01*
Y444935D01*
X110459D01*
Y446209D01*
D02*
G37*
G36*
Y444435D02*
X109106D01*
Y443161D01*
X110459D01*
Y444435D01*
D02*
G37*
G36*
X173039Y449553D02*
X171161D01*
X169283D01*
Y448244D01*
X169283Y448122D01*
Y447744D01*
X169283Y447622D01*
Y444382D01*
X170346D01*
Y443822D01*
X170325D01*
X170034Y443764D01*
X169787Y443599D01*
X169622Y443352D01*
X169564Y443061D01*
Y441585D01*
X169622Y441293D01*
X169787Y441047D01*
X170034Y440882D01*
X170325Y440824D01*
X171998D01*
X172289Y440882D01*
X172536Y441047D01*
X172701Y441293D01*
X172759Y441585D01*
Y443061D01*
X172701Y443352D01*
X172536Y443599D01*
X172289Y443764D01*
X171998Y443822D01*
X171977D01*
Y444382D01*
X173039D01*
Y447622D01*
X173039Y447744D01*
Y448122D01*
X173039Y448244D01*
Y449553D01*
D02*
G37*
G36*
X162823Y441187D02*
X161470D01*
Y439913D01*
X162823D01*
Y441187D01*
D02*
G37*
G36*
X115559Y448531D02*
X112000D01*
Y446209D01*
X110959D01*
Y444685D01*
X110709D01*
D01*
X110959D01*
Y443161D01*
X111435D01*
X111795Y442825D01*
Y440742D01*
X111797D01*
Y439620D01*
X112779D01*
Y439120D01*
X111797D01*
Y438002D01*
X111795D01*
Y435919D01*
X111795D01*
X111648Y435480D01*
X110919D01*
Y433957D01*
Y432433D01*
X111419D01*
X111902Y432390D01*
Y430012D01*
X113583D01*
X113711Y429986D01*
X113839Y430012D01*
X115461D01*
Y432390D01*
X115342Y432433D01*
Y435480D01*
X115342D01*
X115490Y435919D01*
X115551D01*
Y438002D01*
X115549D01*
Y439120D01*
X114567D01*
Y439620D01*
X115549D01*
Y440742D01*
X115551D01*
Y442825D01*
X115551D01*
X115382Y443161D01*
Y446153D01*
X115559D01*
Y448531D01*
D02*
G37*
G36*
X110419Y435480D02*
X109067D01*
Y434207D01*
X110419D01*
Y435480D01*
D02*
G37*
G36*
Y433707D02*
X109067D01*
Y432433D01*
X110419D01*
Y433707D01*
D02*
G37*
G36*
X110380Y426425D02*
X109028D01*
Y425152D01*
X110380D01*
Y426425D01*
D02*
G37*
G36*
Y424652D02*
X109028D01*
Y423378D01*
X110380D01*
Y424652D01*
D02*
G37*
G36*
X127014Y400833D02*
X125740D01*
Y399480D01*
X127014D01*
Y400833D01*
D02*
G37*
G36*
X127053Y398965D02*
X125701D01*
Y397691D01*
X127053D01*
Y398965D01*
D02*
G37*
G36*
X142014Y398571D02*
X140661D01*
Y397297D01*
X142014D01*
Y398571D01*
D02*
G37*
G36*
X161366Y394474D02*
X160092D01*
Y393122D01*
X161366D01*
Y394474D01*
D02*
G37*
G36*
X159592D02*
X158319D01*
Y393122D01*
X159592D01*
Y394474D01*
D02*
G37*
G36*
X157626D02*
X156352D01*
Y393122D01*
X157626D01*
Y394474D01*
D02*
G37*
G36*
X155852D02*
X154579D01*
Y393122D01*
X155852D01*
Y394474D01*
D02*
G37*
G36*
X107435Y391839D02*
Y390211D01*
X108866D01*
Y391839D01*
X107435D01*
D02*
G37*
G36*
X127407Y390854D02*
X125681D01*
Y388931D01*
X127407D01*
Y390854D01*
D02*
G37*
G36*
X156445Y390283D02*
X155171D01*
Y388931D01*
X156445D01*
Y390283D01*
D02*
G37*
G36*
X154671D02*
X153398D01*
Y388931D01*
X154671D01*
Y390283D01*
D02*
G37*
G36*
X108866Y389711D02*
X107435D01*
Y388083D01*
X108866D01*
Y389711D01*
D02*
G37*
G36*
X136760Y388569D02*
X135486D01*
Y387216D01*
X136760D01*
Y388569D01*
D02*
G37*
G36*
X127407Y388431D02*
X125681D01*
Y386508D01*
X127407D01*
Y388431D01*
D02*
G37*
G36*
X168453Y415579D02*
X167179D01*
Y414226D01*
X168453D01*
Y415579D01*
D02*
G37*
G36*
X166679D02*
X165405D01*
Y414226D01*
X166679D01*
Y415579D01*
D02*
G37*
G36*
X112205Y381651D02*
X107480D01*
X106517Y381459D01*
X105701Y380913D01*
X105155Y380097D01*
X104963Y379134D01*
X105155Y378171D01*
X105701Y377354D01*
X106517Y376809D01*
X107480Y376617D01*
X112205D01*
X113168Y376809D01*
X113984Y377354D01*
X114530Y378171D01*
X114722Y379134D01*
X114530Y380097D01*
X113984Y380913D01*
X113168Y381459D01*
X112205Y381651D01*
D02*
G37*
G36*
X165258Y382699D02*
X164915D01*
Y381844D01*
X165966D01*
Y381990D01*
X165912Y382261D01*
X165759Y382491D01*
X165529Y382645D01*
X165258Y382699D01*
D02*
G37*
G36*
X165966Y381345D02*
X164915D01*
Y380490D01*
X165258D01*
X165529Y380544D01*
X165759Y380698D01*
X165912Y380928D01*
X165966Y381199D01*
Y381345D01*
D02*
G37*
G36*
X164415D02*
X163364D01*
Y381199D01*
X163418Y380928D01*
X163572Y380698D01*
X163802Y380544D01*
X164073Y380490D01*
X164415D01*
Y381345D01*
D02*
G37*
G36*
X167506Y378689D02*
X166154D01*
Y377415D01*
X167506D01*
Y378689D01*
D02*
G37*
G36*
Y376915D02*
X166154D01*
Y375642D01*
X167506D01*
Y376915D01*
D02*
G37*
G36*
X163787Y364711D02*
X161077D01*
Y363280D01*
X163787D01*
Y364711D01*
D02*
G37*
G36*
X160577D02*
X157866D01*
Y363280D01*
X160577D01*
Y364711D01*
D02*
G37*
G36*
X149947Y360062D02*
X149360D01*
X149069Y360004D01*
X148822Y359839D01*
X148692Y359645D01*
X148425Y359616D01*
X148158Y359645D01*
X148028Y359839D01*
X147781Y360004D01*
X147490Y360062D01*
X146904D01*
Y358563D01*
Y357064D01*
X147490D01*
X147781Y357122D01*
X148028Y357287D01*
X148158Y357481D01*
X148425Y357509D01*
X148692Y357481D01*
X148822Y357287D01*
X149069Y357122D01*
X149360Y357064D01*
X149947D01*
Y358563D01*
Y360062D01*
D02*
G37*
G36*
X151033D02*
X150447D01*
Y358813D01*
X151794D01*
Y359301D01*
X151736Y359592D01*
X151571Y359839D01*
X151324Y360004D01*
X151033Y360062D01*
D02*
G37*
G36*
X151794Y358313D02*
X150447D01*
Y357064D01*
X151033D01*
X151324Y357122D01*
X151571Y357287D01*
X151736Y357534D01*
X151794Y357825D01*
Y358313D01*
D02*
G37*
G36*
X142860D02*
X141513D01*
Y357825D01*
X141571Y357534D01*
X141736Y357287D01*
X141982Y357122D01*
X142274Y357064D01*
X142860D01*
Y358313D01*
D02*
G37*
G36*
X136762Y357109D02*
X136274D01*
Y355762D01*
X137522D01*
Y356348D01*
X137465Y356640D01*
X137300Y356886D01*
X137053Y357051D01*
X136762Y357109D01*
D02*
G37*
G36*
X135774D02*
X135285D01*
X134994Y357051D01*
X134748Y356886D01*
X134583Y356640D01*
X134525Y356348D01*
Y355762D01*
X135774D01*
Y357109D01*
D02*
G37*
G36*
X139811Y347388D02*
X138537D01*
Y346035D01*
X139811D01*
Y347388D01*
D02*
G37*
G36*
X138037D02*
X136764D01*
Y346035D01*
X138037D01*
Y347388D01*
D02*
G37*
G36*
X112205Y347635D02*
X110092D01*
Y345368D01*
X114672D01*
X114530Y346081D01*
X113984Y346898D01*
X113168Y347443D01*
X112205Y347635D01*
D02*
G37*
G36*
X109592D02*
X107480D01*
X106517Y347443D01*
X105701Y346898D01*
X105155Y346081D01*
X105013Y345368D01*
X109592D01*
Y347635D01*
D02*
G37*
G36*
X134986Y344634D02*
X133634D01*
Y343360D01*
X134986D01*
Y344634D01*
D02*
G37*
G36*
X129632Y344868D02*
X125841D01*
Y342601D01*
X127165D01*
X128129Y342793D01*
X128945Y343338D01*
X129491Y344155D01*
X129632Y344868D01*
D02*
G37*
G36*
X114672D02*
X110092D01*
Y342601D01*
X112205D01*
X113168Y342793D01*
X113984Y343338D01*
X114530Y344155D01*
X114672Y344868D01*
D02*
G37*
G36*
X109592D02*
X105013D01*
X105155Y344155D01*
X105701Y343338D01*
X106517Y342793D01*
X107480Y342601D01*
X109592D01*
Y344868D01*
D02*
G37*
G36*
X134986Y342860D02*
X133634D01*
Y341587D01*
X134986D01*
Y342860D01*
D02*
G37*
G36*
X149122Y341679D02*
X148478D01*
Y339953D01*
X149122D01*
Y341679D01*
D02*
G37*
G36*
X151526Y339097D02*
X151037D01*
Y337750D01*
X152286D01*
Y338337D01*
X152228Y338628D01*
X152064Y338875D01*
X151817Y339039D01*
X151526Y339097D01*
D02*
G37*
G36*
X150537D02*
X150049D01*
X149758Y339039D01*
X149511Y338875D01*
X149346Y338628D01*
X149288Y338337D01*
Y337750D01*
X150537D01*
Y339097D01*
D02*
G37*
G36*
X152286Y337250D02*
X151037D01*
Y335903D01*
X151526D01*
X151817Y335961D01*
X152064Y336125D01*
X152228Y336372D01*
X152286Y336663D01*
Y337250D01*
D02*
G37*
G36*
X150537D02*
X149288D01*
Y336663D01*
X149346Y336372D01*
X149511Y336125D01*
X149758Y335961D01*
X150049Y335903D01*
X150537D01*
Y337250D01*
D02*
G37*
G36*
X145421Y334337D02*
X144148D01*
Y332984D01*
X145421D01*
Y334337D01*
D02*
G37*
G36*
X115994Y332404D02*
X115408D01*
Y331155D01*
X116755D01*
Y331644D01*
X116697Y331935D01*
X116532Y332182D01*
X116285Y332347D01*
X115994Y332404D01*
D02*
G37*
G36*
X114908D02*
X114321D01*
X114030Y332347D01*
X113783Y332182D01*
X113618Y331935D01*
X113560Y331644D01*
Y331155D01*
X114908D01*
Y332404D01*
D02*
G37*
G36*
X116755Y330656D02*
X115408D01*
Y329407D01*
X115994D01*
X116285Y329465D01*
X116532Y329629D01*
X116697Y329876D01*
X116755Y330167D01*
Y330656D01*
D02*
G37*
G36*
X114908D02*
X113560D01*
Y330167D01*
X113618Y329876D01*
X113783Y329629D01*
X114030Y329465D01*
X114321Y329407D01*
X114908D01*
Y330656D01*
D02*
G37*
G36*
X166482Y327075D02*
X159539D01*
Y323872D01*
X166482D01*
Y327075D01*
D02*
G37*
G36*
Y323372D02*
X159539D01*
Y320169D01*
X166482D01*
Y323372D01*
D02*
G37*
G36*
X151484Y316839D02*
X144344D01*
Y314620D01*
X151484D01*
Y316839D01*
D02*
G37*
G36*
X129831Y304831D02*
X126628D01*
Y300053D01*
X129831D01*
Y304831D01*
D02*
G37*
G36*
X126128D02*
X122925D01*
Y300053D01*
X126128D01*
Y304831D01*
D02*
G37*
G36*
X112705Y305126D02*
X105799D01*
Y295071D01*
X112705D01*
Y298220D01*
X113477D01*
X113910Y297787D01*
X114528Y297532D01*
X115197D01*
X115814Y297787D01*
X116287Y298260D01*
X116543Y298878D01*
Y299547D01*
X116287Y300165D01*
X115814Y300638D01*
X115197Y300894D01*
X114528D01*
X113910Y300638D01*
X113532Y300259D01*
X112705D01*
Y305126D01*
D02*
G37*
G36*
X166482Y300697D02*
X159539D01*
Y297494D01*
X166482D01*
Y300697D01*
D02*
G37*
G36*
X129831Y299553D02*
X126628D01*
Y294776D01*
X129831D01*
Y299553D01*
D02*
G37*
G36*
X126128D02*
X122925D01*
Y294776D01*
X126128D01*
Y299553D01*
D02*
G37*
G36*
X166482Y296994D02*
X159539D01*
Y293791D01*
X166482D01*
Y296994D01*
D02*
G37*
G36*
X141485Y290559D02*
X140503D01*
X139596Y290183D01*
X138901Y289489D01*
X138526Y288582D01*
Y287599D01*
X138901Y286692D01*
X139596Y285998D01*
X139667Y285968D01*
X139567Y285468D01*
X137500D01*
X137110Y285391D01*
X136779Y285170D01*
X133087Y281478D01*
X132866Y281147D01*
X132788Y280757D01*
Y280303D01*
X131744D01*
Y279681D01*
X129180D01*
Y280305D01*
X125865D01*
Y280719D01*
X125787Y281109D01*
X125566Y281440D01*
X124642Y282365D01*
Y283241D01*
X125119Y283439D01*
X125813Y284133D01*
X126189Y285040D01*
Y286022D01*
X125813Y286930D01*
X125119Y287624D01*
X124212Y288000D01*
X123229D01*
X122322Y287624D01*
X121628Y286930D01*
X121252Y286022D01*
Y285040D01*
X121628Y284133D01*
X122322Y283439D01*
X122602Y283323D01*
Y281942D01*
X122680Y281552D01*
X122901Y281221D01*
X123508Y280615D01*
X123380Y280305D01*
X123380D01*
Y275705D01*
X129180D01*
Y277642D01*
X131744D01*
Y275880D01*
X133268D01*
X134791D01*
Y278705D01*
X134827Y278887D01*
Y280334D01*
X137922Y283429D01*
X140357D01*
X140691Y282929D01*
X140602Y282716D01*
Y282048D01*
X140858Y281430D01*
X141116Y281172D01*
Y280658D01*
X139167D01*
Y279134D01*
Y277610D01*
X142368D01*
X142993Y276986D01*
X142802Y276524D01*
X139266D01*
Y275000D01*
X139016D01*
Y274750D01*
X137413D01*
Y273791D01*
X135193D01*
X134791Y274028D01*
Y275380D01*
X133268D01*
X131744D01*
Y274028D01*
X131342Y273791D01*
X123855D01*
X120220Y277426D01*
X120124Y277490D01*
Y280305D01*
X117682D01*
X117644Y280492D01*
X117423Y280823D01*
X111797Y286449D01*
X111466Y286670D01*
X111076Y286748D01*
X108647D01*
X108490Y287127D01*
X107796Y287821D01*
X106889Y288197D01*
X105907D01*
X104999Y287821D01*
X104305Y287127D01*
X103929Y286219D01*
Y285237D01*
X104305Y284330D01*
X104999Y283636D01*
X105907Y283260D01*
X106889D01*
X107796Y283636D01*
X108490Y284330D01*
X108647Y284709D01*
X110654D01*
X114595Y280767D01*
X114404Y280305D01*
X114324D01*
Y275705D01*
X119026D01*
X119065Y275697D01*
X122712Y272050D01*
X123043Y271829D01*
X123433Y271752D01*
X137315D01*
Y270821D01*
X138917D01*
Y270321D01*
X137315D01*
Y269047D01*
X137345D01*
X137354Y268551D01*
X137354D01*
Y267278D01*
X138957D01*
Y267028D01*
X139207D01*
Y265504D01*
X143630D01*
Y265989D01*
X145465D01*
Y265398D01*
X145283D01*
X144893Y265320D01*
X144562Y265099D01*
X144130Y264666D01*
X143630Y264873D01*
Y264910D01*
X139207D01*
Y263386D01*
Y261862D01*
X142584D01*
X142842Y261362D01*
X142719Y261189D01*
X142177D01*
X142078Y261169D01*
X139108D01*
Y259646D01*
Y258122D01*
X143532D01*
Y259169D01*
X143827Y259227D01*
X144158Y259448D01*
X145003Y260293D01*
X145465Y260102D01*
Y257541D01*
X142407D01*
X142340Y257528D01*
X139069D01*
Y256004D01*
Y254480D01*
X140681D01*
Y252959D01*
X140759Y252569D01*
X140980Y252238D01*
X141312Y251906D01*
X141232Y251712D01*
Y251139D01*
X138481Y248387D01*
X138260Y248056D01*
X138182Y247666D01*
Y247365D01*
X138041D01*
X137750Y247307D01*
X137504Y247142D01*
X137339Y246895D01*
X137281Y246604D01*
Y245128D01*
X137339Y244837D01*
X137504Y244590D01*
X137750Y244425D01*
X138041Y244367D01*
X139715D01*
X140006Y244425D01*
X140252Y244590D01*
X140417Y244837D01*
X140475Y245128D01*
Y246604D01*
X140417Y246895D01*
X140252Y247142D01*
X140532Y247555D01*
X142674Y249697D01*
X143248D01*
X143866Y249953D01*
X144339Y250426D01*
X144595Y251044D01*
Y251712D01*
X144339Y252330D01*
X143866Y252803D01*
X143248Y253059D01*
X143043D01*
X142720Y253381D01*
Y254480D01*
X143492D01*
Y255502D01*
X145465D01*
Y251567D01*
Y247630D01*
Y244060D01*
X145276Y243631D01*
X144963Y243568D01*
X144963Y243568D01*
X144667Y243413D01*
X144283Y243668D01*
X144140Y243764D01*
X143848Y243822D01*
X142175D01*
X141884Y243764D01*
X141637Y243599D01*
X141472Y243352D01*
X141414Y243061D01*
Y243040D01*
X140475D01*
Y243061D01*
X140417Y243352D01*
X140252Y243599D01*
X140006Y243764D01*
X139715Y243822D01*
X138041D01*
X137750Y243764D01*
X137504Y243599D01*
X137339Y243352D01*
X137281Y243061D01*
Y241585D01*
X137339Y241294D01*
X137504Y241047D01*
X137750Y240882D01*
X138041Y240824D01*
X139715D01*
X140006Y240882D01*
X140252Y241047D01*
X140417Y241294D01*
X140440Y241409D01*
X141449D01*
X141472Y241294D01*
X141637Y241047D01*
X141884Y240882D01*
X142175Y240824D01*
X143848D01*
X144140Y240882D01*
X144386Y241047D01*
X144551Y241294D01*
X144783Y241507D01*
X144965Y241543D01*
X145349Y241326D01*
X145465Y241214D01*
Y238717D01*
X145003Y238526D01*
X144323Y239205D01*
X143992Y239426D01*
X143602Y239504D01*
X143098D01*
Y240008D01*
X138675D01*
Y238484D01*
Y236961D01*
X143098D01*
Y236961D01*
X143598Y237046D01*
X144184Y236460D01*
X143977Y235961D01*
X143000D01*
Y236268D01*
X138577D01*
Y234744D01*
Y233221D01*
X140868D01*
X140973Y232743D01*
X140973Y232720D01*
X140504Y232252D01*
X140248Y231634D01*
Y230965D01*
X140421Y230548D01*
X140150Y230048D01*
X138330D01*
X134186Y234191D01*
Y240284D01*
X134336Y240314D01*
X134583Y240479D01*
X134748Y240726D01*
X134806Y241017D01*
Y242690D01*
X134748Y242981D01*
X134583Y243228D01*
X134336Y243393D01*
X134123Y243436D01*
Y244832D01*
X135098D01*
Y248033D01*
X131547D01*
Y244832D01*
X132491D01*
Y243436D01*
X132278Y243393D01*
X132031Y243228D01*
X131866Y242981D01*
X131808Y242690D01*
Y241017D01*
X131866Y240726D01*
X132031Y240479D01*
X132278Y240314D01*
X132555Y240259D01*
Y233854D01*
X132555Y233854D01*
X132617Y233541D01*
X132794Y233277D01*
X136839Y229232D01*
X133357Y225751D01*
X132774Y225992D01*
X131792D01*
X130885Y225616D01*
X130191Y224922D01*
X129815Y224015D01*
Y223033D01*
X130191Y222125D01*
X130885Y221431D01*
X131792Y221055D01*
X132774D01*
X133682Y221431D01*
X134376Y222125D01*
X134752Y223033D01*
Y224015D01*
X134511Y224597D01*
X138330Y228417D01*
X143602D01*
X143602Y228417D01*
X143914Y228479D01*
X144179Y228656D01*
X144965Y229441D01*
X145465Y229234D01*
Y227945D01*
X151583D01*
X151842Y227552D01*
Y227110D01*
X148776Y224044D01*
X145247D01*
X145006Y224627D01*
X144312Y225321D01*
X143404Y225697D01*
X142422D01*
X141515Y225321D01*
X140821Y224627D01*
X140445Y223719D01*
Y222737D01*
X140633Y222283D01*
X140683Y222030D01*
X140860Y221766D01*
X140935Y221716D01*
X141515Y221136D01*
X142422Y220760D01*
X143404D01*
X144312Y221136D01*
X145006Y221830D01*
X145247Y222413D01*
X149114D01*
X149114Y222413D01*
X149426Y222475D01*
X149691Y222652D01*
X153234Y226195D01*
X153234Y226195D01*
X153411Y226460D01*
X153473Y226772D01*
X153473Y226772D01*
Y231693D01*
X153473Y231693D01*
X153411Y232005D01*
X153234Y232270D01*
X152139Y233365D01*
X151874Y233542D01*
X151583Y233600D01*
Y237787D01*
Y242478D01*
X152083Y242686D01*
X152099Y242669D01*
X152717Y242413D01*
X153386D01*
X154003Y242669D01*
X154476Y243142D01*
X154732Y243760D01*
Y244429D01*
X154476Y245047D01*
X154087Y245436D01*
X154180Y245830D01*
X154240Y245936D01*
X155547D01*
X155948Y245535D01*
X155898Y245413D01*
Y244744D01*
X156154Y244127D01*
X156626Y243654D01*
X157244Y243398D01*
X157913D01*
X158531Y243654D01*
X159004Y244127D01*
X159260Y244744D01*
Y245413D01*
X159004Y246031D01*
X158531Y246504D01*
X158278Y246609D01*
Y247150D01*
X158629Y247295D01*
X159102Y247768D01*
X159358Y248386D01*
Y249055D01*
X159102Y249673D01*
X158629Y250146D01*
X158012Y250402D01*
X158069Y250878D01*
X158208D01*
X158826Y251134D01*
X159299Y251607D01*
X159555Y252225D01*
Y252893D01*
X159299Y253511D01*
X158826Y253984D01*
X158208Y254240D01*
X157540D01*
X157458Y254206D01*
X157336Y254255D01*
X156996Y254556D01*
Y255059D01*
X156740Y255677D01*
X156267Y256150D01*
X155649Y256405D01*
X154981D01*
X154861Y256356D01*
X154445Y256634D01*
Y256786D01*
X154189Y257403D01*
X153716Y257876D01*
X153098Y258132D01*
X152429D01*
X152083Y257989D01*
X151583Y258301D01*
Y260281D01*
X148524D01*
Y260782D01*
X151583D01*
Y263378D01*
Y267386D01*
X152367D01*
X152757Y267463D01*
X153088Y267685D01*
X153674Y268270D01*
X153895Y268601D01*
X153972Y268991D01*
Y278543D01*
X153895Y278934D01*
X153674Y279264D01*
X147768Y285170D01*
X147437Y285391D01*
X147047Y285468D01*
X142421D01*
X142321Y285968D01*
X142392Y285998D01*
X143087Y286692D01*
X143203Y286972D01*
X144281D01*
X144293Y286941D01*
X144766Y286469D01*
X145384Y286213D01*
X146053D01*
X146671Y286469D01*
X147144Y286941D01*
X147400Y287559D01*
Y288228D01*
X147144Y288846D01*
X146671Y289319D01*
X146053Y289575D01*
X145384D01*
X144766Y289319D01*
X144459Y289012D01*
X143284D01*
X143087Y289489D01*
X142392Y290183D01*
X141485Y290559D01*
D02*
G37*
G36*
X138667Y280658D02*
X137315D01*
Y279384D01*
X138667D01*
Y280658D01*
D02*
G37*
G36*
X110354Y280288D02*
X107704D01*
Y278238D01*
X110354D01*
Y280288D01*
D02*
G37*
G36*
X107204D02*
X104554D01*
Y278238D01*
X107204D01*
Y280288D01*
D02*
G37*
G36*
X166150Y285835D02*
X156488D01*
Y277748D01*
X166150D01*
Y285835D01*
D02*
G37*
G36*
X138667Y278884D02*
X137315D01*
Y277610D01*
X138667D01*
Y278884D01*
D02*
G37*
G36*
X110354Y277738D02*
X107704D01*
Y275688D01*
X110354D01*
Y277738D01*
D02*
G37*
G36*
X107204D02*
X104554D01*
Y275688D01*
X107204D01*
Y277738D01*
D02*
G37*
G36*
X138766Y276524D02*
X137413D01*
Y275250D01*
X138766D01*
Y276524D01*
D02*
G37*
G36*
X138707Y266778D02*
X137354D01*
Y265504D01*
X138707D01*
Y266778D01*
D02*
G37*
G36*
X138707Y264910D02*
X137354D01*
Y263636D01*
X138707D01*
Y264910D01*
D02*
G37*
G36*
X129823Y267470D02*
X123917D01*
X123760Y267405D01*
X123380D01*
Y266937D01*
X123376Y266929D01*
Y263771D01*
X122914Y263580D01*
X120128Y266366D01*
Y266894D01*
X120124Y266902D01*
Y267405D01*
X119659D01*
X119587Y267435D01*
X105061D01*
X104947Y267388D01*
X104554D01*
Y266976D01*
X104520Y266894D01*
Y263287D01*
X104554Y263205D01*
Y262788D01*
X104961D01*
X105061Y262746D01*
X117708Y262746D01*
X120535Y259919D01*
X120344Y259457D01*
X104126D01*
Y251173D01*
X121268D01*
X121268Y251173D01*
Y251173D01*
X121743Y251114D01*
X124496Y248361D01*
Y247283D01*
X128047D01*
Y247293D01*
X129823D01*
X130206Y247452D01*
X130364Y247835D01*
Y254456D01*
X130803D01*
Y256053D01*
Y257650D01*
X130364D01*
Y263386D01*
Y266929D01*
X130206Y267312D01*
X129823Y267470D01*
D02*
G37*
G36*
X138707Y263136D02*
X137354D01*
Y261862D01*
X138707D01*
Y263136D01*
D02*
G37*
G36*
X138608Y261169D02*
X137256D01*
Y259896D01*
X138608D01*
Y261169D01*
D02*
G37*
G36*
Y259396D02*
X137256D01*
Y258122D01*
X138608D01*
Y259396D01*
D02*
G37*
G36*
X131791Y257650D02*
X131303D01*
Y256303D01*
X132552D01*
Y256890D01*
X132494Y257181D01*
X132329Y257428D01*
X132082Y257593D01*
X131791Y257650D01*
D02*
G37*
G36*
X138569Y257528D02*
X137216D01*
Y256254D01*
X138569D01*
Y257528D01*
D02*
G37*
G36*
Y255754D02*
X137216D01*
Y254480D01*
X138569D01*
Y255754D01*
D02*
G37*
G36*
X132552Y255803D02*
X131303D01*
Y254456D01*
X131791D01*
X132082Y254514D01*
X132329Y254679D01*
X132494Y254925D01*
X132552Y255217D01*
Y255803D01*
D02*
G37*
G36*
X135335Y257650D02*
X133858D01*
X133567Y257593D01*
X133320Y257428D01*
X133156Y257181D01*
X133098Y256890D01*
Y255217D01*
X133156Y254925D01*
X133320Y254679D01*
X133567Y254514D01*
X133858Y254456D01*
X134224D01*
Y252935D01*
X131547D01*
Y249734D01*
X135098D01*
Y250464D01*
X136609D01*
X136665Y250327D01*
X137138Y249854D01*
X137756Y249598D01*
X138425D01*
X139043Y249854D01*
X139516Y250327D01*
X139772Y250945D01*
Y251614D01*
X139516Y252232D01*
X139043Y252705D01*
X138425Y252961D01*
X137756D01*
X137138Y252705D01*
X136665Y252232D01*
X136609Y252095D01*
X135930D01*
X135855Y252187D01*
X135855Y252187D01*
Y254667D01*
X135873Y254679D01*
X136037Y254925D01*
X136095Y255217D01*
Y256890D01*
X136037Y257181D01*
X135873Y257428D01*
X135626Y257593D01*
X135335Y257650D01*
D02*
G37*
G36*
X143848Y247365D02*
X143262D01*
Y246116D01*
X144609D01*
Y246604D01*
X144551Y246895D01*
X144386Y247142D01*
X144140Y247307D01*
X143848Y247365D01*
D02*
G37*
G36*
X142762D02*
X142175D01*
X141884Y247307D01*
X141637Y247142D01*
X141472Y246895D01*
X141414Y246604D01*
Y246116D01*
X142762D01*
Y247365D01*
D02*
G37*
G36*
X144609Y245616D02*
X143262D01*
Y244367D01*
X143848D01*
X144140Y244425D01*
X144386Y244590D01*
X144551Y244837D01*
X144609Y245128D01*
Y245616D01*
D02*
G37*
G36*
X142762D02*
X141414D01*
Y245128D01*
X141472Y244837D01*
X141637Y244590D01*
X141884Y244425D01*
X142175Y244367D01*
X142762D01*
Y245616D01*
D02*
G37*
G36*
X126736Y245392D02*
X125463D01*
Y244040D01*
X126736D01*
Y245392D01*
D02*
G37*
G36*
X124963D02*
X123689D01*
Y244040D01*
X124963D01*
Y245392D01*
D02*
G37*
G36*
X130502Y243451D02*
X130014D01*
Y242104D01*
X131263D01*
Y242690D01*
X131205Y242981D01*
X131040Y243228D01*
X130793Y243393D01*
X130502Y243451D01*
D02*
G37*
G36*
X129514D02*
X129026D01*
X128735Y243393D01*
X128488Y243228D01*
X128323Y242981D01*
X128265Y242690D01*
Y242104D01*
X129514D01*
Y243451D01*
D02*
G37*
G36*
X131263Y241604D02*
X130014D01*
Y240256D01*
X130502D01*
X130793Y240314D01*
X131040Y240479D01*
X131205Y240726D01*
X131263Y241017D01*
Y241604D01*
D02*
G37*
G36*
X129514D02*
X128265D01*
Y241017D01*
X128323Y240726D01*
X128488Y240479D01*
X128735Y240314D01*
X129026Y240256D01*
X129514D01*
Y241604D01*
D02*
G37*
G36*
X138175Y240008D02*
X136823D01*
Y238734D01*
X138175D01*
Y240008D01*
D02*
G37*
G36*
Y238234D02*
X136823D01*
Y236961D01*
X138175D01*
Y238234D01*
D02*
G37*
G36*
X116535Y249262D02*
X116535Y249262D01*
X104624D01*
X104242Y249103D01*
X104083Y248721D01*
Y237402D01*
X104126Y237298D01*
Y236803D01*
X121268D01*
Y236860D01*
X124213D01*
X124595Y237019D01*
X126693Y239116D01*
X126736D01*
Y239160D01*
X126761Y239184D01*
X126919Y239567D01*
X126919Y239567D01*
Y241732D01*
X126761Y242115D01*
X126736Y242125D01*
Y243540D01*
X123689D01*
Y242985D01*
X123227Y242794D01*
X121268Y244754D01*
Y245087D01*
X120935D01*
X116918Y249103D01*
X116535Y249262D01*
D02*
G37*
G36*
X138077Y236268D02*
X136724D01*
Y234994D01*
X138077D01*
Y236268D01*
D02*
G37*
G36*
Y234494D02*
X136724D01*
Y233221D01*
X138077D01*
Y234494D01*
D02*
G37*
G36*
X121948Y226091D02*
X121707D01*
Y223872D01*
X123925D01*
Y224113D01*
X123549Y225020D01*
X122855Y225715D01*
X121948Y226091D01*
D02*
G37*
G36*
X121207D02*
X120966D01*
X120058Y225715D01*
X119364Y225020D01*
X118988Y224113D01*
Y223872D01*
X121207D01*
Y226091D01*
D02*
G37*
G36*
X123925Y223372D02*
X121707D01*
Y221153D01*
X121948D01*
X122855Y221529D01*
X123549Y222224D01*
X123925Y223131D01*
Y223372D01*
D02*
G37*
G36*
X121207D02*
X118988D01*
Y223131D01*
X119364Y222224D01*
X120058Y221529D01*
X120966Y221153D01*
X121207D01*
Y223372D01*
D02*
G37*
%LPD*%
G36*
X151933Y278121D02*
Y275756D01*
X151583Y275402D01*
X147369D01*
X147186Y275677D01*
X143591Y279272D01*
Y280658D01*
X143591D01*
X143437Y281157D01*
X143709Y281430D01*
X143965Y282048D01*
Y282716D01*
X143876Y282929D01*
X144211Y283429D01*
X146625D01*
X151933Y278121D01*
D02*
G37*
G36*
X119587Y266142D02*
X126083Y259646D01*
Y257087D01*
X124133D01*
X117932Y263287D01*
X105061Y263287D01*
Y266894D01*
X119587D01*
Y266142D01*
D02*
G37*
G36*
X129823Y263386D02*
Y257458D01*
X129777Y257428D01*
X129612Y257181D01*
X129554Y256890D01*
Y255217D01*
X129612Y254925D01*
X129777Y254679D01*
X129823Y254648D01*
Y247835D01*
X125787D01*
X121850Y251772D01*
X104724D01*
Y258858D01*
X121596D01*
X123562Y256892D01*
Y256532D01*
X126609D01*
Y257051D01*
X126624Y257087D01*
Y259243D01*
X126624Y259646D01*
X126624Y259646D01*
X126609Y259737D01*
X126586D01*
X126465Y260028D01*
X123917Y262576D01*
Y266929D01*
X129823D01*
Y263386D01*
D02*
G37*
G36*
X123524Y241732D02*
X126378D01*
Y239567D01*
X124213Y237402D01*
X104624D01*
Y248721D01*
X116535D01*
X123524Y241732D01*
D02*
G37*
D13*
X127854Y363110D02*
X127864Y363100D01*
X127815Y365118D02*
X127854Y365079D01*
D14*
X133307Y241854D02*
D03*
X129764D02*
D03*
X150787Y337500D02*
D03*
X136024Y355512D02*
D03*
X131053Y256053D02*
D03*
X134597D02*
D03*
X106890Y384744D02*
D03*
X103347D02*
D03*
X147244Y337500D02*
D03*
X132480Y355512D02*
D03*
D15*
X171161Y449803D02*
D03*
Y446063D02*
D03*
D16*
X163150Y433563D02*
D03*
X161221Y441437D02*
D03*
X167756Y377165D02*
D03*
X151870Y441437D02*
D03*
X140197Y436811D02*
D03*
X140295Y433661D02*
D03*
X148071Y376772D02*
D03*
X142264Y397047D02*
D03*
X144744Y376772D02*
D03*
X138917Y270571D02*
D03*
X138957Y267028D02*
D03*
Y263386D02*
D03*
X138917Y279134D02*
D03*
X139016Y275000D02*
D03*
X138858Y259646D02*
D03*
X138819Y256004D02*
D03*
X138425Y238484D02*
D03*
X138327Y234744D02*
D03*
X110669Y453543D02*
D03*
X110709Y444685D02*
D03*
X110669Y433957D02*
D03*
X110630Y424902D02*
D03*
X135236Y343110D02*
D03*
X127303Y397441D02*
D03*
X160079Y433563D02*
D03*
X143366Y433661D02*
D03*
X143268Y436811D02*
D03*
X141673Y376772D02*
D03*
X141890Y256004D02*
D03*
X113740Y433957D02*
D03*
X138307Y343110D02*
D03*
X130374Y397441D02*
D03*
X145335Y397047D02*
D03*
X154941Y441437D02*
D03*
X158150D02*
D03*
X151142Y376772D02*
D03*
X141496Y238484D02*
D03*
X113779Y444685D02*
D03*
X113740Y453543D02*
D03*
X141988Y279134D02*
D03*
X142087Y275000D02*
D03*
X142028Y263386D02*
D03*
Y267028D02*
D03*
X141988Y270571D02*
D03*
X141398Y234744D02*
D03*
X141929Y259646D02*
D03*
X170827Y377165D02*
D03*
X113701Y424902D02*
D03*
D17*
X166339Y430177D02*
D03*
X153412Y436549D02*
D03*
X166929Y413976D02*
D03*
X156102Y394724D02*
D03*
X159843D02*
D03*
X147134Y436512D02*
D03*
X154921Y388681D02*
D03*
X138287Y347638D02*
D03*
X143898Y334587D02*
D03*
X127559Y421614D02*
D03*
X124409Y424272D02*
D03*
X130315Y401043D02*
D03*
X127264Y401083D02*
D03*
X135236Y388819D02*
D03*
X133268Y275630D02*
D03*
X125213Y243790D02*
D03*
X154921Y385610D02*
D03*
X138287Y350709D02*
D03*
X166339Y427106D02*
D03*
X166929Y410906D02*
D03*
X159843Y397795D02*
D03*
X156102D02*
D03*
X130315Y404114D02*
D03*
X127559Y418543D02*
D03*
X124409Y421201D02*
D03*
X127264Y404154D02*
D03*
X125213Y240719D02*
D03*
X143898Y337657D02*
D03*
X135236Y391890D02*
D03*
X147134Y433441D02*
D03*
X153412Y433478D02*
D03*
X133268Y278701D02*
D03*
X125086Y258134D02*
D03*
Y255064D02*
D03*
D18*
X164665Y381594D02*
D03*
X157972Y385531D02*
D03*
Y383563D02*
D03*
Y381594D02*
D03*
X164665Y385531D02*
D03*
D19*
X148917Y415650D02*
D03*
D20*
X160827Y364961D02*
D03*
X170669Y372441D02*
D03*
Y364961D02*
D03*
X160827Y368701D02*
D03*
Y372441D02*
D03*
D21*
X151870Y402067D02*
D03*
X159744Y429232D02*
D03*
X145965D02*
D03*
X157776Y402067D02*
D03*
X155807D02*
D03*
X159744D02*
D03*
X153839D02*
D03*
X149902D02*
D03*
X147933D02*
D03*
X145965D02*
D03*
X143996D02*
D03*
X142028D02*
D03*
X140059D02*
D03*
X138091D02*
D03*
Y429232D02*
D03*
X140059D02*
D03*
X142028D02*
D03*
X143996D02*
D03*
X147933D02*
D03*
X149902D02*
D03*
X151870D02*
D03*
X153839D02*
D03*
X157776D02*
D03*
X155807D02*
D03*
D22*
X147047Y370571D02*
D03*
D23*
X142913Y368012D02*
D03*
Y373130D02*
D03*
X151181D02*
D03*
Y370571D02*
D03*
Y368012D02*
D03*
X142913Y370571D02*
D03*
D24*
X166732Y323622D02*
D03*
Y297244D02*
D03*
D25*
X146653Y358563D02*
D03*
X150197D02*
D03*
X143110D02*
D03*
X143012Y245866D02*
D03*
X132579Y370374D02*
D03*
X115157Y330906D02*
D03*
X138878Y242323D02*
D03*
Y245866D02*
D03*
X132185Y330512D02*
D03*
X171161Y438779D02*
D03*
Y442323D02*
D03*
X146653Y355020D02*
D03*
X156102Y372736D02*
D03*
Y369193D02*
D03*
X115157Y327362D02*
D03*
X132185Y326969D02*
D03*
X150197Y355020D02*
D03*
X143110D02*
D03*
X143012Y242323D02*
D03*
X132579Y366831D02*
D03*
D26*
X148228Y341929D02*
D03*
X141929Y350590D02*
D03*
X143504D02*
D03*
X145079D02*
D03*
X146653D02*
D03*
X148228D02*
D03*
X146653Y341929D02*
D03*
X145079D02*
D03*
X143504D02*
D03*
X141929D02*
D03*
D27*
X145079Y346260D02*
D03*
D28*
X144095Y314370D02*
D03*
Y306496D02*
D03*
D29*
X148524Y260531D02*
D03*
Y231004D02*
D03*
Y232972D02*
D03*
Y258563D02*
D03*
Y256594D02*
D03*
Y229035D02*
D03*
Y234941D02*
D03*
Y236909D02*
D03*
Y238878D02*
D03*
Y240846D02*
D03*
Y242815D02*
D03*
Y244783D02*
D03*
Y246752D02*
D03*
Y248721D02*
D03*
Y250689D02*
D03*
Y252658D02*
D03*
Y254626D02*
D03*
Y262500D02*
D03*
Y264469D02*
D03*
Y266437D02*
D03*
Y268406D02*
D03*
Y270374D02*
D03*
Y272342D02*
D03*
Y274311D02*
D03*
D30*
X135335Y408760D02*
D03*
X162500Y426476D02*
D03*
Y410728D02*
D03*
X135335Y412697D02*
D03*
Y406791D02*
D03*
X162500Y424508D02*
D03*
Y422539D02*
D03*
Y420571D02*
D03*
Y418602D02*
D03*
Y416634D02*
D03*
Y414665D02*
D03*
Y412697D02*
D03*
Y408760D02*
D03*
Y406791D02*
D03*
Y404823D02*
D03*
X135335D02*
D03*
Y410728D02*
D03*
Y414665D02*
D03*
Y416634D02*
D03*
Y418602D02*
D03*
Y420571D02*
D03*
Y422539D02*
D03*
Y424508D02*
D03*
Y426476D02*
D03*
D31*
X112779Y439370D02*
D03*
X114567D02*
D03*
D32*
X131791Y393996D02*
D03*
X127657Y388681D02*
D03*
Y393996D02*
D03*
X131791Y388681D02*
D03*
D33*
X127854Y349528D02*
D03*
Y374724D02*
D03*
Y371575D02*
D03*
Y352677D02*
D03*
D34*
X126378Y299803D02*
D03*
X109252Y300098D02*
D03*
X126378Y326181D02*
D03*
X109252Y326476D02*
D03*
D35*
X107185Y389961D02*
D03*
X103445D02*
D03*
D36*
X107454Y277988D02*
D03*
X126279Y278005D02*
D03*
Y265105D02*
D03*
X117224Y278005D02*
D03*
Y265105D02*
D03*
X107454Y265088D02*
D03*
D37*
X133323Y246433D02*
D03*
Y251334D02*
D03*
X126271Y248884D02*
D03*
D38*
X149894Y389870D02*
D03*
X140642D02*
D03*
D39*
X148524Y396358D02*
D03*
X151870D02*
D03*
D40*
X112697Y240945D02*
D03*
Y255315D02*
D03*
D41*
X113673Y441784D02*
D03*
Y436961D02*
D03*
D42*
X127854Y369016D02*
D03*
Y367047D02*
D03*
Y365079D02*
D03*
Y363110D02*
D03*
Y361142D02*
D03*
Y359173D02*
D03*
Y357205D02*
D03*
Y355236D02*
D03*
D43*
X161319Y221555D02*
D03*
Y281791D02*
D03*
D44*
X113681Y431201D02*
D03*
Y427854D02*
D03*
X113779Y447342D02*
D03*
Y450689D02*
D03*
D45*
X151575Y447638D02*
D03*
X161417D02*
D03*
D46*
X113779Y456988D02*
D03*
D71*
X126772Y480216D02*
D03*
D72*
X138976Y477853D02*
D03*
X103936Y473129D02*
D03*
X138976Y468405D02*
D03*
X103936Y463680D02*
D03*
D73*
X121456Y475493D02*
D03*
X121458Y470767D02*
D03*
X121456Y466044D02*
D03*
D74*
X108858Y461319D02*
D03*
D75*
X113779Y459153D02*
D03*
D76*
X125591Y379134D02*
D03*
Y345118D02*
D03*
D77*
X109843Y379134D02*
D03*
Y345118D02*
D03*
D79*
X121457Y223622D02*
D03*
X132283Y223524D02*
D03*
X142913Y223228D02*
D03*
X106398Y285728D02*
D03*
X140994Y288090D02*
D03*
X123721Y285531D02*
D03*
D80*
X133371Y233854D02*
X137992Y229232D01*
X133366Y241634D02*
X133371Y241629D01*
Y233854D02*
Y241629D01*
X133307Y246031D02*
X133742Y246466D01*
X133307Y241854D02*
Y246031D01*
X163150Y433563D02*
X166535D01*
Y430374D02*
Y433563D01*
X166142Y429980D02*
X166535Y430374D01*
X161221Y441437D02*
X161319Y441339D01*
X152672Y440438D02*
X153665Y439445D01*
Y436788D02*
Y439445D01*
X166929Y419980D02*
X171030Y424081D01*
X171123D01*
X166929Y413976D02*
Y419980D01*
X160827Y361827D02*
Y364961D01*
X159547Y394980D02*
X159646Y394882D01*
X156080Y394950D02*
X156120Y394910D01*
X156240Y394980D02*
X159547D01*
X159000Y360000D02*
X160827Y361827D01*
X151949Y441437D02*
X152672Y440713D01*
Y440438D02*
Y440713D01*
X151870Y441437D02*
X151949D01*
X147456Y435709D02*
X147858D01*
X148917Y415650D02*
X151870Y412697D01*
X147134Y436031D02*
Y436512D01*
Y436031D02*
X147456Y435709D01*
X140197Y436811D02*
X140295Y436713D01*
X142028Y408760D02*
X148917Y415650D01*
X140295Y433661D02*
Y436713D01*
X151870Y402067D02*
Y412697D01*
X148071Y376772D02*
X148071Y376772D01*
X145546Y375972D02*
Y376048D01*
X145379Y368012D02*
X147047Y369680D01*
X145546Y375972D02*
X147047Y374471D01*
Y369680D02*
Y374471D01*
X144744Y376772D02*
X148071D01*
X135335Y408760D02*
X142028D01*
X144744Y376772D02*
X144744Y376772D01*
X144823Y376772D02*
X145546Y376048D01*
X142913Y368012D02*
X145379D01*
X153937Y358661D02*
X154134Y358465D01*
X144291Y358661D02*
X153937D01*
X143701Y347638D02*
X145079Y346260D01*
X138287Y347638D02*
X143701D01*
X137185Y348819D02*
X138287Y347716D01*
Y347638D02*
Y347716D01*
X124705Y423898D02*
Y423957D01*
Y423898D02*
X125133Y423469D01*
X127131Y421846D02*
Y422030D01*
X125133Y423469D02*
X125691D01*
X127131Y422030D01*
X124409Y424272D02*
Y424350D01*
X135103Y408528D02*
X135335Y408760D01*
X127131Y421846D02*
X127854Y421122D01*
X127303Y401043D02*
X130315D01*
X127264Y401083D02*
X127303Y401043D01*
X127205Y397539D02*
X127303Y397441D01*
X123819Y397539D02*
X127205D01*
X110485Y444855D02*
X110512Y444882D01*
X110709Y444685D01*
X107874Y453543D02*
X110669D01*
X109946Y434680D02*
X110669Y433957D01*
X109906Y425625D02*
X110630Y424902D01*
X107972Y434941D02*
X108233Y434680D01*
X107952Y425630D02*
X107957Y425625D01*
X133831Y348819D02*
X137185D01*
X132579Y347566D02*
X133831Y348819D01*
X133760Y343833D02*
X134513D01*
X132579Y345015D02*
Y347566D01*
Y345015D02*
X133760Y343833D01*
X134513D02*
X135236Y343110D01*
X130955Y256152D02*
X131053Y256053D01*
X145374Y231004D02*
X148524D01*
X132283Y223524D02*
X137992Y229232D01*
X143602D01*
X145374Y231004D01*
X135039Y252187D02*
Y255610D01*
X134230Y251378D02*
X135039Y252187D01*
X134055Y251378D02*
X134153Y251279D01*
X138091D01*
X145260Y232972D02*
X148524D01*
X148708Y232788D01*
X152657Y226772D02*
Y231693D01*
X151562Y232788D02*
X152657Y231693D01*
X148708Y232788D02*
X151562D01*
X141437Y222342D02*
X142323Y223228D01*
X149114D01*
X152657Y226772D01*
X143924Y231636D02*
X145260Y232972D01*
X142266Y231636D02*
X143924D01*
X141929Y231299D02*
X142266Y231636D01*
X143012Y242323D02*
X144783D01*
X145276Y242815D02*
X148524D01*
X144783Y242323D02*
X145276Y242815D01*
X139173Y242224D02*
X143209D01*
X159744Y429232D02*
Y430315D01*
X135244Y412787D02*
X135335Y412697D01*
X135244Y406701D02*
X135335Y406791D01*
X135044Y406501D02*
X135244Y406701D01*
X171161Y442323D02*
Y446063D01*
X170866D02*
X171161Y445768D01*
X103347Y384744D02*
Y389862D01*
X103445Y389961D01*
X171161Y435159D02*
Y438779D01*
X141634Y445177D02*
X148958Y437853D01*
X133071Y445177D02*
X141634D01*
X153839Y429232D02*
Y430315D01*
X153412Y430742D02*
X153839Y430315D01*
X153412Y430742D02*
Y433478D01*
X170669Y372441D02*
X170827Y372598D01*
Y377165D01*
X128862Y433587D02*
X129035Y433760D01*
X128862Y425617D02*
Y433587D01*
Y425617D02*
X133617Y420861D01*
X135044D01*
X133666Y418893D02*
X135044D01*
X126686Y425874D02*
Y429593D01*
Y425874D02*
X133666Y418893D01*
X135044D02*
X135335Y418602D01*
X148958Y434999D02*
Y437853D01*
X165748Y422539D02*
X170177Y426968D01*
Y427067D01*
X162500Y422539D02*
X165748D01*
X142028Y447342D02*
X150689Y438681D01*
X142028Y447342D02*
Y447736D01*
X150689Y435921D02*
Y438681D01*
X121161Y332972D02*
Y348011D01*
X122659Y349508D01*
X123031D01*
X126378Y326181D02*
Y327756D01*
X121161Y332972D02*
X126378Y327756D01*
X118405Y348804D02*
X118504Y348902D01*
X118405Y343799D02*
Y348804D01*
X111905Y337298D02*
X118405Y343799D01*
X111905Y329129D02*
Y337298D01*
X109252Y326476D02*
X110138Y327362D01*
X111905Y329129D01*
X135044Y420861D02*
X135335Y420571D01*
X133961Y422830D02*
Y422830D01*
X130524Y426267D02*
X133961Y422830D01*
X130524Y426267D02*
Y432569D01*
X134252Y422539D02*
X135335D01*
X133961Y422830D02*
X134252Y422539D01*
X154882Y441437D02*
X155550Y440769D01*
Y429489D02*
X155807Y429232D01*
X155550Y429489D02*
Y440769D01*
X154803Y441437D02*
X154882D01*
X157776Y438189D02*
X157776Y438189D01*
Y441063D02*
X158150Y441437D01*
X157776Y438189D02*
Y441063D01*
X157776Y429232D02*
Y438189D01*
X135335Y431642D02*
X136659Y432967D01*
Y433261D01*
X135335Y426476D02*
Y431642D01*
X110138Y327362D02*
X115157D01*
X126378Y326181D02*
X127165Y326969D01*
X132382D01*
X158862Y442071D02*
Y443508D01*
X158445Y441653D02*
X158862Y442071D01*
Y443508D02*
X161417Y446063D01*
X146411Y434062D02*
X147112Y433361D01*
X131791Y388681D02*
Y388878D01*
X132968Y390054D01*
X132968D01*
X134001Y391087D01*
X134513D01*
X135197Y391772D01*
Y392087D01*
X127657Y393996D02*
Y394193D01*
X129572Y396107D01*
Y396717D01*
X130374Y397520D01*
X130532D01*
X130374Y397441D02*
X132534D01*
X134153Y399061D01*
Y404532D01*
X134444Y404823D01*
X135335D01*
X135158Y392244D02*
X138091Y395177D01*
Y402067D01*
X130709Y418898D02*
X132973Y416634D01*
X132861Y425554D02*
X133617Y424798D01*
X132973Y416634D02*
X135335D01*
X133617Y424798D02*
X135044D01*
X135335Y424508D01*
X132682Y431121D02*
X132861Y430942D01*
Y425554D02*
Y430942D01*
X147134Y433441D02*
Y433519D01*
X147134Y433384D02*
X147519Y432999D01*
Y430957D02*
Y432999D01*
Y430957D02*
X147643Y430834D01*
Y429523D02*
Y430834D01*
Y429523D02*
X147933Y429232D01*
X130524Y432569D02*
X132874Y434919D01*
Y435230D01*
X146411Y434062D02*
Y434201D01*
X147134Y433519D02*
X147858Y434243D01*
X148202D01*
X148958Y434999D01*
X153412Y433478D02*
Y433557D01*
X152688Y434281D02*
X153412Y433557D01*
X152387Y434281D02*
X152688D01*
X152337Y434331D02*
X152387Y434281D01*
X152279Y434331D02*
X152337D01*
X150689Y435921D02*
X152279Y434331D01*
X154079Y442161D02*
X154803Y441437D01*
X154079Y442161D02*
Y443558D01*
X151575Y446063D02*
X154079Y443558D01*
X151575Y446063D02*
Y447638D01*
X161417Y446063D02*
Y447638D01*
X155851Y250640D02*
X157771Y252559D01*
X148573Y250640D02*
X155851D01*
X157771Y252559D02*
X157874D01*
X153072Y252814D02*
X154982Y254724D01*
X155315D01*
X152427Y255111D02*
Y256114D01*
X152764Y256451D01*
X151983Y254667D02*
X152427Y255111D01*
X148564Y254667D02*
X151983D01*
X148524Y248721D02*
X157677D01*
X148524Y248721D02*
X148524Y248721D01*
X152973Y252726D02*
X153061Y252814D01*
X153072D01*
X148524Y254626D02*
X148564Y254667D01*
X152901Y252658D02*
X152970Y252726D01*
X148524Y252658D02*
X152901D01*
X152970Y252726D02*
X152973D01*
X156102Y372736D02*
Y375984D01*
X150098Y355020D02*
X150197D01*
X148228Y353150D02*
X150098Y355020D01*
X148228Y350590D02*
Y353150D01*
X146747Y337997D02*
X147244Y337500D01*
X146747Y337997D02*
Y341835D01*
X146653Y341929D02*
X146747Y341835D01*
X160728Y372342D02*
X160827Y372441D01*
X160728Y368799D02*
X160827Y368701D01*
X156102Y372342D02*
X160728D01*
X151181Y364567D02*
Y368012D01*
X151181Y368012D01*
X128145Y355527D02*
X132579D01*
X132766Y366939D02*
X132874Y366831D01*
X127963Y366939D02*
X132766D01*
X127854Y367047D02*
X127963Y366939D01*
X127854Y355236D02*
X128145Y355527D01*
X148524Y244783D02*
X151886D01*
X152575Y244094D01*
X153051D01*
X148524Y246752D02*
X155885D01*
X157558Y245079D02*
X157579D01*
X155885Y246752D02*
X157558Y245079D01*
X148524Y250689D02*
X148573Y250640D01*
X145079Y350590D02*
Y353051D01*
X143209Y355020D02*
X143893Y354335D01*
Y354237D02*
X145079Y353051D01*
X143893Y354237D02*
Y354335D01*
X143110Y355020D02*
X143209D01*
X146653Y350590D02*
Y355020D01*
X146653Y355020D01*
D81*
X134388Y255844D02*
X134597Y256053D01*
X153839Y398917D02*
Y402067D01*
X152059Y397138D02*
X153839Y398917D01*
X150110Y390732D02*
Y394772D01*
X148524Y395768D02*
Y396358D01*
Y395768D02*
X148713Y395579D01*
X149303D01*
X150110Y394772D01*
X137205Y382283D02*
X140453Y385531D01*
X157972D01*
X145858Y397571D02*
X146918D01*
X149811Y400464D01*
Y401976D01*
X149902Y402067D01*
X145335Y397047D02*
X145858Y397571D01*
X145256Y397047D02*
X145335D01*
X143408Y274476D02*
X145451Y272433D01*
X148433D01*
X148524Y272342D01*
X142087Y275000D02*
X142610Y274476D01*
X143408D01*
X123433Y272771D02*
X140292D01*
X119499Y276705D02*
X123433Y272771D01*
X140292D02*
X141850Y274329D01*
X116702Y279502D02*
X118002Y278202D01*
X118002Y277827D02*
Y278202D01*
X142025Y279134D02*
X142548Y278610D01*
X142810D01*
X146465Y274956D01*
X133808Y280757D02*
X137500Y284449D01*
X147047D02*
X152953Y278543D01*
X137500Y284449D02*
X147047D01*
X140994Y288090D02*
X141732D01*
X141831Y287992D01*
X145620D01*
X151221Y376772D02*
X152928Y378480D01*
X153972D01*
X154232Y378740D01*
X159843Y397795D02*
X159903Y397855D01*
X162832D02*
X162892Y397915D01*
X159903Y397855D02*
X162832D01*
X160000Y397725D02*
Y397804D01*
X157866Y399780D02*
X159319Y398327D01*
X159476D02*
X160000Y397804D01*
X159319Y398327D02*
X159476D01*
X106890Y384744D02*
X109350Y382283D01*
X137205D01*
X127854Y371575D02*
X128535Y372256D01*
X159547Y397725D02*
X160000D01*
X156080D02*
X159547D01*
X157866Y399780D02*
Y401976D01*
X141178Y390757D02*
X142621Y392200D01*
Y394334D01*
X144732Y396445D01*
Y396524D01*
X145256Y397047D01*
X132255Y332649D02*
X133760Y334154D01*
X132255Y330540D02*
Y332649D01*
Y330540D02*
X132283Y330512D01*
X146465Y274402D02*
Y274956D01*
Y274402D02*
X146555Y274311D01*
X148524D01*
X141988Y279134D02*
X142136Y279281D01*
X141988Y270374D02*
X148524D01*
X142028Y267009D02*
X145983D01*
X144291Y263386D02*
X145283Y264378D01*
X142028Y263386D02*
X144291D01*
X145283Y264378D02*
X148433D01*
X145677Y262409D02*
X148433D01*
X141929Y259922D02*
X142177Y260169D01*
X143437D02*
X145677Y262409D01*
X142177Y260169D02*
X143437D01*
X148433Y262409D02*
X148524Y262500D01*
X141988Y238484D02*
X143602D01*
X141791Y234941D02*
X148524D01*
X143602Y238484D02*
X145087Y237000D01*
X148433D01*
X139173Y245768D02*
X139202Y245796D01*
Y247666D01*
X142913Y251378D01*
X165799Y426646D02*
X166299Y427146D01*
X141890Y256004D02*
X142407Y256521D01*
X141701Y255815D02*
X141890Y256004D01*
X127370Y418653D02*
X133236Y412787D01*
X142407Y256521D02*
X148451D01*
X148524Y256594D01*
X141701Y252959D02*
X142913Y251747D01*
X141701Y252959D02*
Y255815D01*
X142913Y251378D02*
Y251747D01*
X165847Y437795D02*
X171701Y431941D01*
Y431941D02*
X173516Y430126D01*
X160592Y437795D02*
X165847D01*
X167469Y427709D02*
X171701Y431941D01*
X173516Y412295D02*
Y430126D01*
X160079Y433563D02*
X160433Y433917D01*
Y437795D01*
X166339Y427185D02*
X166862Y427709D01*
X167469D01*
X166339Y427106D02*
Y427185D01*
X166787Y410763D02*
X166929Y410906D01*
X165799Y426567D02*
Y426646D01*
X162591Y426567D02*
X165799D01*
X162500Y426476D02*
X162591Y426567D01*
X162500Y410728D02*
X166279D01*
X143268Y436811D02*
X143317Y436762D01*
X143189Y436811D02*
X143268D01*
X143317Y433711D02*
X143366Y433661D01*
X143445D01*
X143317Y433711D02*
Y436762D01*
X142665Y437335D02*
Y438437D01*
Y437335D02*
X143189Y436811D01*
X141304Y439798D02*
X142665Y438437D01*
X159835Y433319D02*
X160079Y433563D01*
X159835Y429323D02*
Y433319D01*
X159744Y429232D02*
X159835Y429323D01*
X145874D02*
X145965Y429232D01*
X143968Y433059D02*
Y433138D01*
Y433059D02*
X145874Y431154D01*
X143445Y433661D02*
X143968Y433138D01*
X145874Y429323D02*
Y431154D01*
X168885Y407664D02*
X173516Y412295D01*
X166905Y407664D02*
X168885D01*
X166787Y407546D02*
Y410763D01*
Y407546D02*
X166905Y407664D01*
X166644Y407404D02*
X166787Y407546D01*
X157776Y402067D02*
X157866Y401976D01*
X155807Y398484D02*
X156201Y398091D01*
X155807Y398484D02*
Y402067D01*
X148524Y256594D02*
Y258563D01*
X142224Y373130D02*
X142913D01*
X142035Y373319D02*
X142224Y373130D01*
X140157Y440059D02*
X140418Y439798D01*
X141304D01*
X121358Y431398D02*
X130020Y440059D01*
X133236Y412787D02*
X135244D01*
X132823Y406701D02*
X135244D01*
X130315Y404193D02*
X132823Y406701D01*
X130295Y404134D02*
X130315Y404114D01*
X127284Y404134D02*
X130295D01*
X130315Y404114D02*
Y404193D01*
X124409Y421122D02*
Y421201D01*
Y421122D02*
X124933Y420598D01*
X124409Y421201D02*
Y421279D01*
X125012Y420598D02*
X126465Y419146D01*
X124933Y420598D02*
X125012D01*
X121358Y423327D02*
X122882Y421803D01*
X123886D01*
X121358Y423327D02*
Y431398D01*
X123886Y421803D02*
X124409Y421279D01*
X127035Y419146D02*
X127331Y418850D01*
Y418653D02*
Y418850D01*
X126465Y419146D02*
X127035D01*
X127331Y418653D02*
X127370D01*
X127264Y404154D02*
X127284Y404134D01*
X127224Y404193D02*
X127264Y404154D01*
X118839Y404193D02*
X127224D01*
X118799Y404232D02*
X118839Y404193D01*
X110110Y299240D02*
X114835D01*
X109252Y300098D02*
X110110Y299240D01*
X114835D02*
X114862Y299213D01*
X112697Y240945D02*
X112992Y240650D01*
X125394D02*
X125487Y240557D01*
X145983Y267009D02*
X146555Y266437D01*
X148524D01*
X118002Y277827D02*
X119124Y276705D01*
X119499D01*
X123622Y281942D02*
Y285531D01*
X126145Y278005D02*
X126279D01*
X124845Y279305D02*
X126145Y278005D01*
X124845Y279305D02*
Y280719D01*
X123622Y281942D02*
X124845Y280719D01*
X111076Y285728D02*
X116702Y280102D01*
X106398Y285728D02*
X111076D01*
X116702Y279502D02*
Y280102D01*
X128018Y278661D02*
X133661D01*
X127461Y278104D02*
X128018Y278661D01*
X133661Y278740D02*
Y278819D01*
X145620Y287992D02*
X145719Y287894D01*
X142136Y282234D02*
X142283Y282382D01*
X142136Y279281D02*
Y282234D01*
X133661Y278740D02*
X133808Y278887D01*
Y280757D01*
X152953Y268991D02*
Y278543D01*
X148524Y268406D02*
X152367D01*
X152953Y268991D01*
X138383Y340746D02*
Y343012D01*
X137449Y339812D02*
X138383Y340746D01*
X138366Y343012D02*
X141717D01*
X137449Y339531D02*
Y339812D01*
X143504Y338051D02*
X143898Y337657D01*
X151142Y376772D02*
X151161Y376752D01*
Y373150D02*
Y376752D01*
X141929Y341929D02*
Y342799D01*
X141717Y343012D02*
X141929Y342799D01*
X160777Y368750D02*
X160827Y368701D01*
X156152Y368750D02*
X160777D01*
X155509Y369482D02*
X155993Y368997D01*
X153559Y371674D02*
Y371674D01*
X155509Y369482D02*
Y369724D01*
X156102Y368799D02*
X156152Y368750D01*
X153559Y371674D02*
X155509Y369724D01*
X155993Y368997D02*
X156092D01*
X152973Y372260D02*
X153559Y371674D01*
X152973Y372260D02*
X152973D01*
X152292Y372941D02*
X152973Y372260D01*
X151370Y372941D02*
X152292D01*
X151161Y373150D02*
X151370Y372941D01*
X148433Y237000D02*
X148524Y236909D01*
X148433Y264378D02*
X148524Y264469D01*
D82*
X131500Y360998D02*
X135280Y364777D01*
Y377603D02*
X141240Y383563D01*
X135280Y364777D02*
Y377603D01*
X136516Y377091D02*
X141752Y382327D01*
X136516Y364265D02*
Y377091D01*
X131423Y359173D02*
X136516Y364265D01*
X130190Y360998D02*
X131500D01*
X166282Y385007D02*
X166319Y384970D01*
X163049Y385531D02*
X164823D01*
X164551Y404736D02*
X165046Y404241D01*
X164823Y385531D02*
X165046Y385754D01*
X162587Y404736D02*
X164551D01*
X162500Y404823D02*
X162587Y404736D01*
X165063Y405972D02*
X166282Y404753D01*
X165046Y385754D02*
Y404241D01*
X166319Y384846D02*
Y384970D01*
X163561Y384295D02*
X165768D01*
X163583Y406791D02*
X164402Y405972D01*
X166282Y385007D02*
Y404753D01*
X165768Y384295D02*
X166319Y384846D01*
X164402Y405972D02*
X165063D01*
X141752Y382327D02*
X157095D01*
X157553Y381868D01*
X141240Y383563D02*
X157972D01*
X157553Y381817D02*
Y381868D01*
X160490Y382972D02*
X163049Y385531D01*
X158169Y383563D02*
X158760Y382972D01*
X160490D01*
X158072Y381694D02*
X160960D01*
X158071Y381693D02*
X158072Y381694D01*
X160960D02*
X163561Y384295D01*
X157776Y381594D02*
X157972D01*
X157553Y381817D02*
X157776Y381594D01*
X162500Y406791D02*
X163583D01*
X127854Y359173D02*
X131423D01*
X127854Y361142D02*
X128077Y361364D01*
X130190D01*
X130986Y362160D01*
Y364060D01*
X130190Y364856D02*
X130986Y364060D01*
X128077Y364856D02*
X130190D01*
X127854Y365079D02*
X128077Y364856D01*
X124723Y360192D02*
Y362092D01*
X127632Y359396D02*
X127854Y359173D01*
X125518Y359396D02*
X127632D01*
X124723Y360192D02*
X125518Y359396D01*
X124723Y362092D02*
X125518Y362888D01*
X127632D01*
X127854Y363110D01*
D83*
X113777Y442299D02*
Y447175D01*
X113779Y447172D01*
X113711Y433986D02*
Y436456D01*
Y433986D02*
X113740Y433957D01*
X113711Y433927D02*
X113740Y433957D01*
X113779Y422539D02*
X125591Y410728D01*
X132677D01*
X113779Y422539D02*
Y424902D01*
X113701Y427470D02*
X113726Y427495D01*
X113701Y424902D02*
Y427470D01*
X113711Y431310D02*
Y433927D01*
X113775Y451085D02*
Y453509D01*
X113740Y453543D02*
X113775Y453509D01*
X113779Y453603D02*
Y459153D01*
D84*
X132677Y410728D02*
X135335D01*
D85*
X128248Y231496D02*
D03*
X133465Y265059D02*
D03*
X134941Y384941D02*
D03*
X124409Y384646D02*
D03*
X103543Y398425D02*
D03*
X172441Y455315D02*
D03*
X167126D02*
D03*
X166535Y433563D02*
D03*
X161811Y455315D02*
D03*
X156201D02*
D03*
X156000Y450000D02*
D03*
X171123Y424081D02*
D03*
X162000Y378000D02*
D03*
X150394Y455315D02*
D03*
X144488D02*
D03*
X138779D02*
D03*
X171000Y336000D02*
D03*
X168000Y318000D02*
D03*
X171000Y312000D02*
D03*
X165000Y360000D02*
D03*
X168000Y330000D02*
D03*
X171000Y288000D02*
D03*
Y276000D02*
D03*
X168000Y306000D02*
D03*
Y282000D02*
D03*
X159000Y360000D02*
D03*
X162000Y354000D02*
D03*
X154134Y358465D02*
D03*
X156000Y354000D02*
D03*
X159000Y348000D02*
D03*
X156000Y342000D02*
D03*
X171000Y252000D02*
D03*
Y264000D02*
D03*
Y240000D02*
D03*
X168000Y246000D02*
D03*
Y234000D02*
D03*
X171000Y228000D02*
D03*
X168000Y222000D02*
D03*
Y270000D02*
D03*
Y258000D02*
D03*
X159000Y240000D02*
D03*
X165000D02*
D03*
X162000Y234000D02*
D03*
X165000Y228000D02*
D03*
X156000Y234000D02*
D03*
X159000Y228000D02*
D03*
X153000Y348000D02*
D03*
X147000Y324000D02*
D03*
Y300000D02*
D03*
X144000Y294000D02*
D03*
X141000Y300000D02*
D03*
X138000Y294000D02*
D03*
Y222000D02*
D03*
X133071Y455315D02*
D03*
X127854D02*
D03*
Y451181D02*
D03*
X122244Y455315D02*
D03*
X122047Y448228D02*
D03*
X117028Y445768D02*
D03*
Y440846D02*
D03*
Y436024D02*
D03*
X118256Y422070D02*
D03*
X124425Y415901D02*
D03*
X128106Y413562D02*
D03*
X121340Y418986D02*
D03*
X119181Y413131D02*
D03*
X126060Y407895D02*
D03*
X122266Y410046D02*
D03*
X117028Y455315D02*
D03*
Y450591D02*
D03*
X110335Y450394D02*
D03*
X102461Y455217D02*
D03*
X107480D02*
D03*
X107579Y442717D02*
D03*
X110236Y438386D02*
D03*
X107579Y446949D02*
D03*
X107480Y434055D02*
D03*
X116929Y431102D02*
D03*
X116774Y426173D02*
D03*
X116096Y416215D02*
D03*
X117000Y408000D02*
D03*
X113012Y419300D02*
D03*
X111000Y408000D02*
D03*
X110335Y429429D02*
D03*
X107551Y425971D02*
D03*
X109744Y421850D02*
D03*
X108000Y402000D02*
D03*
Y414000D02*
D03*
X105000Y408000D02*
D03*
X135000Y300000D02*
D03*
Y288000D02*
D03*
X132000Y294000D02*
D03*
X129000Y288000D02*
D03*
X126000Y318000D02*
D03*
Y270000D02*
D03*
Y222000D02*
D03*
X123873Y397534D02*
D03*
X120000Y330000D02*
D03*
X117520Y337992D02*
D03*
X117000Y324000D02*
D03*
X120000Y318000D02*
D03*
X114000D02*
D03*
X111000Y312000D02*
D03*
Y396000D02*
D03*
X108000Y318000D02*
D03*
X105709Y338189D02*
D03*
X105000Y312000D02*
D03*
X123000D02*
D03*
X120000Y294000D02*
D03*
X117000Y312000D02*
D03*
Y288000D02*
D03*
X120000Y270000D02*
D03*
X117000Y228000D02*
D03*
X114000Y222000D02*
D03*
Y270000D02*
D03*
X108000D02*
D03*
Y234000D02*
D03*
X114000D02*
D03*
X111000Y228000D02*
D03*
X105000D02*
D03*
X108000Y222000D02*
D03*
X138091Y251279D02*
D03*
X141929Y231299D02*
D03*
X154232Y378740D02*
D03*
X162892Y397915D02*
D03*
X133760Y334154D02*
D03*
X160433Y437795D02*
D03*
X166644Y407404D02*
D03*
X142421Y362106D02*
D03*
X142913Y251378D02*
D03*
X140157Y440059D02*
D03*
X130020D02*
D03*
X118799Y404232D02*
D03*
X139272Y371457D02*
D03*
X139370Y366339D02*
D03*
X114862Y299213D02*
D03*
X106693Y246949D02*
D03*
X145719Y287894D02*
D03*
X142283Y282382D02*
D03*
X171161Y435335D02*
D03*
X133071Y445177D02*
D03*
X137449Y339531D02*
D03*
X129035Y433760D02*
D03*
X170177Y427067D02*
D03*
X142028Y447736D02*
D03*
X123031Y349508D02*
D03*
X118504Y348902D02*
D03*
X126686Y429593D02*
D03*
X136659Y433261D02*
D03*
X130709Y418898D02*
D03*
X132682Y431121D02*
D03*
X132874Y435230D02*
D03*
X157874Y252559D02*
D03*
X155315Y254724D02*
D03*
X152764Y256451D02*
D03*
X157677Y248721D02*
D03*
X156102Y375984D02*
D03*
X151181Y364567D02*
D03*
X153051Y244094D02*
D03*
X157579Y245079D02*
D03*
M02*
