G04*
G04 #@! TF.GenerationSoftware,Altium Limited,Altium Designer,25.3.2 (17)*
G04*
G04 Layer_Color=16711935*
%FSLAX25Y25*%
%MOIN*%
G70*
G04*
G04 #@! TF.SameCoordinates,6E80121B-E385-4320-81C0-36D278DA9A02*
G04*
G04*
G04 #@! TF.FilePolarity,Negative*
G04*
G01*
G75*
G04:AMPARAMS|DCode=74|XSize=39.37mil|YSize=86.61mil|CornerRadius=19.68mil|HoleSize=0mil|Usage=FLASHONLY|Rotation=270.000|XOffset=0mil|YOffset=0mil|HoleType=Round|Shape=RoundedRectangle|*
%AMROUNDEDRECTD74*
21,1,0.03937,0.04724,0,0,270.0*
21,1,0.00000,0.08661,0,0,270.0*
1,1,0.03937,-0.02362,0.00000*
1,1,0.03937,-0.02362,0.00000*
1,1,0.03937,0.02362,0.00000*
1,1,0.03937,0.02362,0.00000*
%
%ADD74ROUNDEDRECTD74*%
G04:AMPARAMS|DCode=75|XSize=39.37mil|YSize=70.87mil|CornerRadius=19.68mil|HoleSize=0mil|Usage=FLASHONLY|Rotation=270.000|XOffset=0mil|YOffset=0mil|HoleType=Round|Shape=RoundedRectangle|*
%AMROUNDEDRECTD75*
21,1,0.03937,0.03150,0,0,270.0*
21,1,0.00000,0.07087,0,0,270.0*
1,1,0.03937,-0.01575,0.00000*
1,1,0.03937,-0.01575,0.00000*
1,1,0.03937,0.01575,0.00000*
1,1,0.03937,0.01575,0.00000*
%
%ADD75ROUNDEDRECTD75*%
%ADD76C,0.02953*%
D74*
X109843Y379134D02*
D03*
Y345118D02*
D03*
D75*
X125591Y379134D02*
D03*
Y345118D02*
D03*
D76*
X168701Y291437D02*
D03*
X171073Y336904D02*
D03*
X168110Y330217D02*
D03*
X165650Y227165D02*
D03*
X159350D02*
D03*
X107776Y271358D02*
D03*
X116732Y270965D02*
D03*
X125689Y270571D02*
D03*
X122343Y235236D02*
D03*
X127067Y231102D02*
D03*
X130315Y239075D02*
D03*
X131595Y258661D02*
D03*
X147441Y329331D02*
D03*
X126476Y225000D02*
D03*
X120866Y248228D02*
D03*
X113287Y288976D02*
D03*
X134507Y288648D02*
D03*
X128642Y288681D02*
D03*
X118799Y283169D02*
D03*
X119390Y292224D02*
D03*
X121063Y328150D02*
D03*
X102657Y398524D02*
D03*
X102854Y444488D02*
D03*
X102461Y432972D02*
D03*
X125886Y449508D02*
D03*
X164764Y384449D02*
D03*
X161713Y377854D02*
D03*
X168299Y315933D02*
D03*
X171299Y309933D02*
D03*
X168299Y303933D02*
D03*
X171299Y285933D02*
D03*
X168299Y279933D02*
D03*
X171299Y273933D02*
D03*
X168299Y267933D02*
D03*
X171299Y261933D02*
D03*
X168299Y255933D02*
D03*
X171299Y249933D02*
D03*
X168299Y243933D02*
D03*
X171299Y237933D02*
D03*
X168299Y231933D02*
D03*
X171299Y225933D02*
D03*
X168299Y219933D02*
D03*
X165299Y357933D02*
D03*
X162299Y351933D02*
D03*
X165299Y237933D02*
D03*
X162299Y231933D02*
D03*
X156299Y351933D02*
D03*
X159299Y345933D02*
D03*
X156299Y339933D02*
D03*
X159299Y237933D02*
D03*
X156299Y231933D02*
D03*
X153299Y345933D02*
D03*
X147299Y321933D02*
D03*
Y297933D02*
D03*
X144299Y291933D02*
D03*
X141299Y297933D02*
D03*
X138299Y291933D02*
D03*
Y219933D02*
D03*
X135299Y381933D02*
D03*
Y297933D02*
D03*
X126299Y315933D02*
D03*
Y219933D02*
D03*
X120299Y447933D02*
D03*
Y315933D02*
D03*
X114299Y411933D02*
D03*
X117299Y333933D02*
D03*
Y321933D02*
D03*
X114299Y315933D02*
D03*
X117299Y309933D02*
D03*
X114299Y231933D02*
D03*
X117299Y225933D02*
D03*
X114299Y219933D02*
D03*
X108299Y411933D02*
D03*
X111299Y405933D02*
D03*
X108299Y399933D02*
D03*
X111299Y393933D02*
D03*
X108299Y315933D02*
D03*
X111299Y309933D02*
D03*
X108299Y231933D02*
D03*
X111299Y225933D02*
D03*
X108299Y219933D02*
D03*
X105299Y417933D02*
D03*
Y405933D02*
D03*
Y333933D02*
D03*
Y309933D02*
D03*
Y225933D02*
D03*
X102461Y455217D02*
D03*
X172441Y455315D02*
D03*
X167126D02*
D03*
X161811D02*
D03*
X156201D02*
D03*
X150394D02*
D03*
X144488D02*
D03*
X138779D02*
D03*
X133071D02*
D03*
X127854D02*
D03*
X122244D02*
D03*
X130512Y334154D02*
D03*
X107480Y455217D02*
D03*
X110335Y450394D02*
D03*
X107579Y446949D02*
D03*
Y442717D02*
D03*
X110236Y438386D02*
D03*
X107480Y434055D02*
D03*
X110335Y429429D02*
D03*
X107551Y425971D02*
D03*
X109744Y421850D02*
D03*
X117028Y455315D02*
D03*
Y450591D02*
D03*
Y445768D02*
D03*
Y440846D02*
D03*
Y436024D02*
D03*
X116929Y431102D02*
D03*
X113012Y419300D02*
D03*
X116096Y416215D02*
D03*
X119181Y413131D02*
D03*
X122266Y410046D02*
D03*
X126060Y407895D02*
D03*
X128106Y413562D02*
D03*
X124425Y415901D02*
D03*
X121340Y418986D02*
D03*
X118256Y422070D02*
D03*
X116774Y426173D02*
D03*
X145128Y287057D02*
D03*
X143307Y281594D02*
D03*
X171161Y435335D02*
D03*
X133071Y445177D02*
D03*
X139370Y366339D02*
D03*
X137449Y339531D02*
D03*
X166644Y407404D02*
D03*
X129035Y433760D02*
D03*
X171358Y424016D02*
D03*
X170177Y427067D02*
D03*
X130020Y440059D02*
D03*
X140157D02*
D03*
X142028Y447736D02*
D03*
X123031Y349508D02*
D03*
X118504Y348902D02*
D03*
X118799Y404232D02*
D03*
X160433Y437795D02*
D03*
X126686Y429593D02*
D03*
X139272Y371457D02*
D03*
X142421Y362106D02*
D03*
X162992Y398031D02*
D03*
X106693Y246949D02*
D03*
X114862Y299213D02*
D03*
X136659Y433261D02*
D03*
X143209Y251476D02*
D03*
X154823Y380020D02*
D03*
X123873Y397534D02*
D03*
X130709Y418898D02*
D03*
X132682Y431121D02*
D03*
X166535Y433563D02*
D03*
X132874Y435230D02*
D03*
X157874Y252559D02*
D03*
X155315Y254724D02*
D03*
X152764Y256451D02*
D03*
X157677Y248721D02*
D03*
X156102Y375984D02*
D03*
X156004Y364961D02*
D03*
X154134Y358465D02*
D03*
X151181Y364567D02*
D03*
X153051Y244094D02*
D03*
X157579Y245079D02*
D03*
X143193Y232283D02*
D03*
X138091Y251279D02*
D03*
M02*
