G04*
G04 #@! TF.GenerationSoftware,Altium Limited,Altium Designer,25.3.2 (17)*
G04*
G04 Layer_Color=16711935*
%FSLAX25Y25*%
%MOIN*%
G70*
G04*
G04 #@! TF.SameCoordinates,E604B643-014B-4B37-AC65-36AC9296C3C3*
G04*
G04*
G04 #@! TF.FilePolarity,Negative*
G04*
G01*
G75*
G04:AMPARAMS|DCode=74|XSize=39.37mil|YSize=86.61mil|CornerRadius=19.68mil|HoleSize=0mil|Usage=FLASHONLY|Rotation=270.000|XOffset=0mil|YOffset=0mil|HoleType=Round|Shape=RoundedRectangle|*
%AMROUNDEDRECTD74*
21,1,0.03937,0.04724,0,0,270.0*
21,1,0.00000,0.08661,0,0,270.0*
1,1,0.03937,-0.02362,0.00000*
1,1,0.03937,-0.02362,0.00000*
1,1,0.03937,0.02362,0.00000*
1,1,0.03937,0.02362,0.00000*
%
%ADD74ROUNDEDRECTD74*%
G04:AMPARAMS|DCode=75|XSize=39.37mil|YSize=70.87mil|CornerRadius=19.68mil|HoleSize=0mil|Usage=FLASHONLY|Rotation=270.000|XOffset=0mil|YOffset=0mil|HoleType=Round|Shape=RoundedRectangle|*
%AMROUNDEDRECTD75*
21,1,0.03937,0.03150,0,0,270.0*
21,1,0.00000,0.07087,0,0,270.0*
1,1,0.03937,-0.01575,0.00000*
1,1,0.03937,-0.01575,0.00000*
1,1,0.03937,0.01575,0.00000*
1,1,0.03937,0.01575,0.00000*
%
%ADD75ROUNDEDRECTD75*%
%ADD76C,0.02953*%
D74*
X109843Y379134D02*
D03*
Y345118D02*
D03*
D75*
X125591Y379134D02*
D03*
Y345118D02*
D03*
D76*
X171123Y424081D02*
D03*
X127854Y451181D02*
D03*
X122047Y448228D02*
D03*
X171000Y336000D02*
D03*
X168000Y330000D02*
D03*
Y318000D02*
D03*
X171000Y312000D02*
D03*
X168000Y306000D02*
D03*
X171000Y288000D02*
D03*
X168000Y282000D02*
D03*
X171000Y276000D02*
D03*
X168000Y270000D02*
D03*
X171000Y264000D02*
D03*
X168000Y258000D02*
D03*
X171000Y252000D02*
D03*
X168000Y246000D02*
D03*
X171000Y240000D02*
D03*
X168000Y234000D02*
D03*
X171000Y228000D02*
D03*
X168000Y222000D02*
D03*
X165000Y384000D02*
D03*
X162000Y378000D02*
D03*
X165000Y360000D02*
D03*
X162000Y354000D02*
D03*
X165000Y240000D02*
D03*
X162000Y234000D02*
D03*
X165000Y228000D02*
D03*
X156000Y450000D02*
D03*
X159000Y360000D02*
D03*
X156000Y354000D02*
D03*
X159000Y348000D02*
D03*
X156000Y342000D02*
D03*
X159000Y240000D02*
D03*
X156000Y234000D02*
D03*
X159000Y228000D02*
D03*
X153000Y348000D02*
D03*
X147000Y324000D02*
D03*
Y300000D02*
D03*
X144000Y294000D02*
D03*
X141000Y300000D02*
D03*
X138000Y294000D02*
D03*
Y222000D02*
D03*
X135000Y384000D02*
D03*
Y300000D02*
D03*
X132000Y294000D02*
D03*
X135000Y288000D02*
D03*
X132000Y270000D02*
D03*
X135000Y264000D02*
D03*
X126000Y318000D02*
D03*
X129000Y288000D02*
D03*
X126000Y270000D02*
D03*
Y234000D02*
D03*
Y222000D02*
D03*
X123000Y384000D02*
D03*
X120000Y330000D02*
D03*
Y318000D02*
D03*
X123000Y312000D02*
D03*
X120000Y294000D02*
D03*
Y270000D02*
D03*
X117000Y408000D02*
D03*
Y336000D02*
D03*
Y324000D02*
D03*
X114000Y318000D02*
D03*
X117000Y312000D02*
D03*
Y288000D02*
D03*
X114000Y270000D02*
D03*
Y234000D02*
D03*
X117000Y228000D02*
D03*
X114000Y222000D02*
D03*
X108000Y414000D02*
D03*
X111000Y408000D02*
D03*
X108000Y402000D02*
D03*
X111000Y396000D02*
D03*
X108000Y318000D02*
D03*
X111000Y312000D02*
D03*
X108000Y270000D02*
D03*
Y234000D02*
D03*
X111000Y228000D02*
D03*
X108000Y222000D02*
D03*
X105000Y408000D02*
D03*
Y396000D02*
D03*
Y336000D02*
D03*
Y312000D02*
D03*
Y228000D02*
D03*
X107480Y434055D02*
D03*
X102461Y455217D02*
D03*
X172441Y455315D02*
D03*
X167126D02*
D03*
X161811D02*
D03*
X156201D02*
D03*
X150394D02*
D03*
X144488D02*
D03*
X138779D02*
D03*
X133071D02*
D03*
X127854D02*
D03*
X122244D02*
D03*
X130512Y334154D02*
D03*
X107480Y455217D02*
D03*
X110335Y450394D02*
D03*
X107579Y446949D02*
D03*
Y442717D02*
D03*
X110236Y438386D02*
D03*
X110335Y429429D02*
D03*
X107551Y425971D02*
D03*
X109744Y421850D02*
D03*
X117028Y455315D02*
D03*
Y450591D02*
D03*
Y445768D02*
D03*
Y440846D02*
D03*
Y436024D02*
D03*
X116929Y431102D02*
D03*
X113012Y419300D02*
D03*
X116096Y416215D02*
D03*
X119181Y413131D02*
D03*
X122266Y410046D02*
D03*
X126060Y407895D02*
D03*
X128106Y413562D02*
D03*
X124425Y415901D02*
D03*
X121340Y418986D02*
D03*
X118256Y422070D02*
D03*
X116774Y426173D02*
D03*
X145128Y287057D02*
D03*
X143307Y281594D02*
D03*
X171161Y435335D02*
D03*
X133071Y445177D02*
D03*
X139370Y366339D02*
D03*
X137449Y339531D02*
D03*
X166644Y407404D02*
D03*
X129035Y433760D02*
D03*
X170177Y427067D02*
D03*
X130020Y440059D02*
D03*
X140157D02*
D03*
X142028Y447736D02*
D03*
X123031Y349508D02*
D03*
X118504Y348902D02*
D03*
X118799Y404232D02*
D03*
X160433Y437795D02*
D03*
X126686Y429593D02*
D03*
X139272Y371457D02*
D03*
X142421Y362106D02*
D03*
X162992Y398031D02*
D03*
X106693Y246949D02*
D03*
X114862Y299213D02*
D03*
X136659Y433261D02*
D03*
X143209Y251476D02*
D03*
X154823Y380020D02*
D03*
X123873Y397534D02*
D03*
X130709Y418898D02*
D03*
X132682Y431121D02*
D03*
X166535Y433563D02*
D03*
X132874Y435230D02*
D03*
X157874Y252559D02*
D03*
X155315Y254724D02*
D03*
X152764Y256451D02*
D03*
X157677Y248721D02*
D03*
X156102Y375984D02*
D03*
X156004Y364961D02*
D03*
X154134Y358465D02*
D03*
X151181Y364567D02*
D03*
X153051Y244094D02*
D03*
X157579Y245079D02*
D03*
X143193Y232283D02*
D03*
X138091Y251279D02*
D03*
M02*
