G04*
G04 #@! TF.GenerationSoftware,Altium Limited,Altium Designer,25.3.2 (17)*
G04*
G04 Layer_Physical_Order=2*
G04 Layer_Color=16711680*
%FSLAX25Y25*%
%MOIN*%
G70*
G04*
G04 #@! TF.SameCoordinates,E604B643-014B-4B37-AC65-36AC9296C3C3*
G04*
G04*
G04 #@! TF.FilePolarity,Positive*
G04*
G01*
G75*
G04:AMPARAMS|DCode=74|XSize=39.37mil|YSize=86.61mil|CornerRadius=19.68mil|HoleSize=0mil|Usage=FLASHONLY|Rotation=270.000|XOffset=0mil|YOffset=0mil|HoleType=Round|Shape=RoundedRectangle|*
%AMROUNDEDRECTD74*
21,1,0.03937,0.04724,0,0,270.0*
21,1,0.00000,0.08661,0,0,270.0*
1,1,0.03937,-0.02362,0.00000*
1,1,0.03937,-0.02362,0.00000*
1,1,0.03937,0.02362,0.00000*
1,1,0.03937,0.02362,0.00000*
%
%ADD74ROUNDEDRECTD74*%
G04:AMPARAMS|DCode=75|XSize=39.37mil|YSize=70.87mil|CornerRadius=19.68mil|HoleSize=0mil|Usage=FLASHONLY|Rotation=270.000|XOffset=0mil|YOffset=0mil|HoleType=Round|Shape=RoundedRectangle|*
%AMROUNDEDRECTD75*
21,1,0.03937,0.03150,0,0,270.0*
21,1,0.00000,0.07087,0,0,270.0*
1,1,0.03937,-0.01575,0.00000*
1,1,0.03937,-0.01575,0.00000*
1,1,0.03937,0.01575,0.00000*
1,1,0.03937,0.01575,0.00000*
%
%ADD75ROUNDEDRECTD75*%
%ADD78C,0.00600*%
%ADD79C,0.01000*%
%ADD83C,0.02362*%
G36*
X141184Y446910D02*
X141081Y447010D01*
X140979Y447099D01*
X140876Y447178D01*
X140775Y447247D01*
X140674Y447304D01*
X140574Y447352D01*
X140473Y447389D01*
X140374Y447415D01*
X140275Y447431D01*
X140176Y447436D01*
Y448036D01*
X140275Y448041D01*
X140374Y448057D01*
X140473Y448084D01*
X140574Y448120D01*
X140674Y448168D01*
X140775Y448226D01*
X140876Y448294D01*
X140979Y448373D01*
X141081Y448463D01*
X141184Y448563D01*
Y446910D01*
D02*
G37*
G36*
X174000Y420228D02*
X173538Y420036D01*
X155596Y437978D01*
X155332Y438155D01*
X155020Y438217D01*
X155020Y438217D01*
X141346D01*
X141286Y438324D01*
X141193Y438717D01*
X141332Y438856D01*
X141428Y438897D01*
X141473Y438943D01*
X141501Y438966D01*
X141532Y438987D01*
X141569Y439007D01*
X141613Y439026D01*
X141665Y439042D01*
X141725Y439057D01*
X141795Y439068D01*
X141874Y439075D01*
X141978Y439078D01*
X141985Y439081D01*
X141992Y439078D01*
X142035Y439099D01*
X155817D01*
X157581Y437335D01*
X157912Y437114D01*
X158302Y437036D01*
X158428D01*
X158435Y437031D01*
X158470Y437036D01*
X158503D01*
X158551Y437015D01*
X158653Y437012D01*
X158727Y437004D01*
X158788Y436993D01*
X158837Y436980D01*
X158875Y436965D01*
X158904Y436951D01*
X158924Y436937D01*
X158940Y436924D01*
X158954Y436909D01*
X158985Y436864D01*
X159004Y436852D01*
X159008Y436843D01*
X159481Y436370D01*
X160099Y436114D01*
X160767D01*
X161385Y436370D01*
X161858Y436843D01*
X162114Y437461D01*
Y438130D01*
X161858Y438748D01*
X161385Y439220D01*
X160767Y439476D01*
X160099D01*
X159583Y439263D01*
X159517Y439254D01*
X159460Y439220D01*
X159415Y439198D01*
X159365Y439177D01*
X159308Y439158D01*
X159244Y439141D01*
X159173Y439126D01*
X159102Y439115D01*
X158913Y439099D01*
X158810Y439097D01*
X158761Y439076D01*
X158725D01*
X156960Y440840D01*
X156630Y441061D01*
X156239Y441138D01*
X141968D01*
X141920Y441160D01*
X141815Y441162D01*
X141732Y441169D01*
X141657Y441180D01*
X141590Y441194D01*
X141531Y441211D01*
X141478Y441230D01*
X141433Y441251D01*
X141393Y441274D01*
X141357Y441299D01*
X141306Y441342D01*
X141227Y441367D01*
X141110Y441484D01*
X140492Y441740D01*
X139823D01*
X139205Y441484D01*
X139038Y441317D01*
X138946Y441283D01*
X138898Y441238D01*
X138866Y441214D01*
X138830Y441192D01*
X138789Y441171D01*
X138741Y441152D01*
X138686Y441135D01*
X138622Y441121D01*
X138549Y441110D01*
X138468Y441103D01*
X138364Y441100D01*
X138316Y441079D01*
X131861D01*
X131813Y441100D01*
X131709Y441103D01*
X131628Y441110D01*
X131555Y441121D01*
X131492Y441135D01*
X131436Y441152D01*
X131388Y441171D01*
X131347Y441192D01*
X131311Y441214D01*
X131279Y441238D01*
X131231Y441283D01*
X131140Y441317D01*
X130972Y441484D01*
X130354Y441740D01*
X129685D01*
X129067Y441484D01*
X128595Y441011D01*
X128339Y440393D01*
Y439725D01*
X128595Y439107D01*
X129067Y438634D01*
X129186Y438585D01*
X129211Y438033D01*
X129129Y437978D01*
X129128Y437978D01*
X125801Y434651D01*
X125624Y434386D01*
X125562Y434074D01*
X125562Y434074D01*
Y431392D01*
X125537Y431339D01*
X125430Y431240D01*
X124982Y431418D01*
X124930Y431481D01*
Y439426D01*
X129865Y444361D01*
X131139D01*
X131191Y444337D01*
X131261Y444333D01*
X131305Y444326D01*
X131354Y444313D01*
X131407Y444293D01*
X131467Y444265D01*
X131532Y444228D01*
X131603Y444180D01*
X131678Y444122D01*
X131757Y444052D01*
X131850Y443962D01*
X131947Y443924D01*
X132119Y443752D01*
X132737Y443496D01*
X133405D01*
X134023Y443752D01*
X134496Y444225D01*
X134752Y444843D01*
Y445512D01*
X134496Y446129D01*
X134205Y446421D01*
X134412Y446921D01*
X140096D01*
X140148Y446896D01*
X140218Y446892D01*
X140262Y446885D01*
X140310Y446872D01*
X140364Y446852D01*
X140424Y446824D01*
X140489Y446787D01*
X140559Y446739D01*
X140635Y446681D01*
X140714Y446611D01*
X140807Y446521D01*
X140903Y446483D01*
X141075Y446311D01*
X141693Y446055D01*
X142362D01*
X142980Y446311D01*
X143453Y446784D01*
X143709Y447402D01*
Y448071D01*
X143453Y448689D01*
X142980Y449161D01*
X142362Y449417D01*
X141693D01*
X141075Y449161D01*
X140903Y448989D01*
X140807Y448951D01*
X140714Y448861D01*
X140635Y448792D01*
X140559Y448733D01*
X140489Y448686D01*
X140424Y448648D01*
X140364Y448620D01*
X140310Y448600D01*
X140262Y448587D01*
X140218Y448580D01*
X140148Y448577D01*
X140096Y448552D01*
X129232D01*
X128920Y448490D01*
X128656Y448313D01*
X128656Y448313D01*
X121766Y441423D01*
X121589Y441159D01*
X121527Y440846D01*
X121527Y440846D01*
Y422906D01*
X121527Y422906D01*
X121589Y422594D01*
X121766Y422330D01*
X129015Y415080D01*
X129015Y415080D01*
X129280Y414903D01*
X129592Y414841D01*
X129592Y414841D01*
X133415D01*
X138096Y410160D01*
Y406178D01*
X117238Y385321D01*
X117169Y385218D01*
X116669Y385369D01*
Y400660D01*
X118218Y402209D01*
X118267Y402228D01*
X118343Y402300D01*
X118405Y402352D01*
X118464Y402396D01*
X118519Y402431D01*
X118570Y402458D01*
X118618Y402478D01*
X118662Y402493D01*
X118703Y402503D01*
X118743Y402508D01*
X118808Y402510D01*
X118897Y402551D01*
X119134D01*
X119752Y402807D01*
X120224Y403280D01*
X120480Y403898D01*
Y404567D01*
X120224Y405185D01*
X119752Y405657D01*
X119134Y405913D01*
X118465D01*
X117847Y405657D01*
X117374Y405185D01*
X117118Y404567D01*
Y404330D01*
X117077Y404241D01*
X117075Y404176D01*
X117069Y404136D01*
X117060Y404095D01*
X117045Y404051D01*
X117025Y404003D01*
X116998Y403952D01*
X116963Y403897D01*
X116919Y403838D01*
X116867Y403776D01*
X116795Y403700D01*
X116776Y403651D01*
X114929Y401804D01*
X114708Y401473D01*
X114630Y401083D01*
Y380847D01*
X114130Y380696D01*
X113984Y380913D01*
X113168Y381459D01*
X112205Y381651D01*
X110092D01*
Y379134D01*
Y376617D01*
X112205D01*
X113168Y376809D01*
X113984Y377354D01*
X114130Y377572D01*
X114630Y377420D01*
Y346832D01*
X114130Y346680D01*
X113984Y346898D01*
X113168Y347443D01*
X112205Y347635D01*
X110092D01*
Y345118D01*
Y342601D01*
X112205D01*
X113168Y342793D01*
X113984Y343338D01*
X114280Y343781D01*
X114868Y343760D01*
X114929Y343669D01*
X119062Y339535D01*
X119393Y339314D01*
X119783Y339236D01*
X127137D01*
X128891Y337482D01*
X128909Y337434D01*
X129029Y337305D01*
X129123Y337187D01*
X129205Y337066D01*
X129276Y336943D01*
X129335Y336816D01*
X129383Y336684D01*
X129421Y336547D01*
X129448Y336404D01*
X129465Y336253D01*
X129471Y336077D01*
X129478Y336062D01*
X129473Y336046D01*
X129492Y336009D01*
Y335995D01*
X129471Y335947D01*
X129468Y335843D01*
X129461Y335762D01*
X129450Y335689D01*
X129436Y335626D01*
X129419Y335570D01*
X129400Y335522D01*
X129379Y335481D01*
X129357Y335445D01*
X129332Y335413D01*
X129288Y335365D01*
X129254Y335273D01*
X129087Y335106D01*
X128831Y334488D01*
Y333819D01*
X129087Y333201D01*
X129254Y333034D01*
X129288Y332942D01*
X129332Y332894D01*
X129357Y332862D01*
X129379Y332826D01*
X129400Y332785D01*
X129419Y332737D01*
X129436Y332681D01*
X129450Y332618D01*
X129461Y332545D01*
X129468Y332464D01*
X129471Y332360D01*
X129492Y332312D01*
Y315284D01*
X115443Y301236D01*
X115394Y301217D01*
X115319Y301145D01*
X115256Y301093D01*
X115197Y301049D01*
X115142Y301014D01*
X115091Y300987D01*
X115044Y300967D01*
X114999Y300952D01*
X114958Y300942D01*
X114919Y300937D01*
X114853Y300935D01*
X114765Y300894D01*
X114528D01*
X113910Y300638D01*
X113437Y300165D01*
X113181Y299547D01*
Y299310D01*
X113140Y299221D01*
X113138Y299156D01*
X113133Y299116D01*
X113123Y299075D01*
X113108Y299031D01*
X113088Y298984D01*
X113060Y298933D01*
X113025Y298877D01*
X112982Y298818D01*
X112930Y298756D01*
X112858Y298680D01*
X112839Y298632D01*
X103905Y289697D01*
X103684Y289367D01*
X103606Y288976D01*
Y249384D01*
X103684Y248994D01*
X103905Y248663D01*
X104739Y247830D01*
X104740Y247821D01*
X104768Y247800D01*
X104792Y247777D01*
X104810Y247728D01*
X104880Y247653D01*
X104927Y247596D01*
X104963Y247545D01*
X104988Y247501D01*
X105005Y247463D01*
X105014Y247433D01*
X105019Y247409D01*
X105021Y247388D01*
X105020Y247368D01*
X105010Y247314D01*
X105015Y247292D01*
X105012Y247283D01*
Y246614D01*
X105268Y245997D01*
X105741Y245524D01*
X106359Y245268D01*
X106595D01*
X106684Y245227D01*
X106749Y245224D01*
X106789Y245219D01*
X106830Y245210D01*
X106874Y245195D01*
X106922Y245175D01*
X106973Y245147D01*
X107028Y245112D01*
X107087Y245069D01*
X107149Y245016D01*
X107225Y244945D01*
X107274Y244926D01*
X124476Y227724D01*
X124807Y227503D01*
X125197Y227425D01*
X144291D01*
X144682Y227503D01*
X145012Y227724D01*
X149343Y232055D01*
X149564Y232385D01*
X149642Y232776D01*
Y245643D01*
X150142Y245850D01*
X151109Y244884D01*
X151128Y244830D01*
X151174Y244777D01*
X151201Y244741D01*
X151226Y244698D01*
X151250Y244646D01*
X151272Y244584D01*
X151292Y244511D01*
X151308Y244428D01*
X151320Y244333D01*
X151327Y244228D01*
X151329Y244098D01*
X151370Y244003D01*
Y243760D01*
X151626Y243142D01*
X152099Y242669D01*
X152717Y242413D01*
X153386D01*
X154003Y242669D01*
X154476Y243142D01*
X154732Y243760D01*
Y244429D01*
X154476Y245047D01*
X154003Y245520D01*
X153386Y245776D01*
X153142D01*
X153047Y245817D01*
X152918Y245818D01*
X152812Y245826D01*
X152718Y245838D01*
X152634Y245854D01*
X152562Y245873D01*
X152500Y245896D01*
X152448Y245920D01*
X152404Y245945D01*
X152368Y245971D01*
X152316Y246018D01*
X152262Y246037D01*
X150987Y247312D01*
Y255143D01*
X151487Y255350D01*
X151812Y255026D01*
X152429Y254770D01*
X153098D01*
X153218Y254820D01*
X153634Y254542D01*
Y254390D01*
X153890Y253772D01*
X154363Y253299D01*
X154981Y253043D01*
X155649D01*
X155731Y253077D01*
X155853Y253029D01*
X156193Y252727D01*
Y252225D01*
X156449Y251607D01*
X156922Y251134D01*
X157483Y250902D01*
X157343Y250402D01*
X156725Y250146D01*
X156252Y249673D01*
X155996Y249055D01*
Y248386D01*
X156252Y247768D01*
X156725Y247295D01*
X156978Y247191D01*
Y246649D01*
X156626Y246504D01*
X156154Y246031D01*
X155898Y245413D01*
Y244744D01*
X156154Y244127D01*
X156626Y243654D01*
X157244Y243398D01*
X157913D01*
X158531Y243654D01*
X159004Y244127D01*
X159260Y244744D01*
Y244988D01*
X159301Y245083D01*
X159303Y245212D01*
X159310Y245318D01*
X159322Y245412D01*
X159338Y245496D01*
X159358Y245568D01*
X159380Y245630D01*
X159404Y245682D01*
X159429Y245725D01*
X159455Y245761D01*
X159502Y245814D01*
X159521Y245868D01*
X163864Y250211D01*
X164041Y250475D01*
X164103Y250787D01*
X164103Y250787D01*
Y335095D01*
X173538Y344531D01*
X174000Y344339D01*
X174000Y217437D01*
X100803Y217437D01*
Y456693D01*
X174000D01*
X174000Y420228D01*
D02*
G37*
G36*
X132227Y444350D02*
X132124Y444451D01*
X132022Y444540D01*
X131920Y444619D01*
X131818Y444688D01*
X131717Y444745D01*
X131617Y444793D01*
X131517Y444830D01*
X131417Y444856D01*
X131318Y444872D01*
X131220Y444877D01*
Y445477D01*
X131318Y445482D01*
X131417Y445498D01*
X131517Y445525D01*
X131617Y445561D01*
X131717Y445609D01*
X131818Y445667D01*
X131920Y445735D01*
X132022Y445814D01*
X132124Y445904D01*
X132227Y446004D01*
Y444350D01*
D02*
G37*
G36*
X141028Y440869D02*
X141103Y440816D01*
X141184Y440770D01*
X141270Y440730D01*
X141363Y440696D01*
X141460Y440668D01*
X141563Y440647D01*
X141672Y440631D01*
X141786Y440622D01*
X141906Y440619D01*
X141962Y439619D01*
X141842Y439615D01*
X141728Y439605D01*
X141620Y439588D01*
X141519Y439564D01*
X141424Y439533D01*
X141335Y439495D01*
X141252Y439451D01*
X141176Y439399D01*
X141105Y439341D01*
X141042Y439276D01*
X140958Y440927D01*
X141028Y440869D01*
D02*
G37*
G36*
X139314Y439232D02*
X139247Y439294D01*
X139174Y439350D01*
X139095Y439399D01*
X139011Y439441D01*
X138920Y439477D01*
X138824Y439507D01*
X138721Y439530D01*
X138613Y439546D01*
X138499Y439556D01*
X138379Y439559D01*
Y440559D01*
X138499Y440562D01*
X138613Y440572D01*
X138721Y440589D01*
X138824Y440611D01*
X138920Y440641D01*
X139011Y440677D01*
X139095Y440719D01*
X139174Y440768D01*
X139247Y440824D01*
X139314Y440886D01*
Y439232D01*
D02*
G37*
G36*
X130930Y440824D02*
X131003Y440768D01*
X131082Y440719D01*
X131167Y440677D01*
X131257Y440641D01*
X131354Y440611D01*
X131456Y440589D01*
X131564Y440572D01*
X131678Y440562D01*
X131798Y440559D01*
Y439559D01*
X131678Y439556D01*
X131564Y439546D01*
X131456Y439530D01*
X131354Y439507D01*
X131257Y439477D01*
X131167Y439441D01*
X131082Y439399D01*
X131003Y439350D01*
X130930Y439294D01*
X130863Y439232D01*
Y440886D01*
X130930Y440824D01*
D02*
G37*
G36*
X159428Y437175D02*
X159377Y437247D01*
X159318Y437312D01*
X159252Y437369D01*
X159177Y437419D01*
X159095Y437461D01*
X159005Y437495D01*
X158908Y437522D01*
X158802Y437541D01*
X158689Y437552D01*
X158568Y437556D01*
X158821Y438556D01*
X158941Y438558D01*
X159166Y438577D01*
X159270Y438593D01*
X159370Y438614D01*
X159465Y438639D01*
X159554Y438669D01*
X159639Y438704D01*
X159718Y438744D01*
X159793Y438788D01*
X159428Y437175D01*
D02*
G37*
G36*
X133820Y435957D02*
X133923Y435867D01*
X134025Y435788D01*
X134126Y435719D01*
X134228Y435662D01*
X134328Y435614D01*
X134428Y435577D01*
X134528Y435551D01*
X134626Y435535D01*
X134725Y435530D01*
Y434930D01*
X134626Y434925D01*
X134528Y434909D01*
X134428Y434882D01*
X134328Y434846D01*
X134228Y434798D01*
X134126Y434740D01*
X134025Y434672D01*
X133923Y434593D01*
X133820Y434503D01*
X133718Y434403D01*
Y436057D01*
X133820Y435957D01*
D02*
G37*
G36*
X137615Y433975D02*
X137716Y433885D01*
X137817Y433805D01*
X137917Y433736D01*
X138017Y433678D01*
X138117Y433630D01*
X138217Y433593D01*
X138316Y433566D01*
X138415Y433550D01*
X138514Y433545D01*
X138505Y432945D01*
X138407Y432940D01*
X138308Y432924D01*
X138209Y432898D01*
X138108Y432861D01*
X138007Y432814D01*
X137905Y432757D01*
X137803Y432689D01*
X137699Y432611D01*
X137595Y432522D01*
X137490Y432423D01*
X137514Y434076D01*
X137615Y433975D01*
D02*
G37*
G36*
X131409Y436086D02*
X131193Y435564D01*
Y434896D01*
X131449Y434278D01*
X131922Y433805D01*
X132540Y433549D01*
X133208D01*
X133826Y433805D01*
X133998Y433977D01*
X134095Y434015D01*
X134187Y434105D01*
X134267Y434175D01*
X134343Y434233D01*
X134384Y434261D01*
X134826Y434284D01*
X135093Y433876D01*
X134978Y433596D01*
Y432927D01*
X135111Y432605D01*
X134882Y432082D01*
X134562Y431961D01*
X134492Y431965D01*
X134448Y431972D01*
X134400Y431985D01*
X134346Y432005D01*
X134286Y432033D01*
X134221Y432070D01*
X134151Y432118D01*
X134075Y432176D01*
X133996Y432246D01*
X133903Y432336D01*
X133807Y432374D01*
X133635Y432546D01*
X133017Y432802D01*
X132348D01*
X131730Y432546D01*
X131257Y432073D01*
X131001Y431455D01*
Y430787D01*
X131257Y430169D01*
X131730Y429696D01*
X132348Y429440D01*
X133017D01*
X133635Y429696D01*
X133807Y429868D01*
X133903Y429906D01*
X133996Y429996D01*
X134075Y430066D01*
X134151Y430124D01*
X134221Y430172D01*
X134286Y430209D01*
X134346Y430237D01*
X134400Y430257D01*
X134448Y430270D01*
X134492Y430277D01*
X134562Y430280D01*
X134614Y430305D01*
X154762D01*
X163137Y421930D01*
X162930Y421430D01*
X139170D01*
X129675Y430924D01*
Y431762D01*
X129694Y431793D01*
X129688Y431821D01*
X129700Y431847D01*
X129704Y431918D01*
X129711Y431957D01*
X129722Y431997D01*
X129739Y432038D01*
X129764Y432083D01*
X129797Y432132D01*
X129841Y432185D01*
X129896Y432242D01*
X129964Y432302D01*
X130058Y432374D01*
X130099Y432446D01*
X130461Y432808D01*
X130717Y433426D01*
Y434094D01*
X130461Y434712D01*
X129988Y435185D01*
X129536Y435372D01*
X129360Y435903D01*
X130043Y436586D01*
X131199D01*
X131409Y436086D01*
D02*
G37*
G36*
X129727Y432803D02*
X129620Y432720D01*
X129523Y432634D01*
X129438Y432547D01*
X129364Y432457D01*
X129302Y432366D01*
X129250Y432272D01*
X129211Y432176D01*
X129182Y432079D01*
X129165Y431979D01*
X129160Y431877D01*
X128560Y431970D01*
X128555Y432064D01*
X128541Y432160D01*
X128517Y432260D01*
X128485Y432363D01*
X128443Y432469D01*
X128391Y432579D01*
X128331Y432691D01*
X128181Y432927D01*
X128092Y433049D01*
X129727Y432803D01*
D02*
G37*
G36*
X133629Y431848D02*
X133731Y431758D01*
X133833Y431679D01*
X133935Y431610D01*
X134036Y431553D01*
X134136Y431505D01*
X134236Y431468D01*
X134336Y431442D01*
X134435Y431426D01*
X134533Y431421D01*
Y430821D01*
X134435Y430816D01*
X134336Y430800D01*
X134236Y430773D01*
X134136Y430737D01*
X134036Y430689D01*
X133935Y430631D01*
X133833Y430563D01*
X133731Y430484D01*
X133629Y430394D01*
X133526Y430294D01*
Y431948D01*
X133629Y431848D01*
D02*
G37*
G36*
X126684Y431378D02*
X126701Y431278D01*
X126731Y431182D01*
X126772Y431090D01*
X126824Y431002D01*
X126889Y430918D01*
X126965Y430838D01*
X127053Y430762D01*
X127153Y430690D01*
X127264Y430622D01*
X125668Y430192D01*
X125746Y430328D01*
X125930Y430706D01*
X125975Y430821D01*
X126041Y431034D01*
X126061Y431133D01*
X126074Y431226D01*
X126078Y431314D01*
X126678Y431482D01*
X126684Y431378D01*
D02*
G37*
G36*
X138173Y420120D02*
X138098Y419798D01*
X137980Y419620D01*
X132671D01*
X132625Y419643D01*
X132617Y419641D01*
X132610Y419644D01*
X132539Y419648D01*
X132498Y419655D01*
X132454Y419667D01*
X132406Y419686D01*
X132355Y419712D01*
X132298Y419748D01*
X132237Y419794D01*
X132171Y419852D01*
X132102Y419921D01*
X132021Y420013D01*
X131923Y420061D01*
X131661Y420323D01*
X131043Y420579D01*
X130374D01*
X129756Y420323D01*
X129283Y419850D01*
X129146Y419519D01*
X128566Y419392D01*
X124930Y423028D01*
Y428264D01*
X125430Y428471D01*
X125733Y428167D01*
X126351Y427912D01*
X127020D01*
X127638Y428167D01*
X128111Y428640D01*
X128367Y429258D01*
Y429273D01*
X128829Y429464D01*
X138173Y420120D01*
D02*
G37*
G36*
X131708Y419550D02*
X131801Y419457D01*
X131895Y419374D01*
X131990Y419302D01*
X132087Y419242D01*
X132184Y419192D01*
X132281Y419153D01*
X132380Y419126D01*
X132480Y419109D01*
X132580Y419104D01*
X132531Y418504D01*
X132435Y418499D01*
X132337Y418484D01*
X132237Y418459D01*
X132135Y418424D01*
X132032Y418380D01*
X131926Y418325D01*
X131818Y418260D01*
X131709Y418186D01*
X131484Y418007D01*
X131615Y419655D01*
X131708Y419550D01*
D02*
G37*
G36*
X167688Y413146D02*
Y409332D01*
X167188Y408998D01*
X166979Y409085D01*
X166310D01*
X166301Y409081D01*
X166279Y409086D01*
X166225Y409077D01*
X166205Y409076D01*
X166184Y409077D01*
X166160Y409082D01*
X166130Y409092D01*
X166093Y409109D01*
X166049Y409134D01*
X165997Y409170D01*
X165940Y409216D01*
X165865Y409286D01*
X165817Y409305D01*
X165793Y409329D01*
X165772Y409357D01*
X165763Y409358D01*
X165345Y409776D01*
X165015Y409997D01*
X164624Y410075D01*
X148228D01*
X147838Y409997D01*
X147507Y409776D01*
X136484Y398752D01*
X130381Y392650D01*
X130160Y392319D01*
X130083Y391929D01*
Y379683D01*
X129583Y379634D01*
X129491Y380097D01*
X128945Y380913D01*
X128129Y381459D01*
X127165Y381651D01*
X125841D01*
Y379134D01*
Y376617D01*
X127165D01*
X128129Y376809D01*
X128945Y377354D01*
X129491Y378171D01*
X129583Y378634D01*
X130083Y378585D01*
Y377292D01*
X121523Y368733D01*
X121302Y368402D01*
X121224Y368012D01*
Y358366D01*
X121302Y357976D01*
X121523Y357645D01*
X124082Y355086D01*
X124413Y354865D01*
X124803Y354787D01*
X131299D01*
X131689Y354865D01*
X132020Y355086D01*
X138126Y361192D01*
X138921Y360579D01*
X138953Y360080D01*
X129791Y350918D01*
X129570Y350587D01*
X129492Y350197D01*
Y346979D01*
X128992Y346827D01*
X128945Y346898D01*
X128129Y347443D01*
X127165Y347635D01*
X125841D01*
Y345118D01*
Y342601D01*
X127165D01*
X128129Y342793D01*
X128945Y343338D01*
X128992Y343409D01*
X129492Y343257D01*
Y340418D01*
X129030Y340227D01*
X128280Y340977D01*
X127949Y341198D01*
X127559Y341276D01*
X120206D01*
X116669Y344812D01*
Y347706D01*
X116744Y347751D01*
X117169Y347859D01*
X117552Y347477D01*
X118170Y347221D01*
X118838D01*
X119456Y347477D01*
X119929Y347950D01*
X120185Y348568D01*
Y349236D01*
X119929Y349854D01*
X119456Y350327D01*
X118838Y350583D01*
X118758Y350695D01*
X118631Y351046D01*
Y352313D01*
X119093Y352505D01*
X121155Y350442D01*
X121166Y350402D01*
X121185Y350391D01*
X121192Y350370D01*
X121240Y350317D01*
X121264Y350284D01*
X121284Y350247D01*
X121302Y350203D01*
X121318Y350152D01*
X121330Y350092D01*
X121338Y350021D01*
X121340Y349939D01*
X121336Y349846D01*
X121323Y349727D01*
X121350Y349635D01*
Y349173D01*
X121606Y348556D01*
X122079Y348083D01*
X122697Y347827D01*
X122726D01*
X122878Y347327D01*
X122236Y346898D01*
X121690Y346081D01*
X121549Y345368D01*
X125341D01*
Y347635D01*
X124189D01*
X124072Y347890D01*
X124036Y348135D01*
X124457Y348556D01*
X124713Y349173D01*
Y349842D01*
X124457Y350460D01*
X123984Y350933D01*
X123366Y351189D01*
X123291D01*
X123243Y351217D01*
X123111Y351235D01*
X122877Y351283D01*
X122790Y351307D01*
X122707Y351336D01*
X122637Y351366D01*
X122577Y351396D01*
X122528Y351426D01*
X122490Y351455D01*
X122439Y351501D01*
X122384Y351520D01*
X119910Y353994D01*
Y383520D01*
X140734Y404345D01*
X140734Y404345D01*
X140911Y404609D01*
X140973Y404921D01*
X140973Y404921D01*
Y410925D01*
X140973Y410925D01*
X140911Y411237D01*
X140734Y411502D01*
X140734Y411502D01*
X134902Y417334D01*
X134671Y417488D01*
X134666Y417525D01*
X134961Y417988D01*
X162846D01*
X167688Y413146D01*
D02*
G37*
G36*
X165583Y408809D02*
X165671Y408737D01*
X165759Y408676D01*
X165847Y408626D01*
X165935Y408586D01*
X166023Y408558D01*
X166110Y408540D01*
X166198Y408534D01*
X166285Y408538D01*
X166372Y408553D01*
X165490Y407155D01*
X165468Y407238D01*
X165440Y407323D01*
X165405Y407407D01*
X165363Y407492D01*
X165314Y407577D01*
X165258Y407662D01*
X165196Y407747D01*
X165050Y407920D01*
X164966Y408006D01*
X165495Y408892D01*
X165583Y408809D01*
D02*
G37*
G36*
X118787Y403051D02*
X118696Y403048D01*
X118605Y403035D01*
X118515Y403014D01*
X118425Y402985D01*
X118335Y402946D01*
X118246Y402899D01*
X118158Y402842D01*
X118070Y402777D01*
X117982Y402704D01*
X117895Y402621D01*
X117188Y403328D01*
X117271Y403415D01*
X117344Y403503D01*
X117409Y403591D01*
X117465Y403680D01*
X117513Y403769D01*
X117552Y403858D01*
X117581Y403948D01*
X117602Y404038D01*
X117615Y404129D01*
X117618Y404220D01*
X118787Y403051D01*
D02*
G37*
G36*
X162149Y397205D02*
X162082Y397267D01*
X162009Y397322D01*
X161930Y397371D01*
X161845Y397414D01*
X161755Y397450D01*
X161658Y397479D01*
X161556Y397502D01*
X161448Y397518D01*
X161334Y397528D01*
X161213Y397532D01*
Y398532D01*
X161334Y398535D01*
X161448Y398545D01*
X161556Y398561D01*
X161658Y398584D01*
X161755Y398613D01*
X161845Y398649D01*
X161930Y398692D01*
X162009Y398741D01*
X162082Y398796D01*
X162149Y398858D01*
Y397205D01*
D02*
G37*
G36*
X138995Y399104D02*
X138904Y398984D01*
X138848Y398878D01*
X138826Y398786D01*
X138839Y398708D01*
X138885Y398645D01*
X138965Y398595D01*
X139080Y398560D01*
X139229Y398539D01*
X139412Y398532D01*
X138412Y397532D01*
X138215Y397524D01*
X138024Y397503D01*
X137838Y397468D01*
X137659Y397418D01*
X137485Y397355D01*
X137317Y397277D01*
X137155Y397185D01*
X136999Y397079D01*
X136849Y396959D01*
X136705Y396824D01*
X137205Y398031D01*
X139119Y399239D01*
X138995Y399104D01*
D02*
G37*
G36*
X164557Y407681D02*
X164576Y407631D01*
X164648Y407557D01*
X164770Y407412D01*
X164813Y407354D01*
X164852Y407293D01*
X164885Y407236D01*
X164912Y407182D01*
X164933Y407132D01*
X164949Y407085D01*
X164966Y407020D01*
X165006Y406967D01*
X165219Y406452D01*
X165692Y405979D01*
X166310Y405723D01*
X166979D01*
X167188Y405809D01*
X167688Y405475D01*
Y349198D01*
X149595Y331104D01*
X149418Y330840D01*
X149356Y330527D01*
X149356Y330527D01*
Y247478D01*
X148856Y247271D01*
X145232Y250895D01*
X145213Y250944D01*
X145141Y251020D01*
X145089Y251082D01*
X145045Y251141D01*
X145010Y251196D01*
X144983Y251248D01*
X144963Y251295D01*
X144948Y251339D01*
X144938Y251380D01*
X144933Y251420D01*
X144931Y251485D01*
X144890Y251574D01*
Y251811D01*
X144634Y252429D01*
X144161Y252902D01*
X143543Y253157D01*
X142874D01*
X142256Y252902D01*
X141783Y252429D01*
X141528Y251811D01*
Y251142D01*
X141783Y250524D01*
X142256Y250051D01*
X142874Y249795D01*
X143111D01*
X143200Y249755D01*
X143265Y249752D01*
X143305Y249747D01*
X143346Y249737D01*
X143390Y249723D01*
X143437Y249702D01*
X143489Y249675D01*
X143544Y249640D01*
X143603Y249596D01*
X143665Y249544D01*
X143741Y249472D01*
X143790Y249453D01*
X147602Y245641D01*
Y233198D01*
X143869Y229465D01*
X125619D01*
X108716Y246368D01*
X108697Y246417D01*
X108625Y246493D01*
X108573Y246555D01*
X108530Y246614D01*
X108495Y246669D01*
X108467Y246720D01*
X108447Y246767D01*
X108432Y246812D01*
X108423Y246853D01*
X108417Y246892D01*
X108415Y246958D01*
X108374Y247046D01*
Y247283D01*
X108118Y247901D01*
X107645Y248374D01*
X107130Y248587D01*
X107076Y248628D01*
X107012Y248644D01*
X106965Y248660D01*
X106915Y248681D01*
X106861Y248708D01*
X106803Y248741D01*
X106743Y248780D01*
X106685Y248823D01*
X106540Y248945D01*
X106466Y249017D01*
X106416Y249036D01*
X105646Y249807D01*
Y288554D01*
X114281Y297190D01*
X114330Y297208D01*
X114406Y297280D01*
X114468Y297333D01*
X114527Y297376D01*
X114582Y297411D01*
X114634Y297438D01*
X114681Y297459D01*
X114725Y297473D01*
X114766Y297483D01*
X114806Y297488D01*
X114871Y297491D01*
X114960Y297532D01*
X115197D01*
X115814Y297787D01*
X116287Y298260D01*
X116543Y298878D01*
Y299115D01*
X116584Y299204D01*
X116586Y299269D01*
X116592Y299309D01*
X116602Y299350D01*
X116616Y299394D01*
X116637Y299441D01*
X116664Y299493D01*
X116699Y299548D01*
X116742Y299607D01*
X116795Y299669D01*
X116867Y299745D01*
X116885Y299794D01*
X131233Y314141D01*
X131454Y314472D01*
X131531Y314862D01*
Y332312D01*
X131553Y332360D01*
X131556Y332464D01*
X131563Y332545D01*
X131573Y332618D01*
X131588Y332681D01*
X131605Y332737D01*
X131624Y332785D01*
X131644Y332826D01*
X131667Y332862D01*
X131691Y332894D01*
X131736Y332942D01*
X131770Y333034D01*
X131937Y333201D01*
X132193Y333819D01*
Y334488D01*
X131937Y335106D01*
X131770Y335273D01*
X131736Y335365D01*
X131691Y335413D01*
X131667Y335445D01*
X131645Y335480D01*
X131624Y335522D01*
X131605Y335570D01*
X131588Y335626D01*
X131573Y335689D01*
X131563Y335762D01*
X131556Y335843D01*
X131553Y335947D01*
X131531Y335995D01*
Y337291D01*
X131551Y337354D01*
X131531Y337390D01*
Y349775D01*
X141452Y359695D01*
X144291D01*
X144674Y359854D01*
X144833Y360236D01*
Y374213D01*
X144674Y374595D01*
X144674Y374595D01*
X143159Y376110D01*
Y377756D01*
X143001Y378139D01*
X142618Y378297D01*
X137697D01*
X137314Y378139D01*
X137156Y377756D01*
Y363105D01*
X130877Y356827D01*
X125225D01*
X123264Y358788D01*
Y367589D01*
X131823Y376149D01*
X132044Y376480D01*
X132122Y376870D01*
Y391507D01*
X137025Y396410D01*
X137074Y396428D01*
X137203Y396549D01*
X137321Y396643D01*
X137442Y396725D01*
X137565Y396795D01*
X137692Y396854D01*
X137824Y396903D01*
X137961Y396940D01*
X138104Y396968D01*
X138254Y396984D01*
X138431Y396991D01*
X138478Y397012D01*
X161151D01*
X161199Y396990D01*
X161303Y396988D01*
X161384Y396981D01*
X161456Y396970D01*
X161520Y396955D01*
X161576Y396939D01*
X161624Y396919D01*
X161665Y396899D01*
X161701Y396876D01*
X161733Y396852D01*
X161781Y396808D01*
X161872Y396774D01*
X162040Y396606D01*
X162658Y396350D01*
X163327D01*
X163944Y396606D01*
X164417Y397079D01*
X164673Y397697D01*
Y398366D01*
X164417Y398984D01*
X163944Y399457D01*
X163327Y399713D01*
X162658D01*
X162040Y399457D01*
X161872Y399289D01*
X161781Y399255D01*
X161733Y399211D01*
X161701Y399187D01*
X161665Y399164D01*
X161624Y399144D01*
X161576Y399124D01*
X161520Y399108D01*
X161456Y399093D01*
X161384Y399082D01*
X161303Y399075D01*
X161199Y399073D01*
X161151Y399051D01*
X140320D01*
X140128Y399513D01*
X148651Y408036D01*
X164202D01*
X164557Y407681D01*
D02*
G37*
G36*
X142618Y375886D02*
X144291Y374213D01*
Y360236D01*
X140254D01*
X137697Y362205D01*
Y377756D01*
X142618D01*
Y375886D01*
D02*
G37*
G36*
X122146Y351036D02*
X122225Y350977D01*
X122312Y350924D01*
X122408Y350875D01*
X122513Y350830D01*
X122627Y350791D01*
X122750Y350756D01*
X123021Y350701D01*
X123169Y350681D01*
X121862Y349669D01*
X121876Y349806D01*
X121882Y349935D01*
X121878Y350059D01*
X121865Y350175D01*
X121843Y350284D01*
X121812Y350387D01*
X121772Y350483D01*
X121722Y350572D01*
X121663Y350655D01*
X121596Y350731D01*
X122076Y351099D01*
X122146Y351036D01*
D02*
G37*
G36*
X118121Y350617D02*
X118138Y350518D01*
X118166Y350428D01*
X118206Y350348D01*
X118257Y350277D01*
X118320Y350216D01*
X118394Y350165D01*
X118479Y350124D01*
X118575Y350092D01*
X118683Y350069D01*
X117361Y349200D01*
X117390Y349320D01*
X117459Y349703D01*
X117476Y349838D01*
X117513Y350416D01*
X117515Y350570D01*
X118115Y350726D01*
X118121Y350617D01*
D02*
G37*
G36*
X131012Y337303D02*
X130012Y336096D01*
X130005Y336293D01*
X129983Y336484D01*
X129948Y336670D01*
X129899Y336849D01*
X129835Y337023D01*
X129757Y337191D01*
X129665Y337352D01*
X129559Y337509D01*
X129439Y337659D01*
X129305Y337803D01*
Y339217D01*
X129439Y339093D01*
X129559Y339003D01*
X129665Y338947D01*
X129757Y338925D01*
X129835Y338937D01*
X129899Y338983D01*
X129948Y339064D01*
X129983Y339178D01*
X130005Y339327D01*
X130012Y339510D01*
X131012Y337303D01*
D02*
G37*
G36*
X131015Y335812D02*
X131025Y335698D01*
X131041Y335590D01*
X131064Y335487D01*
X131094Y335391D01*
X131129Y335300D01*
X131172Y335216D01*
X131221Y335137D01*
X131277Y335064D01*
X131339Y334997D01*
X129685D01*
X129747Y335064D01*
X129803Y335137D01*
X129852Y335216D01*
X129894Y335300D01*
X129930Y335391D01*
X129959Y335487D01*
X129982Y335590D01*
X129999Y335698D01*
X130008Y335812D01*
X130012Y335932D01*
X131012D01*
X131015Y335812D01*
D02*
G37*
G36*
X131277Y333243D02*
X131221Y333170D01*
X131172Y333091D01*
X131129Y333007D01*
X131094Y332916D01*
X131064Y332820D01*
X131041Y332717D01*
X131025Y332609D01*
X131015Y332495D01*
X131012Y332375D01*
X130012D01*
X130008Y332495D01*
X129999Y332609D01*
X129982Y332717D01*
X129959Y332820D01*
X129930Y332916D01*
X129894Y333007D01*
X129852Y333091D01*
X129803Y333170D01*
X129747Y333243D01*
X129685Y333310D01*
X131339D01*
X131277Y333243D01*
D02*
G37*
G36*
X116473Y300117D02*
X116391Y300030D01*
X116317Y299942D01*
X116252Y299854D01*
X116196Y299765D01*
X116148Y299676D01*
X116110Y299587D01*
X116080Y299497D01*
X116059Y299407D01*
X116047Y299316D01*
X116043Y299224D01*
X114874Y300394D01*
X114965Y300397D01*
X115056Y300409D01*
X115147Y300430D01*
X115236Y300460D01*
X115326Y300499D01*
X115415Y300546D01*
X115503Y300603D01*
X115592Y300668D01*
X115679Y300741D01*
X115766Y300824D01*
X116473Y300117D01*
D02*
G37*
G36*
X114850Y298032D02*
X114759Y298028D01*
X114668Y298016D01*
X114578Y297995D01*
X114488Y297965D01*
X114399Y297926D01*
X114310Y297879D01*
X114221Y297823D01*
X114133Y297758D01*
X114045Y297684D01*
X113958Y297601D01*
X113251Y298308D01*
X113333Y298396D01*
X113407Y298483D01*
X113472Y298571D01*
X113529Y298660D01*
X113576Y298749D01*
X113614Y298838D01*
X113644Y298928D01*
X113665Y299019D01*
X113678Y299110D01*
X113681Y299201D01*
X114850Y298032D01*
D02*
G37*
G36*
X154499Y331048D02*
Y258343D01*
X154464Y258306D01*
X153999Y258112D01*
X153892Y258210D01*
X153867Y258263D01*
Y331213D01*
X153999Y331307D01*
X154499Y331048D01*
D02*
G37*
G36*
X152235Y330785D02*
Y258488D01*
X152227Y258477D01*
X152235Y258422D01*
X152211Y258371D01*
X152207Y258299D01*
X152200Y258262D01*
X152190Y258229D01*
X152175Y258196D01*
X152155Y258161D01*
X152126Y258122D01*
X152087Y258080D01*
X152035Y258035D01*
X151971Y257987D01*
X151878Y257928D01*
X151854Y257894D01*
X151812Y257876D01*
X151487Y257552D01*
X150987Y257759D01*
Y330190D01*
X151774Y330976D01*
X152235Y330785D01*
D02*
G37*
G36*
X153351Y258185D02*
X153355Y258096D01*
X153368Y258002D01*
X153389Y257903D01*
X153418Y257799D01*
X153456Y257690D01*
X153557Y257456D01*
X153620Y257332D01*
X153771Y257068D01*
X152167Y257470D01*
X152278Y257541D01*
X152377Y257615D01*
X152465Y257693D01*
X152541Y257774D01*
X152605Y257859D01*
X152658Y257948D01*
X152699Y258041D01*
X152728Y258137D01*
X152745Y258237D01*
X152751Y258341D01*
X153351Y258185D01*
D02*
G37*
G36*
X157157Y332712D02*
Y255913D01*
X157050Y255853D01*
X156657Y255760D01*
X156568Y255849D01*
X156530Y255945D01*
X156440Y256038D01*
X156370Y256117D01*
X156312Y256193D01*
X156264Y256263D01*
X156227Y256329D01*
X156199Y256388D01*
X156179Y256442D01*
X156166Y256490D01*
X156159Y256534D01*
X156155Y256604D01*
X156131Y256656D01*
Y332339D01*
X156695Y332904D01*
X157157Y332712D01*
D02*
G37*
G36*
X155620Y256477D02*
X155636Y256378D01*
X155662Y256278D01*
X155699Y256178D01*
X155747Y256078D01*
X155805Y255977D01*
X155873Y255875D01*
X155952Y255773D01*
X156042Y255671D01*
X156142Y255568D01*
X154488D01*
X154588Y255671D01*
X154678Y255773D01*
X154757Y255875D01*
X154825Y255977D01*
X154883Y256078D01*
X154931Y256178D01*
X154968Y256278D01*
X154994Y256378D01*
X155010Y256477D01*
X155015Y256575D01*
X155615D01*
X155620Y256477D01*
D02*
G37*
G36*
X158272Y254380D02*
X158277Y254284D01*
X158292Y254186D01*
X158317Y254086D01*
X158352Y253984D01*
X158396Y253880D01*
X158451Y253774D01*
X158515Y253666D01*
X158590Y253556D01*
X158768Y253331D01*
X157120Y253468D01*
X157225Y253560D01*
X157319Y253653D01*
X157402Y253747D01*
X157474Y253842D01*
X157534Y253938D01*
X157584Y254035D01*
X157623Y254133D01*
X157650Y254231D01*
X157667Y254331D01*
X157672Y254432D01*
X158272Y254380D01*
D02*
G37*
G36*
X159913Y333598D02*
Y253337D01*
X159413Y253237D01*
X159299Y253511D01*
X159212Y253598D01*
X159193Y253666D01*
X159027Y253876D01*
X158972Y253957D01*
X158924Y254037D01*
X158886Y254111D01*
X158857Y254178D01*
X158837Y254239D01*
X158824Y254292D01*
X158817Y254338D01*
X158813Y254408D01*
X158788Y254460D01*
Y333127D01*
X159451Y333789D01*
X159913Y333598D01*
D02*
G37*
G36*
X144393Y251373D02*
X144405Y251283D01*
X144427Y251192D01*
X144456Y251102D01*
X144495Y251013D01*
X144542Y250924D01*
X144599Y250835D01*
X144664Y250747D01*
X144737Y250659D01*
X144820Y250572D01*
X144113Y249865D01*
X144026Y249948D01*
X143938Y250022D01*
X143850Y250086D01*
X143761Y250143D01*
X143672Y250190D01*
X143583Y250229D01*
X143493Y250258D01*
X143403Y250280D01*
X143312Y250292D01*
X143220Y250295D01*
X144390Y251465D01*
X144393Y251373D01*
D02*
G37*
G36*
X159198Y249817D02*
X159132Y249744D01*
X159073Y249663D01*
X159022Y249574D01*
X158977Y249477D01*
X158940Y249372D01*
X158909Y249260D01*
X158886Y249140D01*
X158870Y249012D01*
X158860Y248876D01*
X158858Y248732D01*
X157689Y249902D01*
X157833Y249904D01*
X157968Y249913D01*
X158096Y249929D01*
X158217Y249952D01*
X158329Y249983D01*
X158434Y250020D01*
X158530Y250065D01*
X158619Y250117D01*
X158701Y250176D01*
X158774Y250241D01*
X159198Y249817D01*
D02*
G37*
G36*
X162472Y334484D02*
Y251125D01*
X159858Y248512D01*
X159797Y248526D01*
X159493Y248678D01*
X159400Y248761D01*
X159401Y248854D01*
X159408Y248959D01*
X159420Y249054D01*
X159437Y249137D01*
X159456Y249210D01*
X159478Y249272D01*
X159502Y249324D01*
X159528Y249367D01*
X159554Y249403D01*
X159601Y249455D01*
X159620Y249510D01*
X161305Y251195D01*
X161482Y251460D01*
X161544Y251772D01*
X161544Y251772D01*
Y334209D01*
X162010Y334675D01*
X162472Y334484D01*
D02*
G37*
G36*
X106177Y248544D02*
X106349Y248398D01*
X106435Y248335D01*
X106520Y248279D01*
X106605Y248230D01*
X106690Y248188D01*
X106774Y248153D01*
X106858Y248125D01*
X106942Y248103D01*
X105544Y247221D01*
X105559Y247308D01*
X105563Y247395D01*
X105556Y247483D01*
X105539Y247570D01*
X105510Y247658D01*
X105471Y247746D01*
X105421Y247834D01*
X105360Y247922D01*
X105288Y248010D01*
X105205Y248098D01*
X106091Y248627D01*
X106177Y248544D01*
D02*
G37*
G36*
X107877Y246846D02*
X107890Y246755D01*
X107911Y246665D01*
X107941Y246575D01*
X107979Y246485D01*
X108027Y246396D01*
X108083Y246308D01*
X108148Y246219D01*
X108222Y246132D01*
X108304Y246045D01*
X107597Y245338D01*
X107510Y245420D01*
X107422Y245494D01*
X107334Y245559D01*
X107246Y245615D01*
X107157Y245662D01*
X107067Y245701D01*
X106977Y245731D01*
X106887Y245752D01*
X106796Y245764D01*
X106705Y245768D01*
X107874Y246937D01*
X107877Y246846D01*
D02*
G37*
G36*
X159100Y246176D02*
X159034Y246102D01*
X158975Y246021D01*
X158923Y245932D01*
X158879Y245835D01*
X158841Y245731D01*
X158811Y245618D01*
X158787Y245498D01*
X158771Y245370D01*
X158762Y245234D01*
X158760Y245091D01*
X157591Y246260D01*
X157734Y246262D01*
X157870Y246271D01*
X157998Y246287D01*
X158118Y246311D01*
X158231Y246341D01*
X158335Y246379D01*
X158432Y246423D01*
X158521Y246475D01*
X158602Y246534D01*
X158676Y246600D01*
X159100Y246176D01*
D02*
G37*
G36*
X152028Y245550D02*
X152109Y245491D01*
X152198Y245439D01*
X152295Y245394D01*
X152399Y245357D01*
X152512Y245326D01*
X152632Y245303D01*
X152760Y245287D01*
X152896Y245278D01*
X153039Y245275D01*
X151870Y244106D01*
X151868Y244250D01*
X151859Y244386D01*
X151843Y244514D01*
X151819Y244634D01*
X151789Y244746D01*
X151751Y244851D01*
X151707Y244948D01*
X151655Y245037D01*
X151596Y245118D01*
X151530Y245191D01*
X151954Y245616D01*
X152028Y245550D01*
D02*
G37*
%LPC*%
G36*
X171496Y437016D02*
X170827D01*
X170209Y436760D01*
X169736Y436287D01*
X169480Y435669D01*
Y435237D01*
X169450Y435140D01*
X169462Y435020D01*
X169464Y434925D01*
X169461Y434842D01*
X169452Y434770D01*
X169439Y434707D01*
X169423Y434655D01*
X169404Y434611D01*
X169383Y434573D01*
X169359Y434540D01*
X169312Y434486D01*
X169306Y434470D01*
X169291Y434461D01*
X169278Y434418D01*
X169207Y434346D01*
X169030Y434082D01*
X168968Y433770D01*
X168968Y433769D01*
Y430854D01*
X168968Y430854D01*
X169030Y430541D01*
X169207Y430277D01*
X169361Y430122D01*
Y428999D01*
X169337Y428947D01*
X169333Y428877D01*
X169326Y428833D01*
X169313Y428784D01*
X169293Y428730D01*
X169265Y428671D01*
X169228Y428606D01*
X169180Y428535D01*
X169122Y428460D01*
X169052Y428380D01*
X168962Y428288D01*
X168924Y428191D01*
X168752Y428019D01*
X168496Y427401D01*
Y426732D01*
X168752Y426115D01*
X169225Y425642D01*
X169843Y425386D01*
X170512D01*
X171129Y425642D01*
X171602Y426115D01*
X171858Y426732D01*
Y427401D01*
X171602Y428019D01*
X171430Y428191D01*
X171392Y428288D01*
X171302Y428380D01*
X171232Y428460D01*
X171174Y428535D01*
X171126Y428606D01*
X171089Y428671D01*
X171061Y428730D01*
X171041Y428784D01*
X171028Y428833D01*
X171021Y428877D01*
X171018Y428947D01*
X170993Y428999D01*
Y430460D01*
X170993Y430460D01*
X170931Y430772D01*
X170754Y431037D01*
X170599Y431191D01*
Y433392D01*
X170603Y433395D01*
X170641Y433424D01*
X170689Y433453D01*
X170748Y433482D01*
X170818Y433511D01*
X170899Y433539D01*
X170985Y433562D01*
X171218Y433607D01*
X171348Y433623D01*
X171403Y433653D01*
X171496D01*
X172114Y433910D01*
X172587Y434382D01*
X172843Y435000D01*
Y435669D01*
X172587Y436287D01*
X172114Y436760D01*
X171496Y437016D01*
D02*
G37*
G36*
X109592Y381651D02*
X107480D01*
X106517Y381459D01*
X105701Y380913D01*
X105155Y380097D01*
X105013Y379384D01*
X109592D01*
Y381651D01*
D02*
G37*
G36*
Y378884D02*
X105013D01*
X105155Y378171D01*
X105701Y377354D01*
X106517Y376809D01*
X107480Y376617D01*
X109592D01*
Y378884D01*
D02*
G37*
G36*
X109592Y347635D02*
X107480D01*
X106517Y347443D01*
X105701Y346898D01*
X105155Y346081D01*
X105013Y345368D01*
X109592D01*
Y347635D01*
D02*
G37*
G36*
Y344868D02*
X105013D01*
X105155Y344155D01*
X105701Y343338D01*
X106517Y342793D01*
X107480Y342601D01*
X109592D01*
Y344868D01*
D02*
G37*
%LPD*%
G36*
X171282Y434160D02*
X171134Y434142D01*
X170863Y434090D01*
X170741Y434057D01*
X170628Y434018D01*
X170523Y433975D01*
X170426Y433926D01*
X170338Y433873D01*
X170259Y433814D01*
X170189Y433751D01*
X169715Y434125D01*
X169783Y434201D01*
X169842Y434283D01*
X169891Y434373D01*
X169932Y434469D01*
X169964Y434572D01*
X169987Y434682D01*
X170001Y434799D01*
X170006Y434923D01*
X170002Y435053D01*
X169989Y435191D01*
X171282Y434160D01*
D02*
G37*
G36*
X170482Y428820D02*
X170498Y428721D01*
X170525Y428621D01*
X170561Y428521D01*
X170609Y428420D01*
X170667Y428319D01*
X170735Y428218D01*
X170814Y428116D01*
X170904Y428013D01*
X171004Y427910D01*
X169350D01*
X169450Y428013D01*
X169540Y428116D01*
X169619Y428218D01*
X169687Y428319D01*
X169746Y428420D01*
X169793Y428521D01*
X169830Y428621D01*
X169856Y428721D01*
X169872Y428820D01*
X169877Y428918D01*
X170477D01*
X170482Y428820D01*
D02*
G37*
%LPC*%
G36*
X125341Y381651D02*
X124016D01*
X123053Y381459D01*
X122236Y380913D01*
X121690Y380097D01*
X121549Y379384D01*
X125341D01*
Y381651D01*
D02*
G37*
G36*
Y378884D02*
X121549D01*
X121690Y378171D01*
X122236Y377354D01*
X123053Y376809D01*
X124016Y376617D01*
X125341D01*
Y378884D01*
D02*
G37*
G36*
X125341Y344868D02*
X121549D01*
X121690Y344155D01*
X122236Y343338D01*
X123053Y342793D01*
X124016Y342601D01*
X125341D01*
Y344868D01*
D02*
G37*
G36*
X156437Y377665D02*
X155768D01*
X155150Y377409D01*
X154677Y376937D01*
X154421Y376319D01*
Y375650D01*
X154677Y375032D01*
X154849Y374860D01*
X154887Y374764D01*
X154978Y374671D01*
X155047Y374591D01*
X155105Y374516D01*
X155153Y374445D01*
X155191Y374380D01*
X155219Y374321D01*
X155238Y374267D01*
X155251Y374219D01*
X155258Y374174D01*
X155262Y374104D01*
X155287Y374053D01*
Y369826D01*
X151970Y366510D01*
X151916Y366491D01*
X151864Y366444D01*
X151828Y366417D01*
X151784Y366392D01*
X151732Y366368D01*
X151671Y366346D01*
X151598Y366326D01*
X151515Y366310D01*
X151420Y366298D01*
X151314Y366291D01*
X151185Y366289D01*
X151090Y366248D01*
X150847D01*
X150229Y365992D01*
X149756Y365519D01*
X149500Y364901D01*
Y364232D01*
X149756Y363615D01*
X150229Y363142D01*
X150847Y362886D01*
X151515D01*
X152133Y363142D01*
X152606Y363615D01*
X152862Y364232D01*
Y364476D01*
X152903Y364571D01*
X152905Y364700D01*
X152912Y364806D01*
X152924Y364900D01*
X152940Y364984D01*
X152960Y365056D01*
X152982Y365118D01*
X153006Y365170D01*
X153032Y365214D01*
X153058Y365250D01*
X153105Y365302D01*
X153124Y365356D01*
X156679Y368911D01*
X156679Y368911D01*
X156856Y369176D01*
X156918Y369488D01*
Y374053D01*
X156943Y374104D01*
X156947Y374174D01*
X156954Y374219D01*
X156966Y374267D01*
X156986Y374321D01*
X157014Y374380D01*
X157052Y374445D01*
X157099Y374516D01*
X157158Y374591D01*
X157227Y374671D01*
X157317Y374764D01*
X157356Y374860D01*
X157527Y375032D01*
X157783Y375650D01*
Y376319D01*
X157527Y376937D01*
X157055Y377409D01*
X156437Y377665D01*
D02*
G37*
G36*
X155157Y381701D02*
X154488D01*
X153871Y381445D01*
X153398Y380972D01*
X153142Y380354D01*
Y380117D01*
X153101Y380029D01*
X153098Y379963D01*
X153093Y379924D01*
X153084Y379882D01*
X153069Y379838D01*
X153049Y379791D01*
X153021Y379740D01*
X152986Y379684D01*
X152943Y379626D01*
X152890Y379563D01*
X152819Y379488D01*
X152800Y379439D01*
X147114Y373752D01*
X146893Y373422D01*
X146815Y373031D01*
Y350339D01*
X138030Y341554D01*
X137981Y341535D01*
X137906Y341464D01*
X137843Y341411D01*
X137784Y341368D01*
X137729Y341333D01*
X137678Y341305D01*
X137631Y341285D01*
X137586Y341270D01*
X137545Y341261D01*
X137506Y341255D01*
X137440Y341253D01*
X137352Y341212D01*
X137115D01*
X136497Y340956D01*
X136024Y340483D01*
X135768Y339866D01*
Y339197D01*
X136024Y338579D01*
X136497Y338106D01*
X137115Y337850D01*
X137784D01*
X138401Y338106D01*
X138874Y338579D01*
X139130Y339197D01*
Y339434D01*
X139171Y339522D01*
X139173Y339588D01*
X139179Y339627D01*
X139189Y339668D01*
X139203Y339713D01*
X139224Y339760D01*
X139251Y339811D01*
X139286Y339866D01*
X139329Y339925D01*
X139382Y339987D01*
X139453Y340063D01*
X139472Y340112D01*
X148556Y349196D01*
X148777Y349527D01*
X148854Y349917D01*
Y372609D01*
X154242Y377997D01*
X154291Y378015D01*
X154367Y378087D01*
X154429Y378140D01*
X154488Y378183D01*
X154543Y378218D01*
X154594Y378245D01*
X154641Y378266D01*
X154685Y378280D01*
X154727Y378290D01*
X154766Y378295D01*
X154832Y378298D01*
X154920Y378339D01*
X155157D01*
X155775Y378594D01*
X156248Y379067D01*
X156504Y379685D01*
Y380354D01*
X156248Y380972D01*
X155775Y381445D01*
X155157Y381701D01*
D02*
G37*
G36*
X145462Y288738D02*
X144793D01*
X144176Y288482D01*
X143703Y288009D01*
X143447Y287391D01*
Y287155D01*
X143406Y287066D01*
X143404Y287001D01*
X143398Y286961D01*
X143389Y286920D01*
X143374Y286876D01*
X143354Y286828D01*
X143326Y286777D01*
X143291Y286722D01*
X143248Y286663D01*
X143195Y286601D01*
X143124Y286525D01*
X143105Y286476D01*
X142586Y285957D01*
X142365Y285627D01*
X142288Y285236D01*
Y283436D01*
X142266Y283388D01*
X142263Y283284D01*
X142256Y283203D01*
X142245Y283130D01*
X142231Y283067D01*
X142214Y283011D01*
X142195Y282963D01*
X142174Y282922D01*
X142152Y282886D01*
X142128Y282854D01*
X142083Y282806D01*
X142050Y282714D01*
X141882Y282547D01*
X141626Y281929D01*
Y281260D01*
X141882Y280642D01*
X142355Y280169D01*
X142973Y279913D01*
X143641D01*
X144259Y280169D01*
X144732Y280642D01*
X144988Y281260D01*
Y281929D01*
X144732Y282547D01*
X144565Y282714D01*
X144531Y282806D01*
X144486Y282854D01*
X144462Y282886D01*
X144440Y282922D01*
X144419Y282963D01*
X144400Y283011D01*
X144383Y283067D01*
X144369Y283130D01*
X144358Y283203D01*
X144351Y283284D01*
X144348Y283388D01*
X144327Y283436D01*
Y284814D01*
X144547Y285034D01*
X144596Y285053D01*
X144672Y285124D01*
X144734Y285177D01*
X144793Y285220D01*
X144848Y285255D01*
X144899Y285283D01*
X144947Y285303D01*
X144991Y285318D01*
X145032Y285327D01*
X145071Y285333D01*
X145137Y285335D01*
X145225Y285376D01*
X145462D01*
X146080Y285632D01*
X146553Y286105D01*
X146809Y286723D01*
Y287391D01*
X146553Y288009D01*
X146080Y288482D01*
X145462Y288738D01*
D02*
G37*
G36*
X138425Y252961D02*
X137756D01*
X137138Y252705D01*
X136665Y252232D01*
X136409Y251614D01*
Y250945D01*
X136665Y250327D01*
X137138Y249854D01*
X137756Y249598D01*
X137999D01*
X138095Y249557D01*
X138224Y249555D01*
X138329Y249548D01*
X138424Y249536D01*
X138507Y249520D01*
X138580Y249500D01*
X138642Y249478D01*
X138694Y249454D01*
X138737Y249429D01*
X138773Y249403D01*
X138826Y249356D01*
X138880Y249337D01*
X142378Y245839D01*
Y234215D01*
X142353Y234163D01*
X142349Y234093D01*
X142342Y234049D01*
X142329Y234001D01*
X142309Y233947D01*
X142281Y233888D01*
X142244Y233822D01*
X142197Y233752D01*
X142138Y233677D01*
X142069Y233597D01*
X141978Y233504D01*
X141940Y233408D01*
X141768Y233236D01*
X141512Y232618D01*
Y231949D01*
X141768Y231331D01*
X142241Y230858D01*
X142859Y230602D01*
X143528D01*
X144146Y230858D01*
X144619Y231331D01*
X144875Y231949D01*
Y232618D01*
X144619Y233236D01*
X144447Y233408D01*
X144408Y233504D01*
X144318Y233597D01*
X144249Y233676D01*
X144190Y233752D01*
X144143Y233822D01*
X144105Y233888D01*
X144077Y233947D01*
X144058Y234001D01*
X144045Y234049D01*
X144038Y234093D01*
X144034Y234163D01*
X144009Y234215D01*
Y246177D01*
X144009Y246177D01*
X143947Y246489D01*
X143770Y246754D01*
X143770Y246754D01*
X140033Y250490D01*
X140014Y250545D01*
X139967Y250597D01*
X139941Y250633D01*
X139916Y250676D01*
X139892Y250728D01*
X139870Y250790D01*
X139850Y250863D01*
X139834Y250946D01*
X139822Y251041D01*
X139815Y251146D01*
X139813Y251275D01*
X139772Y251371D01*
Y251614D01*
X139516Y252232D01*
X139043Y252705D01*
X138425Y252961D01*
D02*
G37*
%LPD*%
G36*
X156829Y375038D02*
X156739Y374935D01*
X156660Y374833D01*
X156592Y374732D01*
X156534Y374631D01*
X156487Y374530D01*
X156450Y374430D01*
X156423Y374331D01*
X156408Y374232D01*
X156402Y374133D01*
X155802D01*
X155797Y374232D01*
X155781Y374331D01*
X155755Y374430D01*
X155718Y374530D01*
X155671Y374631D01*
X155613Y374732D01*
X155544Y374833D01*
X155465Y374935D01*
X155376Y375038D01*
X155276Y375141D01*
X156929D01*
X156829Y375038D01*
D02*
G37*
G36*
X152702Y365664D02*
X152636Y365590D01*
X152577Y365509D01*
X152526Y365420D01*
X152481Y365323D01*
X152443Y365219D01*
X152413Y365106D01*
X152390Y364986D01*
X152373Y364858D01*
X152364Y364722D01*
X152362Y364579D01*
X151193Y365748D01*
X151337Y365750D01*
X151472Y365759D01*
X151600Y365775D01*
X151720Y365799D01*
X151833Y365829D01*
X151937Y365867D01*
X152034Y365912D01*
X152123Y365963D01*
X152205Y366022D01*
X152278Y366088D01*
X152702Y365664D01*
D02*
G37*
G36*
X154811Y378839D02*
X154720Y378835D01*
X154629Y378823D01*
X154539Y378802D01*
X154449Y378772D01*
X154359Y378733D01*
X154270Y378686D01*
X154182Y378630D01*
X154094Y378565D01*
X154006Y378491D01*
X153919Y378408D01*
X153211Y379116D01*
X153294Y379203D01*
X153368Y379290D01*
X153433Y379379D01*
X153489Y379467D01*
X153536Y379556D01*
X153575Y379645D01*
X153605Y379735D01*
X153626Y379826D01*
X153638Y379917D01*
X153642Y380008D01*
X154811Y378839D01*
D02*
G37*
G36*
X139060Y340435D02*
X138978Y340348D01*
X138904Y340261D01*
X138839Y340172D01*
X138783Y340084D01*
X138735Y339995D01*
X138697Y339905D01*
X138667Y339815D01*
X138646Y339725D01*
X138634Y339634D01*
X138630Y339543D01*
X137461Y340712D01*
X137552Y340716D01*
X137643Y340728D01*
X137733Y340749D01*
X137823Y340779D01*
X137913Y340817D01*
X138002Y340865D01*
X138090Y340921D01*
X138179Y340986D01*
X138266Y341060D01*
X138353Y341143D01*
X139060Y340435D01*
D02*
G37*
G36*
X145116Y285876D02*
X145025Y285873D01*
X144934Y285860D01*
X144844Y285839D01*
X144754Y285809D01*
X144664Y285771D01*
X144575Y285723D01*
X144487Y285667D01*
X144399Y285602D01*
X144311Y285528D01*
X144224Y285446D01*
X143517Y286153D01*
X143599Y286240D01*
X143673Y286328D01*
X143738Y286416D01*
X143794Y286504D01*
X143842Y286593D01*
X143880Y286683D01*
X143910Y286773D01*
X143931Y286863D01*
X143943Y286954D01*
X143947Y287045D01*
X145116Y285876D01*
D02*
G37*
G36*
X143810Y283253D02*
X143820Y283139D01*
X143836Y283031D01*
X143859Y282928D01*
X143889Y282832D01*
X143925Y282741D01*
X143967Y282657D01*
X144016Y282578D01*
X144072Y282505D01*
X144134Y282438D01*
X142480D01*
X142542Y282505D01*
X142598Y282578D01*
X142647Y282657D01*
X142690Y282741D01*
X142725Y282832D01*
X142755Y282928D01*
X142778Y283031D01*
X142794Y283139D01*
X142804Y283253D01*
X142807Y283373D01*
X143807D01*
X143810Y283253D01*
D02*
G37*
G36*
X139274Y251124D02*
X139283Y250988D01*
X139299Y250860D01*
X139322Y250740D01*
X139353Y250628D01*
X139390Y250523D01*
X139435Y250426D01*
X139487Y250337D01*
X139546Y250256D01*
X139612Y250183D01*
X139187Y249759D01*
X139114Y249824D01*
X139033Y249883D01*
X138944Y249935D01*
X138847Y249980D01*
X138742Y250017D01*
X138630Y250048D01*
X138510Y250071D01*
X138382Y250087D01*
X138246Y250096D01*
X138102Y250098D01*
X139272Y251268D01*
X139274Y251124D01*
D02*
G37*
G36*
X143499Y234036D02*
X143515Y233937D01*
X143541Y233838D01*
X143578Y233737D01*
X143625Y233637D01*
X143683Y233536D01*
X143752Y233435D01*
X143831Y233332D01*
X143920Y233230D01*
X144020Y233127D01*
X142367D01*
X142467Y233230D01*
X142556Y233332D01*
X142635Y233435D01*
X142704Y233536D01*
X142762Y233637D01*
X142809Y233737D01*
X142846Y233838D01*
X142872Y233937D01*
X142888Y234036D01*
X142893Y234135D01*
X143493D01*
X143499Y234036D01*
D02*
G37*
D74*
X109843Y379134D02*
D03*
Y345118D02*
D03*
D75*
X125591Y379134D02*
D03*
Y345118D02*
D03*
D78*
X169783Y433770D02*
X171161Y435147D01*
X169783Y430854D02*
Y433770D01*
X171161Y435147D02*
Y435335D01*
X129528Y445177D02*
X133071D01*
X124114Y439764D02*
X129528Y445177D01*
X163184Y418804D02*
X168504Y413484D01*
X150172Y330527D02*
X168504Y348860D01*
Y413484D01*
X163540Y420614D02*
X169587Y414567D01*
X153051Y331851D02*
X169587Y348387D01*
Y414567D01*
X128860Y433584D02*
X129035Y433760D01*
X128860Y430586D02*
Y433584D01*
Y430586D02*
X138832Y420614D01*
X172736Y346555D02*
Y417520D01*
X155026Y435230D02*
X172736Y417520D01*
X132874Y435230D02*
X155026D01*
X173716Y345861D02*
Y418706D01*
X155020Y437402D02*
X173716Y418706D01*
X129705Y437402D02*
X155020D01*
X170177Y427067D02*
Y430460D01*
X169783Y430854D02*
X170177Y430460D01*
X124114Y422690D02*
Y439764D01*
X122343Y440846D02*
X129232Y447736D01*
X122343Y422906D02*
Y440846D01*
X129232Y447736D02*
X142028D01*
X124114Y422690D02*
X130048Y416757D01*
X123031Y349508D02*
Y349719D01*
X119095Y353656D02*
X123031Y349719D01*
X119095Y353656D02*
Y383858D01*
X117815Y349591D02*
X118504Y348902D01*
X117815Y349591D02*
Y384744D01*
X138911Y405840D01*
X119095Y383858D02*
X140157Y404921D01*
X171752Y347244D02*
Y416437D01*
X136675Y433245D02*
X154944D01*
X171752Y416437D01*
X130802Y418804D02*
X163184D01*
X138832Y420614D02*
X163540D01*
X170669Y348031D02*
Y415551D01*
X155100Y431121D02*
X170669Y415551D01*
X132682Y431121D02*
X155100D01*
X122343Y422906D02*
X129592Y415657D01*
X133752D01*
X130048Y416757D02*
X134326D01*
X126378Y429900D02*
X126686Y429593D01*
X136659Y433261D02*
X136675Y433245D01*
X138091Y251279D02*
X143193Y246177D01*
Y232283D02*
Y246177D01*
X126378Y434074D02*
X129705Y437402D01*
X140157Y404921D02*
Y410925D01*
X138911Y405840D02*
Y410498D01*
X126378Y429900D02*
Y434074D01*
X130709Y418898D02*
X130802Y418804D01*
X133752Y415657D02*
X138911Y410498D01*
X134326Y416757D02*
X140157Y410925D01*
X157874Y252559D02*
X157972Y252658D01*
Y333465D01*
X171752Y347244D01*
X155315Y254724D02*
Y332677D01*
X170669Y348031D01*
X160728Y334547D02*
X172736Y346555D01*
X160728Y251772D02*
Y334547D01*
X163287Y250787D02*
Y335433D01*
X173716Y345861D01*
X157579Y245079D02*
X163287Y250787D01*
X157677Y248721D02*
X160728Y251772D01*
X152764Y256451D02*
X153051Y256739D01*
Y331851D01*
X150172Y246974D02*
Y330527D01*
Y246974D02*
X153051Y244094D01*
X156102Y369488D02*
Y375984D01*
X151181Y364567D02*
X156102Y369488D01*
D79*
X130512Y314862D02*
Y334154D01*
X104626Y288976D02*
X114862Y299213D01*
X130512Y334154D02*
Y337303D01*
X114862Y299213D02*
X130512Y314862D01*
X143307Y285236D02*
X145128Y287057D01*
X143307Y281594D02*
Y285236D01*
X122244Y368012D02*
X131102Y376870D01*
X122244Y358366D02*
X124803Y355807D01*
X122244Y358366D02*
Y368012D01*
X131102Y376870D02*
Y391929D01*
X137205Y398031D01*
X143209Y251279D02*
X143405D01*
X131299Y355807D02*
X139370Y363878D01*
Y366339D01*
X124803Y355807D02*
X131299D01*
X147835Y349917D02*
Y373031D01*
X137449Y339531D02*
X147835Y349917D01*
X164624Y409055D02*
X166276Y407404D01*
X166644D01*
X148228Y409055D02*
X164624D01*
X130020Y440059D02*
X140157D01*
X140217Y440119D01*
X156239D01*
X158302Y438056D02*
X160172D01*
X160433Y437795D01*
X156239Y440119D02*
X158302Y438056D01*
X127559Y340256D02*
X130512Y337303D01*
X119783Y340256D02*
X127559D01*
X130512Y337303D02*
Y350197D01*
X115650Y344390D02*
X119783Y340256D01*
X115650Y344390D02*
Y401083D01*
X118799Y404232D01*
X137205Y398031D02*
X148228Y409055D01*
X137205Y398031D02*
X162992D01*
X130512Y350197D02*
X142421Y362106D01*
X148622Y232776D02*
Y246063D01*
X125197Y228445D02*
X144291D01*
X148622Y232776D01*
X143405Y251279D02*
X148622Y246063D01*
X106693Y246949D02*
X125197Y228445D01*
X143209Y251279D02*
Y251476D01*
X104626Y249384D02*
X106693Y247317D01*
X104626Y249384D02*
Y288976D01*
X106693Y246949D02*
Y247317D01*
X147835Y373031D02*
X154823Y380020D01*
D83*
X171123Y424081D02*
D03*
X127854Y451181D02*
D03*
X122047Y448228D02*
D03*
X171000Y336000D02*
D03*
X168000Y330000D02*
D03*
Y318000D02*
D03*
X171000Y312000D02*
D03*
X168000Y306000D02*
D03*
X171000Y288000D02*
D03*
X168000Y282000D02*
D03*
X171000Y276000D02*
D03*
X168000Y270000D02*
D03*
X171000Y264000D02*
D03*
X168000Y258000D02*
D03*
X171000Y252000D02*
D03*
X168000Y246000D02*
D03*
X171000Y240000D02*
D03*
X168000Y234000D02*
D03*
X171000Y228000D02*
D03*
X168000Y222000D02*
D03*
X165000Y384000D02*
D03*
X162000Y378000D02*
D03*
X165000Y360000D02*
D03*
X162000Y354000D02*
D03*
X165000Y240000D02*
D03*
X162000Y234000D02*
D03*
X165000Y228000D02*
D03*
X156000Y450000D02*
D03*
X159000Y360000D02*
D03*
X156000Y354000D02*
D03*
X159000Y348000D02*
D03*
X156000Y342000D02*
D03*
X159000Y240000D02*
D03*
X156000Y234000D02*
D03*
X159000Y228000D02*
D03*
X153000Y348000D02*
D03*
X147000Y324000D02*
D03*
Y300000D02*
D03*
X144000Y294000D02*
D03*
X141000Y300000D02*
D03*
X138000Y294000D02*
D03*
Y222000D02*
D03*
X135000Y384000D02*
D03*
Y300000D02*
D03*
X132000Y294000D02*
D03*
X135000Y288000D02*
D03*
X132000Y270000D02*
D03*
X135000Y264000D02*
D03*
X126000Y318000D02*
D03*
X129000Y288000D02*
D03*
X126000Y270000D02*
D03*
Y234000D02*
D03*
Y222000D02*
D03*
X123000Y384000D02*
D03*
X120000Y330000D02*
D03*
Y318000D02*
D03*
X123000Y312000D02*
D03*
X120000Y294000D02*
D03*
Y270000D02*
D03*
X117000Y408000D02*
D03*
Y336000D02*
D03*
Y324000D02*
D03*
X114000Y318000D02*
D03*
X117000Y312000D02*
D03*
Y288000D02*
D03*
X114000Y270000D02*
D03*
Y234000D02*
D03*
X117000Y228000D02*
D03*
X114000Y222000D02*
D03*
X108000Y414000D02*
D03*
X111000Y408000D02*
D03*
X108000Y402000D02*
D03*
X111000Y396000D02*
D03*
X108000Y318000D02*
D03*
X111000Y312000D02*
D03*
X108000Y270000D02*
D03*
Y234000D02*
D03*
X111000Y228000D02*
D03*
X108000Y222000D02*
D03*
X105000Y408000D02*
D03*
Y396000D02*
D03*
Y336000D02*
D03*
Y312000D02*
D03*
Y228000D02*
D03*
X107480Y434055D02*
D03*
X102461Y455217D02*
D03*
X172441Y455315D02*
D03*
X167126D02*
D03*
X161811D02*
D03*
X156201D02*
D03*
X150394D02*
D03*
X144488D02*
D03*
X138779D02*
D03*
X133071D02*
D03*
X127854D02*
D03*
X122244D02*
D03*
X130512Y334154D02*
D03*
X107480Y455217D02*
D03*
X110335Y450394D02*
D03*
X107579Y446949D02*
D03*
Y442717D02*
D03*
X110236Y438386D02*
D03*
X110335Y429429D02*
D03*
X107551Y425971D02*
D03*
X109744Y421850D02*
D03*
X117028Y455315D02*
D03*
Y450591D02*
D03*
Y445768D02*
D03*
Y440846D02*
D03*
Y436024D02*
D03*
X116929Y431102D02*
D03*
X113012Y419300D02*
D03*
X116096Y416215D02*
D03*
X119181Y413131D02*
D03*
X122266Y410046D02*
D03*
X126060Y407895D02*
D03*
X128106Y413562D02*
D03*
X124425Y415901D02*
D03*
X121340Y418986D02*
D03*
X118256Y422070D02*
D03*
X116774Y426173D02*
D03*
X145128Y287057D02*
D03*
X143307Y281594D02*
D03*
X171161Y435335D02*
D03*
X133071Y445177D02*
D03*
X139370Y366339D02*
D03*
X137449Y339531D02*
D03*
X166644Y407404D02*
D03*
X129035Y433760D02*
D03*
X170177Y427067D02*
D03*
X130020Y440059D02*
D03*
X140157D02*
D03*
X142028Y447736D02*
D03*
X123031Y349508D02*
D03*
X118504Y348902D02*
D03*
X118799Y404232D02*
D03*
X160433Y437795D02*
D03*
X126686Y429593D02*
D03*
X139272Y371457D02*
D03*
X142421Y362106D02*
D03*
X162992Y398031D02*
D03*
X106693Y246949D02*
D03*
X114862Y299213D02*
D03*
X136659Y433261D02*
D03*
X143209Y251476D02*
D03*
X154823Y380020D02*
D03*
X123873Y397534D02*
D03*
X130709Y418898D02*
D03*
X132682Y431121D02*
D03*
X166535Y433563D02*
D03*
X132874Y435230D02*
D03*
X157874Y252559D02*
D03*
X155315Y254724D02*
D03*
X152764Y256451D02*
D03*
X157677Y248721D02*
D03*
X156102Y375984D02*
D03*
X156004Y364961D02*
D03*
X154134Y358465D02*
D03*
X151181Y364567D02*
D03*
X153051Y244094D02*
D03*
X157579Y245079D02*
D03*
X143193Y232283D02*
D03*
X138091Y251279D02*
D03*
M02*
