G04*
G04 #@! TF.GenerationSoftware,Altium Limited,Altium Designer,26.9.1 (10)*
G04*
G04 Layer_Color=8388736*
G04 Board_Origin=0|0*
%FSLAX25Y25*%
%MOIN*%
G70*
G04*
G04 #@! TF.SameCoordinates,590D5ED9-90A2-411D-BA64-131C378DF934*
G04*
G04*
G04 #@! TF.FilePolarity,Negative*
G04*
G01*
G75*
%ADD15R,0.02756X0.02362*%
%ADD33R,0.04528X0.02362*%
%ADD35R,0.02362X0.02756*%
%ADD36R,0.04800X0.03600*%
%ADD37R,0.02551X0.02201*%
%ADD38R,0.04528X0.03937*%
%ADD39R,0.01378X0.02559*%
%ADD40R,0.16142X0.07284*%
%ADD42R,0.04528X0.01181*%
%ADD45R,0.04331X0.07480*%
G04:AMPARAMS|DCode=47|XSize=27.56mil|YSize=25.59mil|CornerRadius=5.41mil|HoleSize=0mil|Usage=FLASHONLY|Rotation=270.000|XOffset=0mil|YOffset=0mil|HoleType=Round|Shape=RoundedRectangle|*
%AMROUNDEDRECTD47*
21,1,0.02756,0.01476,0,0,270.0*
21,1,0.01673,0.02559,0,0,270.0*
1,1,0.01083,-0.00738,-0.00837*
1,1,0.01083,-0.00738,0.00837*
1,1,0.01083,0.00738,0.00837*
1,1,0.01083,0.00738,-0.00837*
%
%ADD47ROUNDEDRECTD47*%
%ADD48R,0.02795X0.02638*%
%ADD49R,0.02638X0.02795*%
G04:AMPARAMS|DCode=50|XSize=17.72mil|YSize=21.65mil|CornerRadius=4.9mil|HoleSize=0mil|Usage=FLASHONLY|Rotation=90.000|XOffset=0mil|YOffset=0mil|HoleType=Round|Shape=RoundedRectangle|*
%AMROUNDEDRECTD50*
21,1,0.01772,0.01185,0,0,90.0*
21,1,0.00791,0.02165,0,0,90.0*
1,1,0.00980,0.00593,0.00396*
1,1,0.00980,0.00593,-0.00396*
1,1,0.00980,-0.00593,-0.00396*
1,1,0.00980,-0.00593,0.00396*
%
%ADD50ROUNDEDRECTD50*%
%ADD51R,0.23032X0.23032*%
%ADD52R,0.05512X0.02953*%
%ADD53R,0.01772X0.03937*%
%ADD54R,0.04528X0.07284*%
%ADD55R,0.03347X0.01968*%
%ADD56R,0.13976X0.06496*%
G04:AMPARAMS|DCode=57|XSize=27.56mil|YSize=25.59mil|CornerRadius=5.41mil|HoleSize=0mil|Usage=FLASHONLY|Rotation=0.000|XOffset=0mil|YOffset=0mil|HoleType=Round|Shape=RoundedRectangle|*
%AMROUNDEDRECTD57*
21,1,0.02756,0.01476,0,0,0.0*
21,1,0.01673,0.02559,0,0,0.0*
1,1,0.01083,0.00837,-0.00738*
1,1,0.01083,-0.00837,-0.00738*
1,1,0.01083,-0.00837,0.00738*
1,1,0.01083,0.00837,0.00738*
%
%ADD57ROUNDEDRECTD57*%
%ADD58R,0.01378X0.03543*%
%ADD59R,0.06890X0.04528*%
%ADD60R,0.14370X0.04528*%
%ADD61R,0.05709X0.01772*%
%ADD62R,0.03937X0.01772*%
%ADD63R,0.01555X0.02362*%
%ADD64R,0.03543X0.03937*%
%ADD65R,0.06496X0.09646*%
%ADD66C,0.04528*%
%ADD67R,0.03347X0.01673*%
%ADD68R,0.09252X0.07677*%
%ADD69R,0.03150X0.01968*%
%ADD70R,0.02165X0.02165*%
%ADD71R,0.25984X0.01575*%
%ADD72R,0.01575X0.06299*%
%ADD73R,0.36614X0.01575*%
%ADD74R,0.11417X0.01575*%
%ADD75R,0.01575X0.05906*%
G04:AMPARAMS|DCode=76|XSize=39.37mil|YSize=70.87mil|CornerRadius=19.68mil|HoleSize=0mil|Usage=FLASHONLY|Rotation=270.000|XOffset=0mil|YOffset=0mil|HoleType=Round|Shape=RoundedRectangle|*
%AMROUNDEDRECTD76*
21,1,0.03937,0.03150,0,0,270.0*
21,1,0.00000,0.07087,0,0,270.0*
1,1,0.03937,-0.01575,0.00000*
1,1,0.03937,-0.01575,0.00000*
1,1,0.03937,0.01575,0.00000*
1,1,0.03937,0.01575,0.00000*
%
%ADD76ROUNDEDRECTD76*%
G04:AMPARAMS|DCode=77|XSize=39.37mil|YSize=86.61mil|CornerRadius=19.68mil|HoleSize=0mil|Usage=FLASHONLY|Rotation=270.000|XOffset=0mil|YOffset=0mil|HoleType=Round|Shape=RoundedRectangle|*
%AMROUNDEDRECTD77*
21,1,0.03937,0.04724,0,0,270.0*
21,1,0.00000,0.08661,0,0,270.0*
1,1,0.03937,-0.02362,0.00000*
1,1,0.03937,-0.02362,0.00000*
1,1,0.03937,0.02362,0.00000*
1,1,0.03937,0.02362,0.00000*
%
%ADD77ROUNDEDRECTD77*%
%ADD78C,0.02953*%
D15*
X171161Y449803D02*
D03*
Y446063D02*
D03*
D33*
X127854Y349528D02*
D03*
Y374724D02*
D03*
Y371575D02*
D03*
Y352677D02*
D03*
D35*
X107185Y389961D02*
D03*
X103445D02*
D03*
D36*
X107454Y277988D02*
D03*
X126279Y278005D02*
D03*
Y265105D02*
D03*
X117224Y278005D02*
D03*
Y265105D02*
D03*
X107454Y265088D02*
D03*
D37*
X133323Y246433D02*
D03*
Y251334D02*
D03*
X126271Y248884D02*
D03*
D38*
X149894Y389870D02*
D03*
X140642D02*
D03*
D39*
X148524Y396358D02*
D03*
X151870D02*
D03*
D40*
X112697Y240945D02*
D03*
Y255315D02*
D03*
D42*
X127854Y369016D02*
D03*
Y367047D02*
D03*
Y365079D02*
D03*
Y363110D02*
D03*
Y361142D02*
D03*
Y359173D02*
D03*
Y357205D02*
D03*
Y355236D02*
D03*
D45*
X151575Y447638D02*
D03*
X161417D02*
D03*
D47*
X133307Y241854D02*
D03*
X129764D02*
D03*
X150787Y337500D02*
D03*
X136024Y355512D02*
D03*
X131053Y256053D02*
D03*
X134597D02*
D03*
X106890Y384744D02*
D03*
X103347D02*
D03*
X147244Y337500D02*
D03*
X132480Y355512D02*
D03*
D48*
X163150Y433563D02*
D03*
X161221Y441437D02*
D03*
X167756Y377165D02*
D03*
X151870Y441437D02*
D03*
X140197Y436811D02*
D03*
X140295Y433661D02*
D03*
X148071Y376772D02*
D03*
X142264Y397047D02*
D03*
X144744Y376772D02*
D03*
X138917Y270571D02*
D03*
X138957Y267028D02*
D03*
Y263386D02*
D03*
X138917Y279134D02*
D03*
X139016Y275000D02*
D03*
X138858Y259646D02*
D03*
X138819Y256004D02*
D03*
X138425Y238484D02*
D03*
X138327Y234744D02*
D03*
X110669Y453543D02*
D03*
X110709Y444685D02*
D03*
X110669Y433957D02*
D03*
X110630Y424902D02*
D03*
X135236Y343110D02*
D03*
X127303Y397441D02*
D03*
X160079Y433563D02*
D03*
X143366Y433661D02*
D03*
X143268Y436811D02*
D03*
X141673Y376772D02*
D03*
X141890Y256004D02*
D03*
X113740Y433957D02*
D03*
X138307Y343110D02*
D03*
X130374Y397441D02*
D03*
X145335Y397047D02*
D03*
X154941Y441437D02*
D03*
X158150D02*
D03*
X151142Y376772D02*
D03*
X141496Y238484D02*
D03*
X113779Y444685D02*
D03*
X113740Y453543D02*
D03*
X141988Y279134D02*
D03*
X142087Y275000D02*
D03*
X142028Y263386D02*
D03*
Y267028D02*
D03*
X141988Y270571D02*
D03*
X141398Y234744D02*
D03*
X141929Y259646D02*
D03*
X170827Y377165D02*
D03*
X113701Y424902D02*
D03*
D49*
X166339Y430177D02*
D03*
X153412Y436549D02*
D03*
X166929Y413976D02*
D03*
X156102Y394724D02*
D03*
X159843D02*
D03*
X147134Y436512D02*
D03*
X154921Y388681D02*
D03*
X138287Y347638D02*
D03*
X143898Y334587D02*
D03*
X127559Y421614D02*
D03*
X124409Y424272D02*
D03*
X130315Y401043D02*
D03*
X127264Y401083D02*
D03*
X135236Y388819D02*
D03*
X133268Y275630D02*
D03*
X125213Y243790D02*
D03*
X154921Y385610D02*
D03*
X138287Y350709D02*
D03*
X166339Y427106D02*
D03*
X166929Y410906D02*
D03*
X159843Y397795D02*
D03*
X156102D02*
D03*
X130315Y404114D02*
D03*
X127559Y418543D02*
D03*
X124409Y421201D02*
D03*
X127264Y404154D02*
D03*
X125213Y240719D02*
D03*
X143898Y337657D02*
D03*
X135236Y391890D02*
D03*
X147134Y433441D02*
D03*
X153412Y433478D02*
D03*
X133268Y278701D02*
D03*
X125086Y258134D02*
D03*
Y255064D02*
D03*
D50*
X164665Y381594D02*
D03*
X157972Y385531D02*
D03*
Y383563D02*
D03*
Y381594D02*
D03*
X164665Y385531D02*
D03*
D51*
X148917Y415650D02*
D03*
D52*
X160827Y364961D02*
D03*
X170669Y372441D02*
D03*
Y364961D02*
D03*
X160827Y368701D02*
D03*
Y372441D02*
D03*
D53*
X151870Y402067D02*
D03*
X159744Y429232D02*
D03*
X145965D02*
D03*
X157776Y402067D02*
D03*
X155807D02*
D03*
X159744D02*
D03*
X153839D02*
D03*
X149902D02*
D03*
X147933D02*
D03*
X145965D02*
D03*
X143996D02*
D03*
X142028D02*
D03*
X140059D02*
D03*
X138091D02*
D03*
Y429232D02*
D03*
X140059D02*
D03*
X142028D02*
D03*
X143996D02*
D03*
X147933D02*
D03*
X149902D02*
D03*
X151870D02*
D03*
X153839D02*
D03*
X157776D02*
D03*
X155807D02*
D03*
D54*
X147047Y370571D02*
D03*
D55*
X142913Y368012D02*
D03*
Y373130D02*
D03*
X151181D02*
D03*
Y370571D02*
D03*
Y368012D02*
D03*
X142913Y370571D02*
D03*
D56*
X166732Y323622D02*
D03*
Y297244D02*
D03*
D57*
X146653Y358563D02*
D03*
X150197D02*
D03*
X143110D02*
D03*
X143012Y245866D02*
D03*
X132579Y370374D02*
D03*
X115157Y330906D02*
D03*
X138878Y242323D02*
D03*
Y245866D02*
D03*
X132185Y330512D02*
D03*
X171161Y438779D02*
D03*
Y442323D02*
D03*
X146653Y355020D02*
D03*
X156102Y372736D02*
D03*
Y369193D02*
D03*
X115157Y327362D02*
D03*
X132185Y326969D02*
D03*
X150197Y355020D02*
D03*
X143110D02*
D03*
X143012Y242323D02*
D03*
X132579Y366831D02*
D03*
D58*
X148228Y341929D02*
D03*
X141929Y350590D02*
D03*
X143504D02*
D03*
X145079D02*
D03*
X146653D02*
D03*
X148228D02*
D03*
X146653Y341929D02*
D03*
X145079D02*
D03*
X143504D02*
D03*
X141929D02*
D03*
D59*
X145079Y346260D02*
D03*
D60*
X144095Y314370D02*
D03*
Y306496D02*
D03*
D61*
X148524Y260531D02*
D03*
Y231004D02*
D03*
Y232972D02*
D03*
Y258563D02*
D03*
Y256594D02*
D03*
Y229035D02*
D03*
Y234941D02*
D03*
Y236909D02*
D03*
Y238878D02*
D03*
Y240846D02*
D03*
Y242815D02*
D03*
Y244783D02*
D03*
Y246752D02*
D03*
Y248721D02*
D03*
Y250689D02*
D03*
Y252658D02*
D03*
Y254626D02*
D03*
Y262500D02*
D03*
Y264469D02*
D03*
Y266437D02*
D03*
Y268406D02*
D03*
Y270374D02*
D03*
Y272342D02*
D03*
Y274311D02*
D03*
D62*
X135335Y408760D02*
D03*
X162500Y426476D02*
D03*
Y410728D02*
D03*
X135335Y412697D02*
D03*
Y406791D02*
D03*
X162500Y424508D02*
D03*
Y422539D02*
D03*
Y420571D02*
D03*
Y418602D02*
D03*
Y416634D02*
D03*
Y414665D02*
D03*
Y412697D02*
D03*
Y408760D02*
D03*
Y406791D02*
D03*
Y404823D02*
D03*
X135335D02*
D03*
Y410728D02*
D03*
Y414665D02*
D03*
Y416634D02*
D03*
Y418602D02*
D03*
Y420571D02*
D03*
Y422539D02*
D03*
Y424508D02*
D03*
Y426476D02*
D03*
D63*
X112779Y439370D02*
D03*
X114567D02*
D03*
D64*
X131791Y393996D02*
D03*
X127657Y388681D02*
D03*
Y393996D02*
D03*
X131791Y388681D02*
D03*
D65*
X126378Y299803D02*
D03*
X109252Y300098D02*
D03*
X126378Y326181D02*
D03*
X109252Y326476D02*
D03*
D66*
X121457Y223622D02*
D03*
X132283Y223524D02*
D03*
X142913Y223228D02*
D03*
X106398Y285728D02*
D03*
X140994Y288090D02*
D03*
X123721Y285531D02*
D03*
D67*
X113673Y441784D02*
D03*
Y436961D02*
D03*
D68*
X161319Y221555D02*
D03*
Y281791D02*
D03*
D69*
X113681Y431201D02*
D03*
Y427854D02*
D03*
X113779Y447342D02*
D03*
Y450689D02*
D03*
D70*
Y456988D02*
D03*
D71*
X126772Y480216D02*
D03*
D72*
X138976Y477853D02*
D03*
X103936Y473129D02*
D03*
X138976Y468405D02*
D03*
X103936Y463680D02*
D03*
D73*
X121456Y475493D02*
D03*
X121458Y470767D02*
D03*
X121456Y466044D02*
D03*
D74*
X108858Y461319D02*
D03*
D75*
X113779Y459153D02*
D03*
D76*
X125591Y379134D02*
D03*
Y345118D02*
D03*
D77*
X109843Y379134D02*
D03*
Y345118D02*
D03*
D78*
X128248Y231496D02*
D03*
X133465Y265059D02*
D03*
X134941Y384941D02*
D03*
X124409Y384646D02*
D03*
X103543Y398425D02*
D03*
X172441Y455315D02*
D03*
X167126D02*
D03*
X166535Y433563D02*
D03*
X161811Y455315D02*
D03*
X156201D02*
D03*
X156000Y450000D02*
D03*
X171123Y424081D02*
D03*
X162000Y378000D02*
D03*
X150394Y455315D02*
D03*
X144488D02*
D03*
X138779D02*
D03*
X171000Y336000D02*
D03*
X168000Y318000D02*
D03*
X171000Y312000D02*
D03*
X165000Y360000D02*
D03*
X168000Y330000D02*
D03*
X171000Y288000D02*
D03*
Y276000D02*
D03*
X168000Y306000D02*
D03*
Y282000D02*
D03*
X159000Y360000D02*
D03*
X162000Y354000D02*
D03*
X154134Y358465D02*
D03*
X156000Y354000D02*
D03*
X159000Y348000D02*
D03*
X156000Y342000D02*
D03*
X171000Y252000D02*
D03*
Y264000D02*
D03*
Y240000D02*
D03*
X168000Y246000D02*
D03*
Y234000D02*
D03*
X171000Y228000D02*
D03*
X168000Y222000D02*
D03*
Y270000D02*
D03*
Y258000D02*
D03*
X159000Y240000D02*
D03*
X165000D02*
D03*
X162000Y234000D02*
D03*
X165000Y228000D02*
D03*
X156000Y234000D02*
D03*
X159000Y228000D02*
D03*
X153000Y348000D02*
D03*
X147000Y324000D02*
D03*
Y300000D02*
D03*
X144000Y294000D02*
D03*
X141000Y300000D02*
D03*
X138000Y294000D02*
D03*
Y222000D02*
D03*
X133071Y455315D02*
D03*
X127854D02*
D03*
Y451181D02*
D03*
X122244Y455315D02*
D03*
X122047Y448228D02*
D03*
X117028Y445768D02*
D03*
Y440846D02*
D03*
Y436024D02*
D03*
X118256Y422070D02*
D03*
X124425Y415901D02*
D03*
X128106Y413562D02*
D03*
X121340Y418986D02*
D03*
X119181Y413131D02*
D03*
X126060Y407895D02*
D03*
X122266Y410046D02*
D03*
X117028Y455315D02*
D03*
Y450591D02*
D03*
X110335Y450394D02*
D03*
X102461Y455217D02*
D03*
X107480D02*
D03*
X107579Y442717D02*
D03*
X110236Y438386D02*
D03*
X107579Y446949D02*
D03*
X107480Y434055D02*
D03*
X116929Y431102D02*
D03*
X116774Y426173D02*
D03*
X116096Y416215D02*
D03*
X117000Y408000D02*
D03*
X113012Y419300D02*
D03*
X111000Y408000D02*
D03*
X110335Y429429D02*
D03*
X107551Y425971D02*
D03*
X109744Y421850D02*
D03*
X108000Y402000D02*
D03*
Y414000D02*
D03*
X105000Y408000D02*
D03*
X135000Y300000D02*
D03*
Y288000D02*
D03*
X132000Y294000D02*
D03*
X129000Y288000D02*
D03*
X126000Y318000D02*
D03*
Y270000D02*
D03*
Y222000D02*
D03*
X123873Y397534D02*
D03*
X120000Y330000D02*
D03*
X117520Y337992D02*
D03*
X117000Y324000D02*
D03*
X120000Y318000D02*
D03*
X114000D02*
D03*
X111000Y312000D02*
D03*
Y396000D02*
D03*
X108000Y318000D02*
D03*
X105709Y338189D02*
D03*
X105000Y312000D02*
D03*
X123000D02*
D03*
X120000Y294000D02*
D03*
X117000Y312000D02*
D03*
Y288000D02*
D03*
X120000Y270000D02*
D03*
X117000Y228000D02*
D03*
X114000Y222000D02*
D03*
Y270000D02*
D03*
X108000D02*
D03*
Y234000D02*
D03*
X114000D02*
D03*
X111000Y228000D02*
D03*
X105000D02*
D03*
X108000Y222000D02*
D03*
X138091Y251279D02*
D03*
X141929Y231299D02*
D03*
X154232Y378740D02*
D03*
X162892Y397915D02*
D03*
X133760Y334154D02*
D03*
X160433Y437795D02*
D03*
X166644Y407404D02*
D03*
X142421Y362106D02*
D03*
X142913Y251378D02*
D03*
X140157Y440059D02*
D03*
X130020D02*
D03*
X118799Y404232D02*
D03*
X139272Y371457D02*
D03*
X139370Y366339D02*
D03*
X114862Y299213D02*
D03*
X106693Y246949D02*
D03*
X145719Y287894D02*
D03*
X142283Y282382D02*
D03*
X171161Y435335D02*
D03*
X133071Y445177D02*
D03*
X137449Y339531D02*
D03*
X129035Y433760D02*
D03*
X170177Y427067D02*
D03*
X142028Y447736D02*
D03*
X123031Y349508D02*
D03*
X118504Y348902D02*
D03*
X126686Y429593D02*
D03*
X136659Y433261D02*
D03*
X130709Y418898D02*
D03*
X132682Y431121D02*
D03*
X132874Y435230D02*
D03*
X157874Y252559D02*
D03*
X155315Y254724D02*
D03*
X152764Y256451D02*
D03*
X157677Y248721D02*
D03*
X156102Y375984D02*
D03*
X151181Y364567D02*
D03*
X153051Y244094D02*
D03*
X157579Y245079D02*
D03*
M02*
