M48
;Layer_Color=9474304
;FILE_FORMAT=2:5
INCH
;TYPE=PLATED
T01F00S00C0.01181
%
T01
X0159350Y0227165
X0165650
X0171299Y0225933
X0168299Y0231933
X0162299
X0156299
X0159299Y0237933
X0165299
X0171299
X0168299Y0243933
X0171299Y0249933
X0168299Y0255933
X0171299Y0261933
X0168299Y0267933
X0171299Y0273933
X0168299Y0279933
X0171299Y0285933
X0168701Y0291437
X0168299Y0303933
X0171299Y0309933
X0157874Y0252559
X0157677Y0248721
X0157579Y0245079
X0168299Y0219933
X0138299
X0126299
X0126476Y0225000
X0127067Y0231102
X0122343Y0235236
X0114299Y0231933
X0108299
X0111299Y0225933
X0117299
X0114299Y0219933
X0108299
X0105299Y0225933
X0106693Y0246949
X0120866Y0248228
X0130315Y0239075
X0143193Y0232283
X0143209Y0251476
X0138091Y0251279
X0131595Y0258661
X0125689Y0270571
X0116732Y0270965
X0107776Y0271358
X0118799Y0283169
X0119390Y0292224
X0113287Y0288976
X0114862Y0299213
X0117299Y0309933
X0111299
X0105299
X0135299Y0297933
X0141299
X0147299
X0144299Y0291933
X0145128Y0287057
X0143307Y0281594
X0138299Y0291933
X0134507Y0288648
X0128642Y0288681
X0152764Y0256451
X0155315Y0254724
X0153051Y0244094
X0147299Y0321933
X0147441Y0329331
X0137449Y0339531
X0130512Y0334154
X0117299Y0333933
X0121063Y0328150
X0117299Y0321933
X0120299Y0315933
X0126299
X0114299
X0108299
X0105299Y0333933
X0118504Y0348902
X0123031Y0349508
X0142421Y0362106
X0139370Y0366339
X0139272Y0371457
X0135299Y0381933
X0154823Y0380020
X0156102Y0375984
X0156004Y0364961
X0151181Y0364567
X0154134Y0358465
X0153299Y0345933
X0123873Y0397534
X0118799Y0404232
X0111299Y0405933
X0105299
X0108299Y0411933
X0114299
X0116096Y0416215
X0113012Y0419300
X0109744Y0421850
X0107551Y0425971
X0110335Y0429429
X0107480Y0434055
X0102461Y0432972
X0102854Y0444488
X0107579Y0442717
Y0446949
X0110335Y0450394
X0117028Y0450591
Y0455315
X0122244
X0127854
X0133071
X0138779
X0144488
X0150394
X0156201
X0142028Y0447736
X0140157Y0440059
X0130020
X0129035Y0433760
X0132874Y0435230
X0132682Y0431121
X0136659Y0433261
X0126686Y0429593
X0116929Y0431102
X0117028Y0436024
Y0440846
Y0445768
X0120299Y0447933
X0125886Y0449508
X0133071Y0445177
X0130709Y0418898
X0128106Y0413562
X0124425Y0415901
X0121340Y0418986
X0118256Y0422070
X0116774Y0426173
X0119181Y0413131
X0122266Y0410046
X0126060Y0407895
X0108299Y0399933
X0102657Y0398524
X0111299Y0393933
X0105299Y0417933
X0110236Y0438386
X0107480Y0455217
X0102461
X0161811Y0455315
X0167126
X0172441
X0171161Y0435335
X0166535Y0433563
X0170177Y0427067
X0171358Y0424016
X0166644Y0407404
X0162992Y0398031
X0164764Y0384449
X0161713Y0377854
X0165299Y0357933
X0162299Y0351933
X0156299
X0159299Y0345933
X0156299Y0339933
X0171073Y0336904
X0168110Y0330217
X0168299Y0315933
X0160433Y0437795
M30
