M48
;Layer_Color=9474304
;FILE_FORMAT=2:5
INCH
;TYPE=PLATED
T01F00S00C0.01181
%
T01
X0159000Y0228000
X0165000
X0171000
X0168000Y0234000
X0162000
X0165000Y0240000
X0171000
X0168000Y0246000
X0171000Y0252000
X0168000Y0258000
X0171000Y0264000
X0168000Y0270000
X0171000Y0276000
X0168000Y0282000
X0171000Y0288000
X0168000Y0306000
X0171000Y0312000
X0157874Y0252559
X0157677Y0248721
X0157579Y0245079
X0159000Y0240000
X0168000Y0222000
X0156000Y0234000
X0153051Y0244094
X0152764Y0256451
X0155315Y0254724
X0143209Y0251476
X0138091Y0251279
X0135000Y0264000
X0132000Y0270000
X0126000
X0120000
X0114000
X0108000
X0106693Y0246949
X0108000Y0234000
X0114000
X0117000Y0228000
X0111000
X0105000
X0108000Y0222000
X0114000
X0126000
X0138000
X0143193Y0232283
X0126000Y0234000
X0129000Y0288000
X0135000
X0138000Y0294000
X0144000
X0145128Y0287057
X0143307Y0281594
X0141000Y0300000
X0147000
X0135000
X0132000Y0294000
X0120000
X0117000Y0288000
X0114862Y0299213
X0117000Y0312000
X0123000
X0111000
X0105000
X0108000Y0318000
X0114000
X0120000
X0126000
X0117000Y0324000
X0120000Y0330000
X0117000Y0336000
X0105000
X0118504Y0348902
X0123031Y0349508
X0130512Y0334154
X0137449Y0339531
X0156000Y0342000
X0153000Y0348000
X0156000Y0354000
X0154134Y0358465
X0156004Y0364961
X0151181Y0364567
X0142421Y0362106
X0139370Y0366339
X0139272Y0371457
X0135000Y0384000
X0123000
X0123873Y0397534
X0118799Y0404232
X0117000Y0408000
X0111000
X0105000
X0108000Y0414000
X0114000
X0116096Y0416215
X0113012Y0419300
X0109744Y0421850
X0107551Y0425971
X0110335Y0429429
X0107480Y0434055
X0105000Y0432000
X0110236Y0438386
X0107579Y0442717
X0105000Y0444000
X0107579Y0446949
X0110335Y0450394
X0117028Y0450591
X0120000Y0450000
X0126000
X0127854Y0455315
X0133071
X0138779
X0144488
X0150394
X0156201
X0156000Y0450000
X0142028Y0447736
X0140157Y0440059
X0130020
X0129035Y0433760
X0132874Y0435230
X0132682Y0431121
X0136659Y0433261
X0126686Y0429593
X0116929Y0431102
X0117028Y0436024
Y0440846
Y0445768
Y0455315
X0122244
X0107480Y0455217
X0102461
X0105000Y0420000
X0118256Y0422070
X0116774Y0426173
X0121340Y0418986
X0124425Y0415901
X0128106Y0413562
X0126060Y0407895
X0122266Y0410046
X0119181Y0413131
X0130709Y0418898
X0133071Y0445177
X0108000Y0402000
X0111000Y0396000
X0105000
X0154823Y0380020
X0156102Y0375984
X0147000Y0324000
X0168000Y0330000
X0171000Y0336000
X0168000Y0318000
X0159000Y0348000
X0162000Y0354000
X0165000Y0360000
X0159000
X0162000Y0378000
X0165000Y0384000
X0162992Y0398031
X0166644Y0407404
X0171358Y0424016
X0170177Y0427067
X0171161Y0435335
X0166535Y0433563
X0160433Y0437795
X0161811Y0455315
X0167126
X0172441
M30
