G04*
G04 #@! TF.GenerationSoftware,Altium Limited,Altium Designer,26.9.1 (10)*
G04*
G04 Layer_Color=16711935*
G04 Board_Origin=0|0*
%FSLAX25Y25*%
%MOIN*%
G70*
G04*
G04 #@! TF.SameCoordinates,590D5ED9-90A2-411D-BA64-131C378DF934*
G04*
G04*
G04 #@! TF.FilePolarity,Positive*
G04*
G01*
G75*
%ADD81C,0.01000*%
%ADD86C,0.00197*%
D81*
X100000Y216634D02*
X174705Y216634D01*
X174803Y456693D02*
Y500000D01*
X174803Y216634D02*
X174803Y456693D01*
X100000Y216730D02*
X100000Y500000D01*
X174803D01*
D86*
X159055Y384350D02*
Y383366D01*
X159252Y383169D01*
X159645D01*
X159842Y383366D01*
Y384350D01*
X160236Y384153D02*
X160433Y384350D01*
X160826D01*
X161023Y384153D01*
Y383956D01*
X160826Y383760D01*
X160629D01*
X160826D01*
X161023Y383563D01*
Y383366D01*
X160826Y383169D01*
X160433D01*
X160236Y383366D01*
X161417Y384153D02*
X161613Y384350D01*
X162007D01*
X162204Y384153D01*
Y383366D01*
X162007Y383169D01*
X161613D01*
X161417Y383366D01*
Y384153D01*
X162597D02*
X162794Y384350D01*
X163188D01*
X163384Y384153D01*
Y383366D01*
X163188Y383169D01*
X162794D01*
X162597Y383366D01*
Y384153D01*
M02*
